M48
; DRILL file {KiCad 8.0.3} date 2024-07-24T18:45:32+0900
; FORMAT={-:-/ absolute / inch / decimal}
; #@! TF.CreationDate,2024-07-24T18:45:32+09:00
; #@! TF.GenerationSoftware,Kicad,Pcbnew,8.0.3
; #@! TF.FileFunction,NonPlated,1,2,NPTH
FMAT,2
INCH
; #@! TA.AperFunction,NonPlated,NPTH,ComponentDrill
T1C0.0472
; #@! TA.AperFunction,NonPlated,NPTH,ComponentDrill
T2C0.0670
; #@! TA.AperFunction,NonPlated,NPTH,ComponentDrill
T3C0.1181
; #@! TA.AperFunction,NonPlated,NPTH,ComponentDrill
T4C0.1350
; #@! TA.AperFunction,NonPlated,NPTH,ComponentDrill
T5C0.1969
%
G90
G05
T1
X4.7343Y3.879
X4.7343Y3.6034
X4.8917Y3.879
X4.8917Y3.6034
T2
X0.1877Y3.3575
X0.1877Y2.6075
X0.1877Y1.8575
X0.1877Y1.1075
X0.1877Y0.3575
X0.6207Y3.3575
X0.6207Y2.6075
X0.6207Y1.8575
X0.6207Y1.1075
X0.6207Y0.3575
X0.9377Y3.3575
X0.9377Y2.6075
X0.9377Y1.8575
X0.9377Y1.1075
X0.9377Y0.3575
X1.3707Y3.3575
X1.3707Y2.6075
X1.3707Y1.8575
X1.3707Y1.1075
X1.3707Y0.3575
X1.6877Y3.545
X1.6877Y2.795
X1.6877Y2.045
X1.6877Y1.295
X1.6877Y0.545
X2.1207Y3.545
X2.1207Y2.795
X2.1207Y2.045
X2.1207Y1.295
X2.1207Y0.545
X2.4377Y3.6388
X2.4377Y2.8888
X2.4377Y2.1388
X2.4377Y1.3888
X2.4377Y0.6388
X2.8707Y3.6388
X2.8707Y2.8888
X2.8707Y2.1388
X2.8707Y1.3888
X2.8707Y0.6388
X3.1877Y3.545
X3.1877Y2.795
X3.1877Y2.045
X3.1877Y1.295
X3.6207Y3.545
X3.6207Y2.795
X3.6207Y2.045
X3.6207Y1.295
X3.7525Y0.1995
X3.9377Y3.4513
X3.9377Y2.7013
X3.9377Y1.9513
X3.9377Y1.2013
X3.9691Y0.5746
X4.3707Y3.4513
X4.3707Y2.7013
X4.3707Y1.9513
X4.3707Y1.2013
X4.4184Y-0.1668
X4.6349Y0.2083
X4.6877Y3.0763
X4.6877Y2.3263
X4.6877Y1.5763
X4.7934Y0.4828
X5.0099Y0.8578
X5.1207Y3.0763
X5.1207Y2.3263
X5.1207Y1.5763
X5.2504Y-0.2163
X5.4669Y0.1588
T3
X0.2074Y3.5051
X0.2074Y2.7551
X0.2074Y2.0051
X0.2074Y1.2551
X0.2074Y0.5051
X0.4042Y3.5918
X0.4042Y2.8418
X0.4042Y2.0918
X0.4042Y1.3418
X0.4042Y0.5918
X0.6011Y3.5051
X0.6011Y2.7551
X0.6011Y2.0051
X0.6011Y1.2551
X0.6011Y0.5051
X0.9574Y3.5051
X0.9574Y2.7551
X0.9574Y2.0051
X0.9574Y1.2551
X0.9574Y0.5051
X1.1542Y3.5918
X1.1542Y2.8418
X1.1542Y2.0918
X1.1542Y1.3418
X1.1542Y0.5918
X1.3511Y3.5051
X1.3511Y2.7551
X1.3511Y2.0051
X1.3511Y1.2551
X1.3511Y0.5051
X1.7074Y3.6926
X1.7074Y2.9426
X1.7074Y2.1926
X1.7074Y1.4426
X1.7074Y0.6926
X1.9042Y3.7793
X1.9042Y3.0293
X1.9042Y2.2793
X1.9042Y1.5293
X1.9042Y0.7793
X2.1011Y3.6926
X2.1011Y2.9426
X2.1011Y2.1926
X2.1011Y1.4426
X2.1011Y0.6926
X2.4574Y3.7864
X2.4574Y3.0364
X2.4574Y2.2864
X2.4574Y1.5364
X2.4574Y0.7864
X2.6542Y3.873
X2.6542Y3.123
X2.6542Y2.373
X2.6542Y1.623
X2.6542Y0.873
X2.8511Y3.7864
X2.8511Y3.0364
X2.8511Y2.2864
X2.8511Y1.5364
X2.8511Y0.7864
X3.2074Y3.6926
X3.2074Y2.9426
X3.2074Y2.1926
X3.2074Y1.4426
X3.4042Y3.7793
X3.4042Y3.0293
X3.4042Y2.2793
X3.4042Y1.5293
X3.6011Y3.6926
X3.6011Y2.9426
X3.6011Y2.1926
X3.6011Y1.4426
X3.6345Y0.2904
X3.6579Y0.5042
X3.8314Y0.6313
X3.9574Y3.5989
X3.9574Y2.8489
X3.9574Y2.0989
X3.9574Y1.3489
X4.1542Y3.6855
X4.1542Y2.9355
X4.1542Y2.1855
X4.1542Y1.4355
X4.3511Y3.5989
X4.3511Y2.8489
X4.3511Y2.0989
X4.3511Y1.3489
X4.5561Y-0.2235
X4.7074Y3.2239
X4.7074Y2.4739
X4.7074Y1.7239
X4.7295Y-0.0964
X4.7529Y0.1174
X4.9042Y3.3105
X4.9042Y2.5605
X4.9042Y1.8105
X4.9311Y0.426
X5.1011Y3.2239
X5.1011Y2.4739
X5.1011Y1.7239
X5.1045Y0.5532
X5.1279Y0.7669
X5.3881Y-0.273
X5.5615Y-0.1459
X5.5849Y0.0679
T4
X0.4042Y3.3575
X0.4042Y2.6075
X0.4042Y1.8575
X0.4042Y1.1075
X0.4042Y0.3575
X1.1542Y3.3575
X1.1542Y2.6075
X1.1542Y1.8575
X1.1542Y1.1075
X1.1542Y0.3575
X1.9042Y3.545
X1.9042Y2.795
X1.9042Y2.045
X1.9042Y1.295
X1.9042Y0.545
X2.6542Y3.6388
X2.6542Y2.8888
X2.6542Y2.1388
X2.6542Y1.3888
X2.6542Y0.6388
X3.4042Y3.545
X3.4042Y2.795
X3.4042Y2.045
X3.4042Y1.295
X3.8608Y0.387
X4.1542Y3.4513
X4.1542Y2.7013
X4.1542Y1.9513
X4.1542Y1.2013
X4.5267Y0.0208
X4.9017Y0.6703
X4.9042Y3.0763
X4.9042Y2.3263
X4.9042Y1.5763
X5.3587Y-0.0287
T5
X0.7792Y2.98
X0.7792Y0.72
X2.0342Y3.96
X2.2792Y2.42
X2.2992Y1.02
X4.2942Y0.73
X4.5292Y3.08
M30
