M48
; DRILL file {KiCad 8.0.3} date 2024-07-25T04:43:43+0900
; FORMAT={-:-/ absolute / inch / decimal}
; #@! TF.CreationDate,2024-07-25T04:43:43+09:00
; #@! TF.GenerationSoftware,Kicad,Pcbnew,8.0.3
; #@! TF.FileFunction,Plated,1,2,PTH
FMAT,2
INCH
; #@! TA.AperFunction,Plated,PTH,ViaDrill
T1C0.0157
; #@! TA.AperFunction,Plated,PTH,ComponentDrill
T2C0.0157
; #@! TA.AperFunction,Plated,PTH,ComponentDrill
T3C0.0236
; #@! TA.AperFunction,Plated,PTH,ComponentDrill
T4C0.0315
; #@! TA.AperFunction,Plated,PTH,ComponentDrill
T5C0.0320
; #@! TA.AperFunction,Plated,PTH,ComponentDrill
T6C0.0500
%
G90
G05
T1
X1.795Y1.1558
X1.9193Y3.8681
X1.9722Y3.6298
X2.0739Y2.3784
X2.2447Y3.521
X2.7268Y1.5377
X3.4378Y3.422
X4.5176Y2.2041
X4.6063Y3.8878
X4.6589Y0.9483
X4.7317Y1.0215
X4.7835Y3.0118
X4.786Y1.4631
X4.8443Y3.4343
X4.8622Y2.9626
X4.953Y2.7089
X4.9827Y2.6645
X5.0333Y3.3874
X5.1975Y0.3354
X5.2436Y3.0257
X5.248Y2.6765
X5.3051Y2.9626
X5.3617Y3.2076
X5.3617Y2.9933
X5.3826Y3.3071
X5.4056Y3.3485
X5.527Y-0.0583
X5.6825Y2.7047
T2
X0.3205Y0.7579
X0.3539Y3.0217
X0.4488Y0.7579
X0.4823Y3.0217
X0.7382Y2.5043
X0.7382Y2.376
X0.748Y1.7366
X0.748Y1.6083
X1.0843Y0.748
X1.2126Y0.748
X1.4665Y3.2228
X1.4665Y3.0945
X1.4665Y2.4453
X1.4665Y2.3169
X1.4665Y0.9925
X1.4665Y0.8642
X1.4764Y1.7563
X1.4764Y1.628
X1.5742Y3.4242
X1.5742Y3.2958
X1.5742Y1.1742
X1.5742Y1.0458
X1.5748Y0.4374
X1.5748Y0.3091
X1.5846Y2.6692
X1.5846Y2.5408
X1.5846Y1.9242
X1.5846Y1.7958
X1.85Y1.7224
X1.9783Y1.7224
X2.0567Y3.1988
X2.185Y3.1988
X2.2539Y1.9276
X2.2539Y1.7992
X2.3327Y0.5358
X2.3327Y0.4075
X2.539Y1.7618
X2.6673Y1.7618
X2.9823Y2.022
X2.9823Y1.8937
X2.9842Y2.7242
X2.9842Y2.5958
X3.7205Y2.6264
X3.7205Y2.498
X3.7205Y1.8902
X3.7205Y1.7618
X3.7205Y1.0732
X3.7205Y0.9449
X3.8287Y1.1165
X3.8287Y0.9882
X3.8292Y1.835
X3.8292Y1.7067
X3.8386Y3.3606
X3.8386Y3.2323
X3.8386Y2.5201
X3.8386Y2.3917
X4.1211Y0.6449
X4.19Y0.1504
X4.2323Y0.5807
X4.2541Y0.2616
X4.4685Y1.7323
X4.4685Y1.6039
X4.4783Y2.5969
X4.4783Y2.4685
X4.4842Y1.0969
X4.4842Y0.9685
X4.5866Y2.2287
X4.5866Y2.1004
X5.0047Y0.0759
X5.0689Y0.187
T4
X0.1846Y0.7579
X0.2181Y3.0217
X0.5846Y0.7579
X0.6181Y3.0217
X0.7382Y2.6402
X0.7382Y2.2402
X0.748Y1.8724
X0.748Y1.4724
X0.9484Y0.748
X1.3484Y0.748
X1.4665Y3.3587
X1.4665Y2.9587
X1.4665Y2.5811
X1.4665Y2.1811
X1.4665Y1.1283
X1.4665Y0.7283
X1.4764Y1.8921
X1.4764Y1.4921
X1.5742Y3.56
X1.5742Y3.16
X1.5742Y1.31
X1.5742Y0.91
X1.5748Y0.5732
X1.5748Y0.1732
X1.5846Y2.805
X1.5846Y2.405
X1.5846Y2.06
X1.5846Y1.66
X1.7142Y1.7224
X1.9209Y3.1988
X2.1142Y1.7224
X2.2539Y2.0634
X2.2539Y1.6634
X2.3209Y3.1988
X2.3327Y0.6717
X2.3327Y0.2717
X2.4031Y1.7618
X2.8031Y1.7618
X2.9823Y2.1579
X2.9823Y1.7579
X2.9842Y2.86
X2.9842Y2.46
X3.7205Y2.7622
X3.7205Y2.3622
X3.7205Y2.026
X3.7205Y1.626
X3.7205Y1.2091
X3.7205Y0.8091
X3.8287Y1.2524
X3.8287Y0.8524
X3.8292Y1.9709
X3.8292Y1.5709
X3.8386Y3.4965
X3.8386Y3.0965
X3.8386Y2.6559
X3.8386Y2.2559
X4.0035Y0.7128
X4.122Y0.0328
X4.322Y0.3792
X4.3499Y0.5128
X4.4685Y1.8681
X4.4685Y1.4681
X4.4783Y2.7327
X4.4783Y2.3327
X4.4842Y1.2327
X4.4842Y0.8327
X4.5866Y2.3646
X4.5866Y1.9646
X4.9368Y-0.0418
X5.1368Y0.3046
T5
X5.4658Y3.3059
X5.4658Y3.2059
X5.4658Y3.1059
X5.4658Y3.0059
X5.4658Y2.9059
X5.4658Y2.8059
X5.4658Y2.7059
X5.4658Y2.6059
X5.4658Y2.5059
X5.4658Y2.4059
X5.4658Y2.3059
X5.4658Y2.2059
X5.589Y3.2469
X5.589Y3.1469
X5.589Y3.0469
X5.589Y2.9469
X5.589Y2.8469
X5.589Y2.7469
X5.589Y2.6469
X5.589Y2.5469
X5.589Y2.4469
X5.589Y2.3469
X5.589Y2.2469
X5.589Y2.1469
X6.0658Y3.3059
X6.0658Y3.2059
X6.0658Y3.1059
X6.0658Y3.0059
X6.0658Y2.9059
X6.0658Y2.8059
X6.0658Y2.7059
X6.0658Y2.6059
X6.0658Y2.5059
X6.0658Y2.4059
X6.0658Y2.3059
X6.0658Y2.2059
X6.189Y3.2469
X6.189Y3.1469
X6.189Y3.0469
X6.189Y2.9469
X6.189Y2.8469
X6.189Y2.7469
X6.189Y2.6469
X6.189Y2.5469
X6.189Y2.4469
X6.189Y2.3469
X6.189Y2.2469
X6.189Y2.1469
T6
X0.2074Y3.2079
X0.2074Y2.4579
X0.2074Y1.7079
X0.2074Y0.9579
X0.2074Y0.2079
X0.4042Y3.1252
X0.4042Y2.3752
X0.4042Y1.6252
X0.4042Y0.8752
X0.4042Y0.1252
X0.6011Y3.2079
X0.6011Y2.4579
X0.6011Y1.7079
X0.6011Y0.9579
X0.6011Y0.2079
X0.9574Y3.2079
X0.9574Y2.4579
X0.9574Y1.7079
X0.9574Y0.9579
X0.9574Y0.2079
X1.1542Y3.1252
X1.1542Y2.3752
X1.1542Y1.6252
X1.1542Y0.8752
X1.1542Y0.1252
X1.3511Y3.2079
X1.3511Y2.4579
X1.3511Y1.7079
X1.3511Y0.9579
X1.3511Y0.2079
X1.7074Y3.3954
X1.7074Y2.6454
X1.7074Y1.8954
X1.7074Y1.1454
X1.7074Y0.3954
X1.9042Y3.3127
X1.9042Y2.5627
X1.9042Y1.8127
X1.9042Y1.0627
X1.9042Y0.3127
X2.1011Y3.3954
X2.1011Y2.6454
X2.1011Y1.8954
X2.1011Y1.1454
X2.1011Y0.3954
X2.4574Y3.4891
X2.4574Y2.7391
X2.4574Y1.9891
X2.4574Y1.2391
X2.4574Y0.4891
X2.6542Y3.4065
X2.6542Y2.6565
X2.6542Y1.9065
X2.6542Y1.1565
X2.6542Y0.4065
X2.8511Y3.4891
X2.8511Y2.7391
X2.8511Y1.9891
X2.8511Y1.2391
X2.8511Y0.4891
X3.2074Y3.3954
X3.2074Y2.6454
X3.2074Y1.8954
X3.2074Y1.1454
X3.4042Y3.3127
X3.4042Y2.5627
X3.4042Y1.8127
X3.4042Y1.0627
X3.6011Y3.3954
X3.6011Y2.6454
X3.6011Y1.8954
X3.6011Y1.1454
X3.8919Y0.1418
X3.9574Y3.3016
X3.9574Y2.5516
X3.9574Y1.8016
X3.9574Y1.0516
X4.062Y0.2709
X4.0888Y0.4827
X4.1542Y3.219
X4.1542Y2.469
X4.1542Y1.719
X4.1542Y0.969
X4.2987Y-0.0749
X4.3255Y0.1369
X4.3511Y3.3016
X4.3511Y2.5516
X4.3511Y1.8016
X4.3511Y1.0516
X4.4955Y0.266
X4.6737Y0.5746
X4.7005Y0.7864
X4.7074Y2.9266
X4.7074Y2.1766
X4.7074Y1.4266
X4.8705Y0.9156
X4.9042Y2.844
X4.9042Y2.094
X4.9042Y1.344
X5.1011Y2.9266
X5.1011Y2.1766
X5.1011Y1.4266
X5.1307Y-0.1244
X5.1575Y0.0874
X5.3275Y0.2165
T3
G00X4.5866Y3.5118
M15
G01X4.5866Y3.4764
M16
G05
G00X4.7441Y3.8465
M15
G01X4.7441Y3.811
M16
G05
G00X4.7441Y3.7283
M15
G01X4.7441Y3.6929
M16
G05
G00X4.7441Y3.5709
M15
G01X4.7441Y3.5354
M16
G05
G00X4.9016Y3.5118
M15
G01X4.9016Y3.4764
M16
G05
M30
