%TF.GenerationSoftware,KiCad,Pcbnew,8.0.3*%
%TF.CreationDate,2024-07-25T04:43:43+09:00*%
%TF.ProjectId,ergodash,6572676f-6461-4736-982e-6b696361645f,2.0*%
%TF.SameCoordinates,Original*%
%TF.FileFunction,Soldermask,Bot*%
%TF.FilePolarity,Negative*%
%FSLAX46Y46*%
G04 Gerber Fmt 4.6, Leading zero omitted, Abs format (unit mm)*
G04 Created by KiCad (PCBNEW 8.0.3) date 2024-07-25 04:43:43*
%MOMM*%
%LPD*%
G01*
G04 APERTURE LIST*
G04 Aperture macros list*
%AMRoundRect*
0 Rectangle with rounded corners*
0 $1 Rounding radius*
0 $2 $3 $4 $5 $6 $7 $8 $9 X,Y pos of 4 corners*
0 Add a 4 corners polygon primitive as box body*
4,1,4,$2,$3,$4,$5,$6,$7,$8,$9,$2,$3,0*
0 Add four circle primitives for the rounded corners*
1,1,$1+$1,$2,$3*
1,1,$1+$1,$4,$5*
1,1,$1+$1,$6,$7*
1,1,$1+$1,$8,$9*
0 Add four rect primitives between the rounded corners*
20,1,$1+$1,$2,$3,$4,$5,0*
20,1,$1+$1,$4,$5,$6,$7,0*
20,1,$1+$1,$6,$7,$8,$9,0*
20,1,$1+$1,$8,$9,$2,$3,0*%
%AMHorizOval*
0 Thick line with rounded ends*
0 $1 width*
0 $2 $3 position (X,Y) of the first rounded end (center of the circle)*
0 $4 $5 position (X,Y) of the second rounded end (center of the circle)*
0 Add line between two ends*
20,1,$1,$2,$3,$4,$5,0*
0 Add two circle primitives to create the rounded ends*
1,1,$1,$2,$3*
1,1,$1,$4,$5*%
%AMFreePoly0*
4,1,22,1.386777,1.480194,1.456366,1.424698,1.494986,1.344504,1.500000,1.300000,1.500000,-1.300000,1.480194,-1.386777,1.424698,-1.456366,1.344504,-1.494986,1.300000,-1.500000,0.000000,-1.500000,-0.086777,-1.480194,-0.141421,-1.441421,-1.441421,-0.141421,-1.488777,-0.066056,-1.500000,0.000000,-1.500000,1.300000,-1.480194,1.386777,-1.424698,1.456366,-1.344504,1.494986,-1.300000,1.500000,
1.300000,1.500000,1.386777,1.480194,1.386777,1.480194,$1*%
%AMFreePoly1*
4,1,22,0.086777,1.480194,0.141421,1.441421,1.441421,0.141421,1.488777,0.066056,1.500000,0.000000,1.500000,-1.300000,1.480194,-1.386777,1.424698,-1.456366,1.344504,-1.494986,1.300000,-1.500000,-1.300000,-1.500000,-1.386777,-1.480194,-1.456366,-1.424698,-1.494986,-1.344504,-1.500000,-1.300000,-1.500000,1.300000,-1.480194,1.386777,-1.424698,1.456366,-1.344504,1.494986,-1.300000,1.500000,
0.000000,1.500000,0.086777,1.480194,0.086777,1.480194,$1*%
G04 Aperture macros list end*
%ADD10C,5.400000*%
%ADD11O,1.700000X2.600000*%
%ADD12C,1.610000*%
%ADD13C,1.924000*%
%ADD14RoundRect,0.200000X0.292820X-1.092820X1.092820X0.292820X-0.292820X1.092820X-1.092820X-0.292820X0*%
%ADD15RoundRect,0.200000X0.119615X-0.992820X0.919615X0.392820X-0.119615X0.992820X-0.919615X-0.392820X0*%
%ADD16HorizOval,2.000000X0.000000X0.000000X0.000000X0.000000X0*%
%ADD17C,2.101800*%
%ADD18C,3.400000*%
%ADD19C,3.829000*%
%ADD20FreePoly0,0.000000*%
%ADD21C,2.432000*%
%ADD22RoundRect,0.200000X-1.300000X-1.300000X1.300000X-1.300000X1.300000X1.300000X-1.300000X1.300000X0*%
%ADD23FreePoly0,240.000000*%
%ADD24RoundRect,0.200000X-0.475833X1.775833X-1.775833X-0.475833X0.475833X-1.775833X1.775833X0.475833X0*%
%ADD25FreePoly0,60.000000*%
%ADD26RoundRect,0.200000X0.475833X-1.775833X1.775833X0.475833X-0.475833X1.775833X-1.775833X-0.475833X0*%
%ADD27RoundRect,0.200000X0.800000X0.800000X-0.800000X0.800000X-0.800000X-0.800000X0.800000X-0.800000X0*%
%ADD28RoundRect,0.200000X0.800000X0.600000X-0.800000X0.600000X-0.800000X-0.600000X0.800000X-0.600000X0*%
%ADD29O,2.000000X2.000000*%
%ADD30RoundRect,0.200000X0.800000X-0.800000X0.800000X0.800000X-0.800000X0.800000X-0.800000X-0.800000X0*%
%ADD31RoundRect,0.200000X0.600000X-0.800000X0.600000X0.800000X-0.600000X0.800000X-0.600000X-0.800000X0*%
%ADD32RoundRect,0.200000X1.092820X0.292820X-0.292820X1.092820X-1.092820X-0.292820X0.292820X-1.092820X0*%
%ADD33RoundRect,0.200000X0.992820X0.119615X-0.392820X0.919615X-0.992820X-0.119615X0.392820X-0.919615X0*%
%ADD34HorizOval,2.000000X0.000000X0.000000X0.000000X0.000000X0*%
%ADD35FreePoly1,180.000000*%
%ADD36RoundRect,0.200000X1.300000X1.300000X-1.300000X1.300000X-1.300000X-1.300000X1.300000X-1.300000X0*%
G04 APERTURE END LIST*
D10*
%TO.C,U1*%
X57892000Y61468000D03*
%TD*%
%TO.C,U2*%
X115042000Y78232000D03*
%TD*%
%TO.C,U4*%
X109073000Y18542000D03*
%TD*%
%TO.C,U5*%
X19792000Y75692000D03*
%TD*%
%TO.C,U7*%
X19792000Y18288000D03*
%TD*%
D11*
%TO.C,J1*%
X124500000Y88750000D03*
X116500000Y88750000D03*
X120500000Y94250000D03*
X120500000Y97250000D03*
X120500000Y90250000D03*
D12*
X118500000Y92050000D03*
X122500000Y92050000D03*
X118500000Y99050000D03*
X122500000Y99050000D03*
%TD*%
D10*
%TO.C,U8*%
X58400000Y25908000D03*
%TD*%
%TO.C,U9*%
X51669000Y100584000D03*
%TD*%
D13*
%TO.C,U3*%
X138830400Y83970000D03*
X138830400Y81430000D03*
X138830400Y78890000D03*
X138830400Y76350000D03*
X138830400Y73810000D03*
X138830400Y71270000D03*
X138830400Y68730000D03*
X138830400Y66190000D03*
X138830400Y63650000D03*
X138830400Y61110000D03*
X138830400Y58570000D03*
X138830400Y56030000D03*
X154070400Y56030000D03*
X154070400Y58570000D03*
X154070400Y61110000D03*
X154070400Y63650000D03*
X154070400Y66190000D03*
X154070400Y68730000D03*
X154070400Y71270000D03*
X154070400Y73810000D03*
X154070400Y76350000D03*
X154070400Y78890000D03*
X154070400Y81430000D03*
X154070400Y83970000D03*
%TD*%
D14*
%TO.C,D68*%
X125395000Y-1061000D03*
D15*
X127120000Y1926788D03*
X128750000Y4750030D03*
D16*
X130475000Y7737818D03*
%TD*%
D17*
%TO.C,SW5*%
X23817000Y85280500D03*
D18*
X24317000Y89030500D03*
X29317000Y91230500D03*
D19*
X29317000Y85280500D03*
D18*
X34317000Y89030500D03*
D17*
X34817000Y85280500D03*
D20*
X26042000Y91230500D03*
D21*
X29317000Y79380500D03*
X24317000Y81480500D03*
X34317000Y81480500D03*
D22*
X37592000Y89030500D03*
%TD*%
D17*
%TO.C,SW6*%
X23817000Y66230500D03*
D18*
X24317000Y69980500D03*
X29317000Y72180500D03*
D19*
X29317000Y66230500D03*
D18*
X34317000Y69980500D03*
D17*
X34817000Y66230500D03*
D20*
X26042000Y72180500D03*
D21*
X29317000Y60330500D03*
X24317000Y62430500D03*
X34317000Y62430500D03*
D22*
X37592000Y69980500D03*
%TD*%
D17*
%TO.C,SW7*%
X23817000Y47180500D03*
D18*
X24317000Y50930500D03*
X29317000Y53130500D03*
D19*
X29317000Y47180500D03*
D18*
X34317000Y50930500D03*
D17*
X34817000Y47180500D03*
D20*
X26042000Y53130500D03*
D21*
X29317000Y41280500D03*
X24317000Y43380500D03*
X34317000Y43380500D03*
D22*
X37592000Y50930500D03*
%TD*%
D17*
%TO.C,SW8*%
X23817000Y28130500D03*
D18*
X24317000Y31880500D03*
X29317000Y34080500D03*
D19*
X29317000Y28130500D03*
D18*
X34317000Y31880500D03*
D17*
X34817000Y28130500D03*
D20*
X26042000Y34080500D03*
D21*
X29317000Y22230500D03*
X24317000Y24330500D03*
X34317000Y24330500D03*
D22*
X37592000Y31880500D03*
%TD*%
D17*
%TO.C,SW12*%
X42867000Y32893000D03*
D18*
X43367000Y36643000D03*
X48367000Y38843000D03*
D19*
X48367000Y32893000D03*
D18*
X53367000Y36643000D03*
D17*
X53867000Y32893000D03*
D20*
X45092000Y38843000D03*
D21*
X48367000Y26993000D03*
X43367000Y29093000D03*
X53367000Y29093000D03*
D22*
X56642000Y36643000D03*
%TD*%
D17*
%TO.C,SW13*%
X61917000Y92424300D03*
D18*
X62417000Y96174300D03*
X67417000Y98374300D03*
D19*
X67417000Y92424300D03*
D18*
X72417000Y96174300D03*
D17*
X72917000Y92424300D03*
D20*
X64142000Y98374300D03*
D21*
X67417000Y86524300D03*
X62417000Y88624300D03*
X72417000Y88624300D03*
D22*
X75692000Y96174300D03*
%TD*%
D17*
%TO.C,SW14*%
X61917000Y73374300D03*
D18*
X62417000Y77124300D03*
X67417000Y79324300D03*
D19*
X67417000Y73374300D03*
D18*
X72417000Y77124300D03*
D17*
X72917000Y73374300D03*
D20*
X64142000Y79324300D03*
D21*
X67417000Y67474300D03*
X62417000Y69574300D03*
X72417000Y69574300D03*
D22*
X75692000Y77124300D03*
%TD*%
D17*
%TO.C,SW15*%
X61917000Y54324300D03*
D18*
X62417000Y58074300D03*
X67417000Y60274300D03*
D19*
X67417000Y54324300D03*
D18*
X72417000Y58074300D03*
D17*
X72917000Y54324300D03*
D20*
X64142000Y60274300D03*
D21*
X67417000Y48424300D03*
X62417000Y50524300D03*
X72417000Y50524300D03*
D22*
X75692000Y58074300D03*
%TD*%
D17*
%TO.C,SW16*%
X61917000Y35274300D03*
D18*
X62417000Y39024300D03*
X67417000Y41224300D03*
D19*
X67417000Y35274300D03*
D18*
X72417000Y39024300D03*
D17*
X72917000Y35274300D03*
D20*
X64142000Y41224300D03*
D21*
X67417000Y29374300D03*
X62417000Y31474300D03*
X72417000Y31474300D03*
D22*
X75692000Y39024300D03*
%TD*%
D17*
%TO.C,SW17*%
X80967000Y90043000D03*
D18*
X81467000Y93793000D03*
X86467000Y95993000D03*
D19*
X86467000Y90043000D03*
D18*
X91467000Y93793000D03*
D17*
X91967000Y90043000D03*
D20*
X83192000Y95993000D03*
D21*
X86467000Y84143000D03*
X81467000Y86243000D03*
X91467000Y86243000D03*
D22*
X94742000Y93793000D03*
%TD*%
D17*
%TO.C,SW18*%
X80967000Y70993000D03*
D18*
X81467000Y74743000D03*
X86467000Y76943000D03*
D19*
X86467000Y70993000D03*
D18*
X91467000Y74743000D03*
D17*
X91967000Y70993000D03*
D20*
X83192000Y76943000D03*
D21*
X86467000Y65093000D03*
X81467000Y67193000D03*
X91467000Y67193000D03*
D22*
X94742000Y74743000D03*
%TD*%
D17*
%TO.C,SW19*%
X80967000Y51943000D03*
D18*
X81467000Y55693000D03*
X86467000Y57893000D03*
D19*
X86467000Y51943000D03*
D18*
X91467000Y55693000D03*
D17*
X91967000Y51943000D03*
D20*
X83192000Y57893000D03*
D21*
X86467000Y46043000D03*
X81467000Y48143000D03*
X91467000Y48143000D03*
D22*
X94742000Y55693000D03*
%TD*%
D17*
%TO.C,SW20*%
X80967000Y32893000D03*
D18*
X81467000Y36643000D03*
X86467000Y38843000D03*
D19*
X86467000Y32893000D03*
D18*
X91467000Y36643000D03*
D17*
X91967000Y32893000D03*
D20*
X83192000Y38843000D03*
D21*
X86467000Y26993000D03*
X81467000Y29093000D03*
X91467000Y29093000D03*
D22*
X94742000Y36643000D03*
%TD*%
D17*
%TO.C,SW21*%
X100017000Y87661800D03*
D18*
X100517000Y91411800D03*
X105517000Y93611800D03*
D19*
X105517000Y87661800D03*
D18*
X110517000Y91411800D03*
D17*
X111017000Y87661800D03*
D20*
X102242000Y93611800D03*
D21*
X105517000Y81761800D03*
X100517000Y83861800D03*
X110517000Y83861800D03*
D22*
X113792000Y91411800D03*
%TD*%
D17*
%TO.C,SW25*%
X119067000Y78136800D03*
D18*
X119567000Y81886800D03*
X124567000Y84086800D03*
D19*
X124567000Y78136800D03*
D18*
X129567000Y81886800D03*
D17*
X130067000Y78136800D03*
D20*
X121292000Y84086800D03*
D21*
X124567000Y72236800D03*
X119567000Y74336800D03*
X129567000Y74336800D03*
D22*
X132842000Y81886800D03*
%TD*%
D17*
%TO.C,SW26*%
X119067000Y59086800D03*
D18*
X119567000Y62836800D03*
X124567000Y65036800D03*
D19*
X124567000Y59086800D03*
D18*
X129567000Y62836800D03*
D17*
X130067000Y59086800D03*
D20*
X121292000Y65036800D03*
D21*
X124567000Y53186800D03*
X119567000Y55286800D03*
X129567000Y55286800D03*
D22*
X132842000Y62836800D03*
%TD*%
D17*
%TO.C,SW27*%
X119067000Y40036800D03*
D18*
X119567000Y43786800D03*
X124567000Y45986800D03*
D19*
X124567000Y40036800D03*
D18*
X129567000Y43786800D03*
D17*
X130067000Y40036800D03*
D20*
X121292000Y45986800D03*
D21*
X124567000Y34136800D03*
X119567000Y36236800D03*
X129567000Y36236800D03*
D22*
X132842000Y43786800D03*
%TD*%
D17*
%TO.C,SW28*%
X127252000Y21788240D03*
D18*
X130249595Y19480227D03*
X129654851Y14050100D03*
D19*
X124502000Y17025100D03*
D18*
X125249595Y10819973D03*
D17*
X121752000Y12261960D03*
D23*
X131292351Y16886333D03*
D21*
X119392450Y19975100D03*
X123711103Y23255227D03*
X118711103Y14594973D03*
D24*
X123612095Y7983740D03*
%TD*%
D17*
%TO.C,SW31*%
X23817000Y9080500D03*
D18*
X24317000Y12830500D03*
X29317000Y15030500D03*
D19*
X29317000Y9080500D03*
D18*
X34317000Y12830500D03*
D17*
X34817000Y9080500D03*
D20*
X26042000Y15030500D03*
D21*
X29317000Y3180500D03*
X24317000Y5280500D03*
X34317000Y5280500D03*
D22*
X37592000Y12830500D03*
%TD*%
D17*
%TO.C,SW34*%
X95314000Y5067660D03*
D18*
X92316405Y7375673D03*
X92911149Y12805800D03*
D19*
X98064000Y9830800D03*
D18*
X97316405Y16035927D03*
D17*
X100814000Y14593940D03*
D25*
X91273649Y9969567D03*
D21*
X103173550Y6880800D03*
X98854897Y3600673D03*
X103854897Y12260927D03*
D26*
X98953905Y18872160D03*
%TD*%
D17*
%TO.C,SW35*%
X117727000Y5290240D03*
D18*
X120724595Y2982227D03*
X120129851Y-2447900D03*
D19*
X114977000Y527100D03*
D18*
X115724595Y-5678027D03*
D17*
X112227000Y-4236040D03*
D23*
X121767351Y388333D03*
D21*
X109867450Y3477100D03*
X114186103Y6757227D03*
X109186103Y-1903027D03*
D24*
X114087095Y-8514260D03*
%TD*%
D17*
%TO.C,SW41*%
X138860000Y4033140D03*
D18*
X141857595Y1725127D03*
X141262851Y-3705000D03*
D19*
X136110000Y-730000D03*
D18*
X136857595Y-6935127D03*
D17*
X133360000Y-5493140D03*
D23*
X142900351Y-868767D03*
D21*
X131000450Y2220000D03*
X135319103Y5500127D03*
X130319103Y-3160127D03*
D24*
X135220095Y-9771360D03*
%TD*%
D27*
%TO.C,D1*%
X15700000Y76750000D03*
D28*
X12250000Y76750000D03*
X8990000Y76750000D03*
D29*
X5540000Y76750000D03*
%TD*%
D30*
%TO.C,D2*%
X18750000Y56900000D03*
D31*
X18750000Y60350000D03*
X18750000Y63610000D03*
D29*
X18750000Y67060000D03*
%TD*%
D30*
%TO.C,D3*%
X19000000Y37400000D03*
D31*
X19000000Y40850000D03*
X19000000Y44110000D03*
D29*
X19000000Y47560000D03*
%TD*%
D30*
%TO.C,D4*%
X37250000Y18500000D03*
D31*
X37250000Y21950000D03*
X37250000Y25210000D03*
D29*
X37250000Y28660000D03*
%TD*%
D30*
%TO.C,D5*%
X37250000Y75150000D03*
D31*
X37250000Y78600000D03*
X37250000Y81860000D03*
D29*
X37250000Y85310000D03*
%TD*%
D30*
%TO.C,D6*%
X37250000Y55400000D03*
D31*
X37250000Y58850000D03*
X37250000Y62110000D03*
D29*
X37250000Y65560000D03*
%TD*%
D30*
%TO.C,D7*%
X37500000Y37900000D03*
D31*
X37500000Y41350000D03*
X37500000Y44610000D03*
D29*
X37500000Y48060000D03*
%TD*%
D30*
%TO.C,D8*%
X39985000Y23114000D03*
D31*
X39985000Y26564000D03*
X39985000Y29824000D03*
D29*
X39985000Y33274000D03*
%TD*%
D30*
%TO.C,D9*%
X39985000Y80264000D03*
D31*
X39985000Y83714000D03*
X39985000Y86974000D03*
D29*
X39985000Y90424000D03*
%TD*%
D30*
%TO.C,D10*%
X40250000Y61087000D03*
D31*
X40250000Y64537000D03*
X40250000Y67797000D03*
D29*
X40250000Y71247000D03*
%TD*%
D30*
%TO.C,D11*%
X40250000Y42164000D03*
D31*
X40250000Y45614000D03*
X40250000Y48874000D03*
D29*
X40250000Y52324000D03*
%TD*%
D27*
%TO.C,D12*%
X53700000Y43750000D03*
D28*
X50250000Y43750000D03*
X46990000Y43750000D03*
D29*
X43540000Y43750000D03*
%TD*%
D27*
%TO.C,D13*%
X58950000Y81250000D03*
D28*
X55500000Y81250000D03*
X52240000Y81250000D03*
D29*
X48790000Y81250000D03*
%TD*%
D30*
%TO.C,D14*%
X75799000Y62484000D03*
D31*
X75799000Y65934000D03*
X75799000Y69194000D03*
D29*
X75799000Y72644000D03*
%TD*%
D27*
%TO.C,D16*%
X71200000Y44750000D03*
D28*
X67750000Y44750000D03*
X64490000Y44750000D03*
D29*
X61040000Y44750000D03*
%TD*%
D30*
%TO.C,D17*%
X97500000Y78650000D03*
D31*
X97500000Y82100000D03*
X97500000Y85360000D03*
D29*
X97500000Y88810000D03*
%TD*%
D30*
%TO.C,D19*%
X75750000Y44650000D03*
D31*
X75750000Y48100000D03*
X75750000Y51360000D03*
D29*
X75750000Y54810000D03*
%TD*%
D30*
%TO.C,D20*%
X94500000Y20550000D03*
D31*
X94500000Y24000000D03*
X94500000Y27260000D03*
D29*
X94500000Y30710000D03*
%TD*%
D30*
%TO.C,D21*%
X97500000Y57300000D03*
D31*
X97500000Y60750000D03*
X97500000Y64010000D03*
D29*
X97500000Y67460000D03*
%TD*%
D30*
%TO.C,D22*%
X94500000Y60000000D03*
D31*
X94500000Y63450000D03*
X94500000Y66710000D03*
D29*
X94500000Y70160000D03*
%TD*%
D30*
%TO.C,D23*%
X97262000Y39900000D03*
D31*
X97262000Y43350000D03*
X97262000Y46610000D03*
D29*
X97262000Y50060000D03*
%TD*%
D30*
%TO.C,D24*%
X97250000Y21650000D03*
D31*
X97250000Y25100000D03*
X97250000Y28360000D03*
D29*
X97250000Y31810000D03*
%TD*%
D30*
%TO.C,D25*%
X113750000Y59250000D03*
D31*
X113750000Y62700000D03*
X113750000Y65960000D03*
D29*
X113750000Y69410000D03*
%TD*%
D30*
%TO.C,D26*%
X116500000Y49900000D03*
D31*
X116500000Y53350000D03*
X116500000Y56610000D03*
D29*
X116500000Y60060000D03*
%TD*%
D30*
%TO.C,D27*%
X113500000Y37290000D03*
D31*
X113500000Y40740000D03*
X113500000Y44000000D03*
D29*
X113500000Y47450000D03*
%TD*%
D30*
%TO.C,D28*%
X113899000Y21150000D03*
D31*
X113899000Y24600000D03*
X113899000Y27860000D03*
D29*
X113899000Y31310000D03*
%TD*%
D27*
%TO.C,D29*%
X14850000Y19250000D03*
D28*
X11400000Y19250000D03*
X8140000Y19250000D03*
D29*
X4690000Y19250000D03*
%TD*%
D27*
%TO.C,D30*%
X34250000Y19000000D03*
D28*
X30800000Y19000000D03*
X27540000Y19000000D03*
D29*
X24090000Y19000000D03*
%TD*%
D30*
%TO.C,D31*%
X40000000Y4400000D03*
D31*
X40000000Y7850000D03*
X40000000Y11110000D03*
D29*
X40000000Y14560000D03*
%TD*%
D32*
%TO.C,D33*%
X110487800Y13025000D03*
D33*
X107500012Y14750000D03*
X104676770Y16380000D03*
D34*
X101688982Y18105000D03*
%TD*%
D14*
%TO.C,D34*%
X104700000Y833270D03*
D15*
X106425000Y3821058D03*
X108055000Y6644300D03*
D16*
X109780000Y9632088D03*
%TD*%
D30*
%TO.C,D32*%
X59250000Y6900000D03*
D31*
X59250000Y10350000D03*
X59250000Y13610000D03*
D29*
X59250000Y17060000D03*
%TD*%
D30*
%TO.C,D15*%
X57250000Y42250000D03*
D31*
X57250000Y45700000D03*
X57250000Y48960000D03*
D29*
X57250000Y52410000D03*
%TD*%
D30*
%TO.C,D18*%
X94500000Y41300000D03*
D31*
X94500000Y44750000D03*
X94500000Y48010000D03*
D29*
X94500000Y51460000D03*
%TD*%
D13*
%TO.C,U6*%
X157200400Y82470000D03*
X157200400Y79930000D03*
X157200400Y77390000D03*
X157200400Y74850000D03*
X157200400Y72310000D03*
X157200400Y69770000D03*
X157200400Y67230000D03*
X157200400Y64690000D03*
X157200400Y62150000D03*
X157200400Y59610000D03*
X157200400Y57070000D03*
X157200400Y54530000D03*
X141960400Y54530000D03*
X141960400Y57070000D03*
X141960400Y59610000D03*
X141960400Y62150000D03*
X141960400Y64690000D03*
X141960400Y67230000D03*
X141960400Y69770000D03*
X141960400Y72310000D03*
X141960400Y74850000D03*
X141960400Y77390000D03*
X141960400Y79930000D03*
X141960400Y82470000D03*
%TD*%
D17*
%TO.C,SW1*%
X15767000Y85280500D03*
D18*
X15267000Y89030500D03*
D19*
X10267000Y85280500D03*
D18*
X10267000Y91230500D03*
X5267000Y89030500D03*
D17*
X4767000Y85280500D03*
D21*
X10267000Y79380500D03*
D35*
X6992000Y91230500D03*
D36*
X18542000Y89030500D03*
D21*
X15267000Y81480500D03*
X5267000Y81480500D03*
%TD*%
D17*
%TO.C,SW2*%
X15767000Y66230500D03*
D18*
X15267000Y69980500D03*
D19*
X10267000Y66230500D03*
D18*
X10267000Y72180500D03*
X5267000Y69980500D03*
D17*
X4767000Y66230500D03*
D21*
X10267000Y60330500D03*
D35*
X6992000Y72180500D03*
D36*
X18542000Y69980500D03*
D21*
X15267000Y62430500D03*
X5267000Y62430500D03*
%TD*%
D17*
%TO.C,SW3*%
X15767000Y47180500D03*
D18*
X15267000Y50930500D03*
D19*
X10267000Y47180500D03*
D18*
X10267000Y53130500D03*
X5267000Y50930500D03*
D17*
X4767000Y47180500D03*
D21*
X10267000Y41280500D03*
D35*
X6992000Y53130500D03*
D36*
X18542000Y50930500D03*
D21*
X15267000Y43380500D03*
X5267000Y43380500D03*
%TD*%
D17*
%TO.C,SW4*%
X15767000Y28130500D03*
D18*
X15267000Y31880500D03*
D19*
X10267000Y28130500D03*
D18*
X10267000Y34080500D03*
X5267000Y31880500D03*
D17*
X4767000Y28130500D03*
D21*
X10267000Y22230500D03*
D35*
X6992000Y34080500D03*
D36*
X18542000Y31880500D03*
D21*
X15267000Y24330500D03*
X5267000Y24330500D03*
%TD*%
D17*
%TO.C,SW9*%
X53867000Y90043000D03*
D18*
X53367000Y93793000D03*
D19*
X48367000Y90043000D03*
D18*
X48367000Y95993000D03*
X43367000Y93793000D03*
D17*
X42867000Y90043000D03*
D21*
X48367000Y84143000D03*
D35*
X45092000Y95993000D03*
D36*
X56642000Y93793000D03*
D21*
X53367000Y86243000D03*
X43367000Y86243000D03*
%TD*%
D17*
%TO.C,SW10*%
X53867000Y70993000D03*
D18*
X53367000Y74743000D03*
D19*
X48367000Y70993000D03*
D18*
X48367000Y76943000D03*
X43367000Y74743000D03*
D17*
X42867000Y70993000D03*
D21*
X48367000Y65093000D03*
D35*
X45092000Y76943000D03*
D36*
X56642000Y74743000D03*
D21*
X53367000Y67193000D03*
X43367000Y67193000D03*
%TD*%
D17*
%TO.C,SW11*%
X53867000Y51943000D03*
D18*
X53367000Y55693000D03*
D19*
X48367000Y51943000D03*
D18*
X48367000Y57893000D03*
X43367000Y55693000D03*
D17*
X42867000Y51943000D03*
D21*
X48367000Y46043000D03*
D35*
X45092000Y57893000D03*
D36*
X56642000Y55693000D03*
D21*
X53367000Y48143000D03*
X43367000Y48143000D03*
%TD*%
D17*
%TO.C,SW22*%
X111017000Y68611800D03*
D18*
X110517000Y72361800D03*
D19*
X105517000Y68611800D03*
D18*
X105517000Y74561800D03*
X100517000Y72361800D03*
D17*
X100017000Y68611800D03*
D21*
X105517000Y62711800D03*
D35*
X102242000Y74561800D03*
D36*
X113792000Y72361800D03*
D21*
X110517000Y64811800D03*
X100517000Y64811800D03*
%TD*%
D17*
%TO.C,SW23*%
X111017000Y49561800D03*
D18*
X110517000Y53311800D03*
D19*
X105517000Y49561800D03*
D18*
X105517000Y55511800D03*
X100517000Y53311800D03*
D17*
X100017000Y49561800D03*
D21*
X105517000Y43661800D03*
D35*
X102242000Y55511800D03*
D36*
X113792000Y53311800D03*
D21*
X110517000Y45761800D03*
X100517000Y45761800D03*
%TD*%
D17*
%TO.C,SW24*%
X111017000Y30511800D03*
D18*
X110517000Y34261800D03*
D19*
X105517000Y30511800D03*
D18*
X105517000Y36461800D03*
X100517000Y34261800D03*
D17*
X100017000Y30511800D03*
D21*
X105517000Y24611800D03*
D35*
X102242000Y36461800D03*
D36*
X113792000Y34261800D03*
D21*
X110517000Y26711800D03*
X100517000Y26711800D03*
%TD*%
D17*
%TO.C,SW30*%
X15767000Y9080500D03*
D18*
X15267000Y12830500D03*
D19*
X10267000Y9080500D03*
D18*
X10267000Y15030500D03*
X5267000Y12830500D03*
D17*
X4767000Y9080500D03*
D21*
X10267000Y3180500D03*
D35*
X6992000Y15030500D03*
D36*
X18542000Y12830500D03*
D21*
X15267000Y5280500D03*
X5267000Y5280500D03*
%TD*%
D17*
%TO.C,SW32*%
X53867000Y13843000D03*
D18*
X53367000Y17593000D03*
D19*
X48367000Y13843000D03*
D18*
X48367000Y19793000D03*
X43367000Y17593000D03*
D17*
X42867000Y13843000D03*
D21*
X48367000Y7943000D03*
D35*
X45092000Y19793000D03*
D36*
X56642000Y17593000D03*
D21*
X53367000Y10043000D03*
X43367000Y10043000D03*
%TD*%
D17*
%TO.C,SW33*%
X72917000Y16224300D03*
D18*
X72417000Y19974300D03*
D19*
X67417000Y16224300D03*
D18*
X67417000Y22174300D03*
X62417000Y19974300D03*
D17*
X61917000Y16224300D03*
D21*
X67417000Y10324300D03*
D35*
X64142000Y22174300D03*
D36*
X75692000Y19974300D03*
D21*
X72417000Y12424300D03*
X62417000Y12424300D03*
%TD*%
M02*
