%TF.GenerationSoftware,KiCad,Pcbnew,8.0.3*%
%TF.CreationDate,2024-07-25T04:43:43+09:00*%
%TF.ProjectId,ergodash,6572676f-6461-4736-982e-6b696361645f,2.0*%
%TF.SameCoordinates,Original*%
%TF.FileFunction,Legend,Bot*%
%TF.FilePolarity,Positive*%
%FSLAX46Y46*%
G04 Gerber Fmt 4.6, Leading zero omitted, Abs format (unit mm)*
G04 Created by KiCad (PCBNEW 8.0.3) date 2024-07-25 04:43:43*
%MOMM*%
%LPD*%
G01*
G04 APERTURE LIST*
G04 Aperture macros list*
%AMRoundRect*
0 Rectangle with rounded corners*
0 $1 Rounding radius*
0 $2 $3 $4 $5 $6 $7 $8 $9 X,Y pos of 4 corners*
0 Add a 4 corners polygon primitive as box body*
4,1,4,$2,$3,$4,$5,$6,$7,$8,$9,$2,$3,0*
0 Add four circle primitives for the rounded corners*
1,1,$1+$1,$2,$3*
1,1,$1+$1,$4,$5*
1,1,$1+$1,$6,$7*
1,1,$1+$1,$8,$9*
0 Add four rect primitives between the rounded corners*
20,1,$1+$1,$2,$3,$4,$5,0*
20,1,$1+$1,$4,$5,$6,$7,0*
20,1,$1+$1,$6,$7,$8,$9,0*
20,1,$1+$1,$8,$9,$2,$3,0*%
%AMHorizOval*
0 Thick line with rounded ends*
0 $1 width*
0 $2 $3 position (X,Y) of the first rounded end (center of the circle)*
0 $4 $5 position (X,Y) of the second rounded end (center of the circle)*
0 Add line between two ends*
20,1,$1,$2,$3,$4,$5,0*
0 Add two circle primitives to create the rounded ends*
1,1,$1,$2,$3*
1,1,$1,$4,$5*%
%AMFreePoly0*
4,1,22,1.386777,1.480194,1.456366,1.424698,1.494986,1.344504,1.500000,1.300000,1.500000,-1.300000,1.480194,-1.386777,1.424698,-1.456366,1.344504,-1.494986,1.300000,-1.500000,0.000000,-1.500000,-0.086777,-1.480194,-0.141421,-1.441421,-1.441421,-0.141421,-1.488777,-0.066056,-1.500000,0.000000,-1.500000,1.300000,-1.480194,1.386777,-1.424698,1.456366,-1.344504,1.494986,-1.300000,1.500000,
1.300000,1.500000,1.386777,1.480194,1.386777,1.480194,$1*%
%AMFreePoly1*
4,1,22,0.086777,1.480194,0.141421,1.441421,1.441421,0.141421,1.488777,0.066056,1.500000,0.000000,1.500000,-1.300000,1.480194,-1.386777,1.424698,-1.456366,1.344504,-1.494986,1.300000,-1.500000,-1.300000,-1.500000,-1.386777,-1.480194,-1.456366,-1.424698,-1.494986,-1.344504,-1.500000,-1.300000,-1.500000,1.300000,-1.480194,1.386777,-1.424698,1.456366,-1.344504,1.494986,-1.300000,1.500000,
0.000000,1.500000,0.086777,1.480194,0.086777,1.480194,$1*%
G04 Aperture macros list end*
%ADD10C,0.500000*%
%ADD11C,0.150000*%
%ADD12C,0.300000*%
%ADD13C,0.200000*%
%ADD14C,0.250000*%
%ADD15C,1.524000*%
%ADD16C,5.400000*%
%ADD17O,1.700000X2.600000*%
%ADD18C,1.610000*%
%ADD19C,1.924000*%
%ADD20RoundRect,0.200000X0.292820X-1.092820X1.092820X0.292820X-0.292820X1.092820X-1.092820X-0.292820X0*%
%ADD21RoundRect,0.200000X0.119615X-0.992820X0.919615X0.392820X-0.119615X0.992820X-0.919615X-0.392820X0*%
%ADD22HorizOval,2.000000X0.000000X0.000000X0.000000X0.000000X0*%
%ADD23C,2.101800*%
%ADD24C,3.400000*%
%ADD25C,3.829000*%
%ADD26FreePoly0,0.000000*%
%ADD27C,2.432000*%
%ADD28RoundRect,0.200000X-1.300000X-1.300000X1.300000X-1.300000X1.300000X1.300000X-1.300000X1.300000X0*%
%ADD29FreePoly0,240.000000*%
%ADD30RoundRect,0.200000X-0.475833X1.775833X-1.775833X-0.475833X0.475833X-1.775833X1.775833X0.475833X0*%
%ADD31FreePoly0,60.000000*%
%ADD32RoundRect,0.200000X0.475833X-1.775833X1.775833X0.475833X-0.475833X1.775833X-1.775833X-0.475833X0*%
%ADD33RoundRect,0.200000X0.800000X0.800000X-0.800000X0.800000X-0.800000X-0.800000X0.800000X-0.800000X0*%
%ADD34RoundRect,0.200000X0.800000X0.600000X-0.800000X0.600000X-0.800000X-0.600000X0.800000X-0.600000X0*%
%ADD35O,2.000000X2.000000*%
%ADD36RoundRect,0.200000X0.800000X-0.800000X0.800000X0.800000X-0.800000X0.800000X-0.800000X-0.800000X0*%
%ADD37RoundRect,0.200000X0.600000X-0.800000X0.600000X0.800000X-0.600000X0.800000X-0.600000X-0.800000X0*%
%ADD38RoundRect,0.200000X1.092820X0.292820X-0.292820X1.092820X-1.092820X-0.292820X0.292820X-1.092820X0*%
%ADD39RoundRect,0.200000X0.992820X0.119615X-0.392820X0.919615X-0.992820X-0.119615X0.392820X-0.919615X0*%
%ADD40HorizOval,2.000000X0.000000X0.000000X0.000000X0.000000X0*%
%ADD41FreePoly1,180.000000*%
%ADD42RoundRect,0.200000X1.300000X1.300000X-1.300000X1.300000X-1.300000X-1.300000X1.300000X-1.300000X0*%
G04 APERTURE END LIST*
D10*
X77191961Y34670853D02*
X79731961Y34670853D01*
X77191961Y21716853D02*
X79731961Y21716853D01*
X79731961Y21716853D02*
X79731961Y34670853D01*
X77069000Y34671000D02*
X77069000Y21717000D01*
X74275000Y21717000D02*
X77196000Y21717000D01*
X74275000Y34671000D02*
X74275000Y21717000D01*
D11*
X81250000Y10250000D02*
X82750000Y10250000D01*
X82750000Y8750000D01*
X81250000Y8750000D01*
X81250000Y10250000D01*
G36*
X81250000Y10250000D02*
G01*
X82750000Y10250000D01*
X82750000Y8750000D01*
X81250000Y8750000D01*
X81250000Y10250000D01*
G37*
X77750000Y10250000D02*
X79250000Y10250000D01*
X79250000Y8750000D01*
X77750000Y8750000D01*
X77750000Y10250000D01*
G36*
X77750000Y10250000D02*
G01*
X79250000Y10250000D01*
X79250000Y8750000D01*
X77750000Y8750000D01*
X77750000Y10250000D01*
G37*
X79500000Y12750000D02*
X81000000Y12750000D01*
X81000000Y11250000D01*
X79500000Y11250000D01*
X79500000Y12750000D01*
G36*
X79500000Y12750000D02*
G01*
X81000000Y12750000D01*
X81000000Y11250000D01*
X79500000Y11250000D01*
X79500000Y12750000D01*
G37*
D12*
X59177095Y4637306D02*
X59177095Y6637306D01*
X59177095Y6637306D02*
X58700905Y6637306D01*
X58700905Y6637306D02*
X58415190Y6542068D01*
X58415190Y6542068D02*
X58224714Y6351592D01*
X58224714Y6351592D02*
X58129476Y6161116D01*
X58129476Y6161116D02*
X58034238Y5780164D01*
X58034238Y5780164D02*
X58034238Y5494449D01*
X58034238Y5494449D02*
X58129476Y5113497D01*
X58129476Y5113497D02*
X58224714Y4923021D01*
X58224714Y4923021D02*
X58415190Y4732544D01*
X58415190Y4732544D02*
X58700905Y4637306D01*
X58700905Y4637306D02*
X59177095Y4637306D01*
X56415190Y4732544D02*
X56605666Y4637306D01*
X56605666Y4637306D02*
X56986619Y4637306D01*
X56986619Y4637306D02*
X57177095Y4732544D01*
X57177095Y4732544D02*
X57272333Y4923021D01*
X57272333Y4923021D02*
X57272333Y5684925D01*
X57272333Y5684925D02*
X57177095Y5875402D01*
X57177095Y5875402D02*
X56986619Y5970640D01*
X56986619Y5970640D02*
X56605666Y5970640D01*
X56605666Y5970640D02*
X56415190Y5875402D01*
X56415190Y5875402D02*
X56319952Y5684925D01*
X56319952Y5684925D02*
X56319952Y5494449D01*
X56319952Y5494449D02*
X57272333Y5303973D01*
X55558047Y4732544D02*
X55367571Y4637306D01*
X55367571Y4637306D02*
X54986619Y4637306D01*
X54986619Y4637306D02*
X54796142Y4732544D01*
X54796142Y4732544D02*
X54700904Y4923021D01*
X54700904Y4923021D02*
X54700904Y5018259D01*
X54700904Y5018259D02*
X54796142Y5208735D01*
X54796142Y5208735D02*
X54986619Y5303973D01*
X54986619Y5303973D02*
X55272333Y5303973D01*
X55272333Y5303973D02*
X55462809Y5399211D01*
X55462809Y5399211D02*
X55558047Y5589687D01*
X55558047Y5589687D02*
X55558047Y5684925D01*
X55558047Y5684925D02*
X55462809Y5875402D01*
X55462809Y5875402D02*
X55272333Y5970640D01*
X55272333Y5970640D02*
X54986619Y5970640D01*
X54986619Y5970640D02*
X54796142Y5875402D01*
X53843761Y4637306D02*
X53843761Y5970640D01*
X53843761Y6637306D02*
X53938999Y6542068D01*
X53938999Y6542068D02*
X53843761Y6446830D01*
X53843761Y6446830D02*
X53748523Y6542068D01*
X53748523Y6542068D02*
X53843761Y6637306D01*
X53843761Y6637306D02*
X53843761Y6446830D01*
X52034237Y5970640D02*
X52034237Y4351592D01*
X52034237Y4351592D02*
X52129475Y4161116D01*
X52129475Y4161116D02*
X52224713Y4065878D01*
X52224713Y4065878D02*
X52415190Y3970640D01*
X52415190Y3970640D02*
X52700904Y3970640D01*
X52700904Y3970640D02*
X52891380Y4065878D01*
X52034237Y4732544D02*
X52224713Y4637306D01*
X52224713Y4637306D02*
X52605666Y4637306D01*
X52605666Y4637306D02*
X52796142Y4732544D01*
X52796142Y4732544D02*
X52891380Y4827783D01*
X52891380Y4827783D02*
X52986618Y5018259D01*
X52986618Y5018259D02*
X52986618Y5589687D01*
X52986618Y5589687D02*
X52891380Y5780164D01*
X52891380Y5780164D02*
X52796142Y5875402D01*
X52796142Y5875402D02*
X52605666Y5970640D01*
X52605666Y5970640D02*
X52224713Y5970640D01*
X52224713Y5970640D02*
X52034237Y5875402D01*
X51081856Y5970640D02*
X51081856Y4637306D01*
X51081856Y5780164D02*
X50986618Y5875402D01*
X50986618Y5875402D02*
X50796142Y5970640D01*
X50796142Y5970640D02*
X50510427Y5970640D01*
X50510427Y5970640D02*
X50319951Y5875402D01*
X50319951Y5875402D02*
X50224713Y5684925D01*
X50224713Y5684925D02*
X50224713Y4637306D01*
X48510427Y4732544D02*
X48700903Y4637306D01*
X48700903Y4637306D02*
X49081856Y4637306D01*
X49081856Y4637306D02*
X49272332Y4732544D01*
X49272332Y4732544D02*
X49367570Y4923021D01*
X49367570Y4923021D02*
X49367570Y5684925D01*
X49367570Y5684925D02*
X49272332Y5875402D01*
X49272332Y5875402D02*
X49081856Y5970640D01*
X49081856Y5970640D02*
X48700903Y5970640D01*
X48700903Y5970640D02*
X48510427Y5875402D01*
X48510427Y5875402D02*
X48415189Y5684925D01*
X48415189Y5684925D02*
X48415189Y5494449D01*
X48415189Y5494449D02*
X49367570Y5303973D01*
X46700903Y4637306D02*
X46700903Y6637306D01*
X46700903Y4732544D02*
X46891379Y4637306D01*
X46891379Y4637306D02*
X47272332Y4637306D01*
X47272332Y4637306D02*
X47462808Y4732544D01*
X47462808Y4732544D02*
X47558046Y4827783D01*
X47558046Y4827783D02*
X47653284Y5018259D01*
X47653284Y5018259D02*
X47653284Y5589687D01*
X47653284Y5589687D02*
X47558046Y5780164D01*
X47558046Y5780164D02*
X47462808Y5875402D01*
X47462808Y5875402D02*
X47272332Y5970640D01*
X47272332Y5970640D02*
X46891379Y5970640D01*
X46891379Y5970640D02*
X46700903Y5875402D01*
X63177096Y1417418D02*
X63177096Y3417418D01*
X63177096Y2655514D02*
X62986620Y2750752D01*
X62986620Y2750752D02*
X62605667Y2750752D01*
X62605667Y2750752D02*
X62415191Y2655514D01*
X62415191Y2655514D02*
X62319953Y2560276D01*
X62319953Y2560276D02*
X62224715Y2369799D01*
X62224715Y2369799D02*
X62224715Y1798371D01*
X62224715Y1798371D02*
X62319953Y1607895D01*
X62319953Y1607895D02*
X62415191Y1512656D01*
X62415191Y1512656D02*
X62605667Y1417418D01*
X62605667Y1417418D02*
X62986620Y1417418D01*
X62986620Y1417418D02*
X63177096Y1512656D01*
X61558048Y2750752D02*
X61081858Y1417418D01*
X60605667Y2750752D02*
X61081858Y1417418D01*
X61081858Y1417418D02*
X61272334Y941228D01*
X61272334Y941228D02*
X61367572Y845990D01*
X61367572Y845990D02*
X61558048Y750752D01*
X58319952Y2750752D02*
X58319952Y1417418D01*
X58319952Y2560276D02*
X58224714Y2655514D01*
X58224714Y2655514D02*
X58034238Y2750752D01*
X58034238Y2750752D02*
X57748523Y2750752D01*
X57748523Y2750752D02*
X57558047Y2655514D01*
X57558047Y2655514D02*
X57462809Y2465037D01*
X57462809Y2465037D02*
X57462809Y1417418D01*
X56510428Y1417418D02*
X56510428Y2750752D01*
X56510428Y3417418D02*
X56605666Y3322180D01*
X56605666Y3322180D02*
X56510428Y3226942D01*
X56510428Y3226942D02*
X56415190Y3322180D01*
X56415190Y3322180D02*
X56510428Y3417418D01*
X56510428Y3417418D02*
X56510428Y3226942D01*
X55558047Y2750752D02*
X55558047Y1417418D01*
X55558047Y2560276D02*
X55462809Y2655514D01*
X55462809Y2655514D02*
X55272333Y2750752D01*
X55272333Y2750752D02*
X54986618Y2750752D01*
X54986618Y2750752D02*
X54796142Y2655514D01*
X54796142Y2655514D02*
X54700904Y2465037D01*
X54700904Y2465037D02*
X54700904Y1417418D01*
X52891380Y1417418D02*
X52891380Y3417418D01*
X52891380Y1512656D02*
X53081856Y1417418D01*
X53081856Y1417418D02*
X53462809Y1417418D01*
X53462809Y1417418D02*
X53653285Y1512656D01*
X53653285Y1512656D02*
X53748523Y1607895D01*
X53748523Y1607895D02*
X53843761Y1798371D01*
X53843761Y1798371D02*
X53843761Y2369799D01*
X53843761Y2369799D02*
X53748523Y2560276D01*
X53748523Y2560276D02*
X53653285Y2655514D01*
X53653285Y2655514D02*
X53462809Y2750752D01*
X53462809Y2750752D02*
X53081856Y2750752D01*
X53081856Y2750752D02*
X52891380Y2655514D01*
X51081856Y1417418D02*
X51081856Y2465037D01*
X51081856Y2465037D02*
X51177094Y2655514D01*
X51177094Y2655514D02*
X51367570Y2750752D01*
X51367570Y2750752D02*
X51748523Y2750752D01*
X51748523Y2750752D02*
X51938999Y2655514D01*
X51081856Y1512656D02*
X51272332Y1417418D01*
X51272332Y1417418D02*
X51748523Y1417418D01*
X51748523Y1417418D02*
X51938999Y1512656D01*
X51938999Y1512656D02*
X52034237Y1703133D01*
X52034237Y1703133D02*
X52034237Y1893609D01*
X52034237Y1893609D02*
X51938999Y2084085D01*
X51938999Y2084085D02*
X51748523Y2179323D01*
X51748523Y2179323D02*
X51272332Y2179323D01*
X51272332Y2179323D02*
X51081856Y2274561D01*
X50129475Y2750752D02*
X50129475Y1417418D01*
X50129475Y2560276D02*
X50034237Y2655514D01*
X50034237Y2655514D02*
X49843761Y2750752D01*
X49843761Y2750752D02*
X49558046Y2750752D01*
X49558046Y2750752D02*
X49367570Y2655514D01*
X49367570Y2655514D02*
X49272332Y2465037D01*
X49272332Y2465037D02*
X49272332Y1417418D01*
X47462808Y1417418D02*
X47462808Y2465037D01*
X47462808Y2465037D02*
X47558046Y2655514D01*
X47558046Y2655514D02*
X47748522Y2750752D01*
X47748522Y2750752D02*
X48129475Y2750752D01*
X48129475Y2750752D02*
X48319951Y2655514D01*
X47462808Y1512656D02*
X47653284Y1417418D01*
X47653284Y1417418D02*
X48129475Y1417418D01*
X48129475Y1417418D02*
X48319951Y1512656D01*
X48319951Y1512656D02*
X48415189Y1703133D01*
X48415189Y1703133D02*
X48415189Y1893609D01*
X48415189Y1893609D02*
X48319951Y2084085D01*
X48319951Y2084085D02*
X48129475Y2179323D01*
X48129475Y2179323D02*
X47653284Y2179323D01*
X47653284Y2179323D02*
X47462808Y2274561D01*
X46224713Y1417418D02*
X46415189Y1512656D01*
X46415189Y1512656D02*
X46510427Y1607895D01*
X46510427Y1607895D02*
X46605665Y1798371D01*
X46605665Y1798371D02*
X46605665Y2369799D01*
X46605665Y2369799D02*
X46510427Y2560276D01*
X46510427Y2560276D02*
X46415189Y2655514D01*
X46415189Y2655514D02*
X46224713Y2750752D01*
X46224713Y2750752D02*
X45938998Y2750752D01*
X45938998Y2750752D02*
X45748522Y2655514D01*
X45748522Y2655514D02*
X45653284Y2560276D01*
X45653284Y2560276D02*
X45558046Y2369799D01*
X45558046Y2369799D02*
X45558046Y1798371D01*
X45558046Y1798371D02*
X45653284Y1607895D01*
X45653284Y1607895D02*
X45748522Y1512656D01*
X45748522Y1512656D02*
X45938998Y1417418D01*
X45938998Y1417418D02*
X46224713Y1417418D01*
X44986617Y2750752D02*
X44224713Y2750752D01*
X44700903Y3417418D02*
X44700903Y1703133D01*
X44700903Y1703133D02*
X44605665Y1512656D01*
X44605665Y1512656D02*
X44415189Y1417418D01*
X44415189Y1417418D02*
X44224713Y1417418D01*
X43272332Y1417418D02*
X43462808Y1512656D01*
X43462808Y1512656D02*
X43558046Y1607895D01*
X43558046Y1607895D02*
X43653284Y1798371D01*
X43653284Y1798371D02*
X43653284Y2369799D01*
X43653284Y2369799D02*
X43558046Y2560276D01*
X43558046Y2560276D02*
X43462808Y2655514D01*
X43462808Y2655514D02*
X43272332Y2750752D01*
X43272332Y2750752D02*
X42986617Y2750752D01*
X42986617Y2750752D02*
X42796141Y2655514D01*
X42796141Y2655514D02*
X42700903Y2560276D01*
X42700903Y2560276D02*
X42605665Y2369799D01*
X42605665Y2369799D02*
X42605665Y1798371D01*
X42605665Y1798371D02*
X42700903Y1607895D01*
X42700903Y1607895D02*
X42796141Y1512656D01*
X42796141Y1512656D02*
X42986617Y1417418D01*
X42986617Y1417418D02*
X43272332Y1417418D01*
X39846142Y95873243D02*
X39989000Y95944672D01*
X39989000Y95944672D02*
X40203285Y95944672D01*
X40203285Y95944672D02*
X40417571Y95873243D01*
X40417571Y95873243D02*
X40560428Y95730386D01*
X40560428Y95730386D02*
X40631857Y95587529D01*
X40631857Y95587529D02*
X40703285Y95301815D01*
X40703285Y95301815D02*
X40703285Y95087529D01*
X40703285Y95087529D02*
X40631857Y94801815D01*
X40631857Y94801815D02*
X40560428Y94658958D01*
X40560428Y94658958D02*
X40417571Y94516100D01*
X40417571Y94516100D02*
X40203285Y94444672D01*
X40203285Y94444672D02*
X40060428Y94444672D01*
X40060428Y94444672D02*
X39846142Y94516100D01*
X39846142Y94516100D02*
X39774714Y94587529D01*
X39774714Y94587529D02*
X39774714Y95087529D01*
X39774714Y95087529D02*
X40060428Y95087529D01*
D13*
X76516428Y20887353D02*
X76402142Y20849258D01*
X76402142Y20849258D02*
X76364047Y20811162D01*
X76364047Y20811162D02*
X76325951Y20734972D01*
X76325951Y20734972D02*
X76325951Y20620686D01*
X76325951Y20620686D02*
X76364047Y20544496D01*
X76364047Y20544496D02*
X76402142Y20506400D01*
X76402142Y20506400D02*
X76478332Y20468305D01*
X76478332Y20468305D02*
X76783094Y20468305D01*
X76783094Y20468305D02*
X76783094Y21268305D01*
X76783094Y21268305D02*
X76516428Y21268305D01*
X76516428Y21268305D02*
X76440237Y21230210D01*
X76440237Y21230210D02*
X76402142Y21192115D01*
X76402142Y21192115D02*
X76364047Y21115924D01*
X76364047Y21115924D02*
X76364047Y21039734D01*
X76364047Y21039734D02*
X76402142Y20963543D01*
X76402142Y20963543D02*
X76440237Y20925448D01*
X76440237Y20925448D02*
X76516428Y20887353D01*
X76516428Y20887353D02*
X76783094Y20887353D01*
X75602142Y20468305D02*
X75983094Y20468305D01*
X75983094Y20468305D02*
X75983094Y21268305D01*
X74916428Y20468305D02*
X75373571Y20468305D01*
X75144999Y20468305D02*
X75144999Y21268305D01*
X75144999Y21268305D02*
X75221190Y21154020D01*
X75221190Y21154020D02*
X75297380Y21077829D01*
X75297380Y21077829D02*
X75373571Y21039734D01*
X74573570Y20468305D02*
X74573570Y21268305D01*
X74497380Y20773067D02*
X74268808Y20468305D01*
X74268808Y21001639D02*
X74573570Y20696877D01*
D14*
X60449619Y102738095D02*
X60449619Y102166667D01*
X61449619Y102452381D02*
X60449619Y102452381D01*
X60449619Y101928571D02*
X61449619Y101261905D01*
X60449619Y101261905D02*
X61449619Y101928571D01*
X60449619Y100690476D02*
X60449619Y100595238D01*
X60449619Y100595238D02*
X60497238Y100500000D01*
X60497238Y100500000D02*
X60544857Y100452381D01*
X60544857Y100452381D02*
X60640095Y100404762D01*
X60640095Y100404762D02*
X60830571Y100357143D01*
X60830571Y100357143D02*
X61068666Y100357143D01*
X61068666Y100357143D02*
X61259142Y100404762D01*
X61259142Y100404762D02*
X61354380Y100452381D01*
X61354380Y100452381D02*
X61402000Y100500000D01*
X61402000Y100500000D02*
X61449619Y100595238D01*
X61449619Y100595238D02*
X61449619Y100690476D01*
X61449619Y100690476D02*
X61402000Y100785714D01*
X61402000Y100785714D02*
X61354380Y100833333D01*
X61354380Y100833333D02*
X61259142Y100880952D01*
X61259142Y100880952D02*
X61068666Y100928571D01*
X61068666Y100928571D02*
X60830571Y100928571D01*
X60830571Y100928571D02*
X60640095Y100880952D01*
X60640095Y100880952D02*
X60544857Y100833333D01*
X60544857Y100833333D02*
X60497238Y100785714D01*
X60497238Y100785714D02*
X60449619Y100690476D01*
D13*
X3834380Y72157305D02*
X4101047Y72538258D01*
X4291523Y72157305D02*
X4291523Y72957305D01*
X4291523Y72957305D02*
X3986761Y72957305D01*
X3986761Y72957305D02*
X3910571Y72919210D01*
X3910571Y72919210D02*
X3872476Y72881115D01*
X3872476Y72881115D02*
X3834380Y72804924D01*
X3834380Y72804924D02*
X3834380Y72690639D01*
X3834380Y72690639D02*
X3872476Y72614448D01*
X3872476Y72614448D02*
X3910571Y72576353D01*
X3910571Y72576353D02*
X3986761Y72538258D01*
X3986761Y72538258D02*
X4291523Y72538258D01*
X3072476Y72919210D02*
X3148666Y72957305D01*
X3148666Y72957305D02*
X3262952Y72957305D01*
X3262952Y72957305D02*
X3377238Y72919210D01*
X3377238Y72919210D02*
X3453428Y72843020D01*
X3453428Y72843020D02*
X3491523Y72766829D01*
X3491523Y72766829D02*
X3529619Y72614448D01*
X3529619Y72614448D02*
X3529619Y72500162D01*
X3529619Y72500162D02*
X3491523Y72347781D01*
X3491523Y72347781D02*
X3453428Y72271591D01*
X3453428Y72271591D02*
X3377238Y72195400D01*
X3377238Y72195400D02*
X3262952Y72157305D01*
X3262952Y72157305D02*
X3186761Y72157305D01*
X3186761Y72157305D02*
X3072476Y72195400D01*
X3072476Y72195400D02*
X3034380Y72233496D01*
X3034380Y72233496D02*
X3034380Y72500162D01*
X3034380Y72500162D02*
X3186761Y72500162D01*
X2424857Y72576353D02*
X2310571Y72538258D01*
X2310571Y72538258D02*
X2272476Y72500162D01*
X2272476Y72500162D02*
X2234380Y72423972D01*
X2234380Y72423972D02*
X2234380Y72309686D01*
X2234380Y72309686D02*
X2272476Y72233496D01*
X2272476Y72233496D02*
X2310571Y72195400D01*
X2310571Y72195400D02*
X2386761Y72157305D01*
X2386761Y72157305D02*
X2691523Y72157305D01*
X2691523Y72157305D02*
X2691523Y72957305D01*
X2691523Y72957305D02*
X2424857Y72957305D01*
X2424857Y72957305D02*
X2348666Y72919210D01*
X2348666Y72919210D02*
X2310571Y72881115D01*
X2310571Y72881115D02*
X2272476Y72804924D01*
X2272476Y72804924D02*
X2272476Y72728734D01*
X2272476Y72728734D02*
X2310571Y72652543D01*
X2310571Y72652543D02*
X2348666Y72614448D01*
X2348666Y72614448D02*
X2424857Y72576353D01*
X2424857Y72576353D02*
X2691523Y72576353D01*
D12*
X97143000Y96198672D02*
X97643000Y94698672D01*
X97643000Y94698672D02*
X98143000Y96198672D01*
X14466000Y95690672D02*
X14966000Y94190672D01*
X14966000Y94190672D02*
X15466000Y95690672D01*
D14*
X92199619Y100238095D02*
X92199619Y99666667D01*
X93199619Y99952381D02*
X92199619Y99952381D01*
X92199619Y99428571D02*
X93199619Y98761905D01*
X92199619Y98761905D02*
X93199619Y99428571D01*
X92199619Y98190476D02*
X92199619Y98095238D01*
X92199619Y98095238D02*
X92247238Y98000000D01*
X92247238Y98000000D02*
X92294857Y97952381D01*
X92294857Y97952381D02*
X92390095Y97904762D01*
X92390095Y97904762D02*
X92580571Y97857143D01*
X92580571Y97857143D02*
X92818666Y97857143D01*
X92818666Y97857143D02*
X93009142Y97904762D01*
X93009142Y97904762D02*
X93104380Y97952381D01*
X93104380Y97952381D02*
X93152000Y98000000D01*
X93152000Y98000000D02*
X93199619Y98095238D01*
X93199619Y98095238D02*
X93199619Y98190476D01*
X93199619Y98190476D02*
X93152000Y98285714D01*
X93152000Y98285714D02*
X93104380Y98333333D01*
X93104380Y98333333D02*
X93009142Y98380952D01*
X93009142Y98380952D02*
X92818666Y98428571D01*
X92818666Y98428571D02*
X92580571Y98428571D01*
X92580571Y98428571D02*
X92390095Y98380952D01*
X92390095Y98380952D02*
X92294857Y98333333D01*
X92294857Y98333333D02*
X92247238Y98285714D01*
X92247238Y98285714D02*
X92199619Y98190476D01*
D12*
X102330142Y96254243D02*
X102473000Y96325672D01*
X102473000Y96325672D02*
X102687285Y96325672D01*
X102687285Y96325672D02*
X102901571Y96254243D01*
X102901571Y96254243D02*
X103044428Y96111386D01*
X103044428Y96111386D02*
X103115857Y95968529D01*
X103115857Y95968529D02*
X103187285Y95682815D01*
X103187285Y95682815D02*
X103187285Y95468529D01*
X103187285Y95468529D02*
X103115857Y95182815D01*
X103115857Y95182815D02*
X103044428Y95039958D01*
X103044428Y95039958D02*
X102901571Y94897100D01*
X102901571Y94897100D02*
X102687285Y94825672D01*
X102687285Y94825672D02*
X102544428Y94825672D01*
X102544428Y94825672D02*
X102330142Y94897100D01*
X102330142Y94897100D02*
X102258714Y94968529D01*
X102258714Y94968529D02*
X102258714Y95468529D01*
X102258714Y95468529D02*
X102544428Y95468529D01*
X102254428Y100389672D02*
X101254428Y98889672D01*
X101254428Y100389672D02*
X102254428Y98889672D01*
X100897285Y99889672D02*
X100325857Y99889672D01*
X100683000Y100389672D02*
X100683000Y99103958D01*
X100683000Y99103958D02*
X100611571Y98961100D01*
X100611571Y98961100D02*
X100468714Y98889672D01*
X100468714Y98889672D02*
X100325857Y98889672D01*
X99825857Y98889672D02*
X99825857Y99889672D01*
X99825857Y99603958D02*
X99754428Y99746815D01*
X99754428Y99746815D02*
X99683000Y99818243D01*
X99683000Y99818243D02*
X99540142Y99889672D01*
X99540142Y99889672D02*
X99397285Y99889672D01*
X98254429Y98889672D02*
X98254429Y99675386D01*
X98254429Y99675386D02*
X98325857Y99818243D01*
X98325857Y99818243D02*
X98468714Y99889672D01*
X98468714Y99889672D02*
X98754429Y99889672D01*
X98754429Y99889672D02*
X98897286Y99818243D01*
X98254429Y98961100D02*
X98397286Y98889672D01*
X98397286Y98889672D02*
X98754429Y98889672D01*
X98754429Y98889672D02*
X98897286Y98961100D01*
X98897286Y98961100D02*
X98968714Y99103958D01*
X98968714Y99103958D02*
X98968714Y99246815D01*
X98968714Y99246815D02*
X98897286Y99389672D01*
X98897286Y99389672D02*
X98754429Y99461100D01*
X98754429Y99461100D02*
X98397286Y99461100D01*
X98397286Y99461100D02*
X98254429Y99532529D01*
X23463142Y95873243D02*
X23606000Y95944672D01*
X23606000Y95944672D02*
X23820285Y95944672D01*
X23820285Y95944672D02*
X24034571Y95873243D01*
X24034571Y95873243D02*
X24177428Y95730386D01*
X24177428Y95730386D02*
X24248857Y95587529D01*
X24248857Y95587529D02*
X24320285Y95301815D01*
X24320285Y95301815D02*
X24320285Y95087529D01*
X24320285Y95087529D02*
X24248857Y94801815D01*
X24248857Y94801815D02*
X24177428Y94658958D01*
X24177428Y94658958D02*
X24034571Y94516100D01*
X24034571Y94516100D02*
X23820285Y94444672D01*
X23820285Y94444672D02*
X23677428Y94444672D01*
X23677428Y94444672D02*
X23463142Y94516100D01*
X23463142Y94516100D02*
X23391714Y94587529D01*
X23391714Y94587529D02*
X23391714Y95087529D01*
X23391714Y95087529D02*
X23677428Y95087529D01*
D13*
X130370762Y65845305D02*
X129837428Y65045305D01*
X129837428Y65845305D02*
X130370762Y65045305D01*
X129646952Y65578639D02*
X129342190Y65578639D01*
X129532666Y65845305D02*
X129532666Y65159591D01*
X129532666Y65159591D02*
X129494571Y65083400D01*
X129494571Y65083400D02*
X129418381Y65045305D01*
X129418381Y65045305D02*
X129342190Y65045305D01*
X129075523Y65045305D02*
X129075523Y65578639D01*
X129075523Y65426258D02*
X129037428Y65502448D01*
X129037428Y65502448D02*
X128999333Y65540543D01*
X128999333Y65540543D02*
X128923142Y65578639D01*
X128923142Y65578639D02*
X128846952Y65578639D01*
X128237428Y65045305D02*
X128237428Y65464353D01*
X128237428Y65464353D02*
X128275523Y65540543D01*
X128275523Y65540543D02*
X128351714Y65578639D01*
X128351714Y65578639D02*
X128504095Y65578639D01*
X128504095Y65578639D02*
X128580285Y65540543D01*
X128237428Y65083400D02*
X128313619Y65045305D01*
X128313619Y65045305D02*
X128504095Y65045305D01*
X128504095Y65045305D02*
X128580285Y65083400D01*
X128580285Y65083400D02*
X128618381Y65159591D01*
X128618381Y65159591D02*
X128618381Y65235781D01*
X128618381Y65235781D02*
X128580285Y65311972D01*
X128580285Y65311972D02*
X128504095Y65350067D01*
X128504095Y65350067D02*
X128313619Y65350067D01*
X128313619Y65350067D02*
X128237428Y65388162D01*
X79723143Y20696877D02*
X79342190Y20696877D01*
X79799333Y20468305D02*
X79532666Y21268305D01*
X79532666Y21268305D02*
X79266000Y20468305D01*
X78656476Y21001639D02*
X78656476Y20468305D01*
X78999333Y21001639D02*
X78999333Y20582591D01*
X78999333Y20582591D02*
X78961238Y20506400D01*
X78961238Y20506400D02*
X78885048Y20468305D01*
X78885048Y20468305D02*
X78770762Y20468305D01*
X78770762Y20468305D02*
X78694571Y20506400D01*
X78694571Y20506400D02*
X78656476Y20544496D01*
X77856476Y20468305D02*
X78313619Y20468305D01*
X78085047Y20468305D02*
X78085047Y21268305D01*
X78085047Y21268305D02*
X78161238Y21154020D01*
X78161238Y21154020D02*
X78237428Y21077829D01*
X78237428Y21077829D02*
X78313619Y21039734D01*
X77513618Y20468305D02*
X77513618Y21268305D01*
X77437428Y20773067D02*
X77208856Y20468305D01*
X77208856Y21001639D02*
X77513618Y20696877D01*
D12*
X32119000Y95944672D02*
X32619000Y94444672D01*
X32619000Y94444672D02*
X33119000Y95944672D01*
X85052857Y5303925D02*
X84386190Y5303925D01*
X84100476Y4256306D02*
X85052857Y4256306D01*
X85052857Y4256306D02*
X85052857Y6256306D01*
X85052857Y6256306D02*
X84100476Y6256306D01*
X83243333Y4256306D02*
X83243333Y5589640D01*
X83243333Y5208687D02*
X83148095Y5399164D01*
X83148095Y5399164D02*
X83052857Y5494402D01*
X83052857Y5494402D02*
X82862381Y5589640D01*
X82862381Y5589640D02*
X82671904Y5589640D01*
X81148095Y5589640D02*
X81148095Y3970592D01*
X81148095Y3970592D02*
X81243333Y3780116D01*
X81243333Y3780116D02*
X81338571Y3684878D01*
X81338571Y3684878D02*
X81529048Y3589640D01*
X81529048Y3589640D02*
X81814762Y3589640D01*
X81814762Y3589640D02*
X82005238Y3684878D01*
X81148095Y4351544D02*
X81338571Y4256306D01*
X81338571Y4256306D02*
X81719524Y4256306D01*
X81719524Y4256306D02*
X81910000Y4351544D01*
X81910000Y4351544D02*
X82005238Y4446783D01*
X82005238Y4446783D02*
X82100476Y4637259D01*
X82100476Y4637259D02*
X82100476Y5208687D01*
X82100476Y5208687D02*
X82005238Y5399164D01*
X82005238Y5399164D02*
X81910000Y5494402D01*
X81910000Y5494402D02*
X81719524Y5589640D01*
X81719524Y5589640D02*
X81338571Y5589640D01*
X81338571Y5589640D02*
X81148095Y5494402D01*
X79910000Y4256306D02*
X80100476Y4351544D01*
X80100476Y4351544D02*
X80195714Y4446783D01*
X80195714Y4446783D02*
X80290952Y4637259D01*
X80290952Y4637259D02*
X80290952Y5208687D01*
X80290952Y5208687D02*
X80195714Y5399164D01*
X80195714Y5399164D02*
X80100476Y5494402D01*
X80100476Y5494402D02*
X79910000Y5589640D01*
X79910000Y5589640D02*
X79624285Y5589640D01*
X79624285Y5589640D02*
X79433809Y5494402D01*
X79433809Y5494402D02*
X79338571Y5399164D01*
X79338571Y5399164D02*
X79243333Y5208687D01*
X79243333Y5208687D02*
X79243333Y4637259D01*
X79243333Y4637259D02*
X79338571Y4446783D01*
X79338571Y4446783D02*
X79433809Y4351544D01*
X79433809Y4351544D02*
X79624285Y4256306D01*
X79624285Y4256306D02*
X79910000Y4256306D01*
X78386190Y4256306D02*
X78386190Y6256306D01*
X78386190Y6256306D02*
X77910000Y6256306D01*
X77910000Y6256306D02*
X77624285Y6161068D01*
X77624285Y6161068D02*
X77433809Y5970592D01*
X77433809Y5970592D02*
X77338571Y5780116D01*
X77338571Y5780116D02*
X77243333Y5399164D01*
X77243333Y5399164D02*
X77243333Y5113449D01*
X77243333Y5113449D02*
X77338571Y4732497D01*
X77338571Y4732497D02*
X77433809Y4542021D01*
X77433809Y4542021D02*
X77624285Y4351544D01*
X77624285Y4351544D02*
X77910000Y4256306D01*
X77910000Y4256306D02*
X78386190Y4256306D01*
X75529047Y4256306D02*
X75529047Y5303925D01*
X75529047Y5303925D02*
X75624285Y5494402D01*
X75624285Y5494402D02*
X75814761Y5589640D01*
X75814761Y5589640D02*
X76195714Y5589640D01*
X76195714Y5589640D02*
X76386190Y5494402D01*
X75529047Y4351544D02*
X75719523Y4256306D01*
X75719523Y4256306D02*
X76195714Y4256306D01*
X76195714Y4256306D02*
X76386190Y4351544D01*
X76386190Y4351544D02*
X76481428Y4542021D01*
X76481428Y4542021D02*
X76481428Y4732497D01*
X76481428Y4732497D02*
X76386190Y4922973D01*
X76386190Y4922973D02*
X76195714Y5018211D01*
X76195714Y5018211D02*
X75719523Y5018211D01*
X75719523Y5018211D02*
X75529047Y5113449D01*
X74671904Y4351544D02*
X74481428Y4256306D01*
X74481428Y4256306D02*
X74100476Y4256306D01*
X74100476Y4256306D02*
X73909999Y4351544D01*
X73909999Y4351544D02*
X73814761Y4542021D01*
X73814761Y4542021D02*
X73814761Y4637259D01*
X73814761Y4637259D02*
X73909999Y4827735D01*
X73909999Y4827735D02*
X74100476Y4922973D01*
X74100476Y4922973D02*
X74386190Y4922973D01*
X74386190Y4922973D02*
X74576666Y5018211D01*
X74576666Y5018211D02*
X74671904Y5208687D01*
X74671904Y5208687D02*
X74671904Y5303925D01*
X74671904Y5303925D02*
X74576666Y5494402D01*
X74576666Y5494402D02*
X74386190Y5589640D01*
X74386190Y5589640D02*
X74100476Y5589640D01*
X74100476Y5589640D02*
X73909999Y5494402D01*
X72957618Y4256306D02*
X72957618Y6256306D01*
X72100475Y4256306D02*
X72100475Y5303925D01*
X72100475Y5303925D02*
X72195713Y5494402D01*
X72195713Y5494402D02*
X72386189Y5589640D01*
X72386189Y5589640D02*
X72671904Y5589640D01*
X72671904Y5589640D02*
X72862380Y5494402D01*
X72862380Y5494402D02*
X72957618Y5399164D01*
X70005237Y4446783D02*
X70100475Y4351544D01*
X70100475Y4351544D02*
X70386189Y4256306D01*
X70386189Y4256306D02*
X70576665Y4256306D01*
X70576665Y4256306D02*
X70862380Y4351544D01*
X70862380Y4351544D02*
X71052856Y4542021D01*
X71052856Y4542021D02*
X71148094Y4732497D01*
X71148094Y4732497D02*
X71243332Y5113449D01*
X71243332Y5113449D02*
X71243332Y5399164D01*
X71243332Y5399164D02*
X71148094Y5780116D01*
X71148094Y5780116D02*
X71052856Y5970592D01*
X71052856Y5970592D02*
X70862380Y6161068D01*
X70862380Y6161068D02*
X70576665Y6256306D01*
X70576665Y6256306D02*
X70386189Y6256306D01*
X70386189Y6256306D02*
X70100475Y6161068D01*
X70100475Y6161068D02*
X70005237Y6065830D01*
X69148094Y4256306D02*
X69148094Y6256306D01*
X68290951Y4256306D02*
X68290951Y5303925D01*
X68290951Y5303925D02*
X68386189Y5494402D01*
X68386189Y5494402D02*
X68576665Y5589640D01*
X68576665Y5589640D02*
X68862380Y5589640D01*
X68862380Y5589640D02*
X69052856Y5494402D01*
X69052856Y5494402D02*
X69148094Y5399164D01*
X67052856Y4256306D02*
X67243332Y4351544D01*
X67243332Y4351544D02*
X67338570Y4446783D01*
X67338570Y4446783D02*
X67433808Y4637259D01*
X67433808Y4637259D02*
X67433808Y5208687D01*
X67433808Y5208687D02*
X67338570Y5399164D01*
X67338570Y5399164D02*
X67243332Y5494402D01*
X67243332Y5494402D02*
X67052856Y5589640D01*
X67052856Y5589640D02*
X66767141Y5589640D01*
X66767141Y5589640D02*
X66576665Y5494402D01*
X66576665Y5494402D02*
X66481427Y5399164D01*
X66481427Y5399164D02*
X66386189Y5208687D01*
X66386189Y5208687D02*
X66386189Y4637259D01*
X66386189Y4637259D02*
X66481427Y4446783D01*
X66481427Y4446783D02*
X66576665Y4351544D01*
X66576665Y4351544D02*
X66767141Y4256306D01*
X66767141Y4256306D02*
X67052856Y4256306D01*
X64671903Y4351544D02*
X64862379Y4256306D01*
X64862379Y4256306D02*
X65243332Y4256306D01*
X65243332Y4256306D02*
X65433808Y4351544D01*
X65433808Y4351544D02*
X65529046Y4446783D01*
X65529046Y4446783D02*
X65624284Y4637259D01*
X65624284Y4637259D02*
X65624284Y5208687D01*
X65624284Y5208687D02*
X65529046Y5399164D01*
X65529046Y5399164D02*
X65433808Y5494402D01*
X65433808Y5494402D02*
X65243332Y5589640D01*
X65243332Y5589640D02*
X64862379Y5589640D01*
X64862379Y5589640D02*
X64671903Y5494402D01*
X79529048Y1036418D02*
X80195715Y1988799D01*
X80671905Y1036418D02*
X80671905Y3036418D01*
X80671905Y3036418D02*
X79910000Y3036418D01*
X79910000Y3036418D02*
X79719524Y2941180D01*
X79719524Y2941180D02*
X79624286Y2845942D01*
X79624286Y2845942D02*
X79529048Y2655466D01*
X79529048Y2655466D02*
X79529048Y2369752D01*
X79529048Y2369752D02*
X79624286Y2179276D01*
X79624286Y2179276D02*
X79719524Y2084037D01*
X79719524Y2084037D02*
X79910000Y1988799D01*
X79910000Y1988799D02*
X80671905Y1988799D01*
X77910000Y1131656D02*
X78100476Y1036418D01*
X78100476Y1036418D02*
X78481429Y1036418D01*
X78481429Y1036418D02*
X78671905Y1131656D01*
X78671905Y1131656D02*
X78767143Y1322133D01*
X78767143Y1322133D02*
X78767143Y2084037D01*
X78767143Y2084037D02*
X78671905Y2274514D01*
X78671905Y2274514D02*
X78481429Y2369752D01*
X78481429Y2369752D02*
X78100476Y2369752D01*
X78100476Y2369752D02*
X77910000Y2274514D01*
X77910000Y2274514D02*
X77814762Y2084037D01*
X77814762Y2084037D02*
X77814762Y1893561D01*
X77814762Y1893561D02*
X78767143Y1703085D01*
X77148095Y2369752D02*
X76671905Y1036418D01*
X76671905Y1036418D02*
X76195714Y2369752D01*
X75433809Y1226895D02*
X75338571Y1131656D01*
X75338571Y1131656D02*
X75433809Y1036418D01*
X75433809Y1036418D02*
X75529047Y1131656D01*
X75529047Y1131656D02*
X75433809Y1226895D01*
X75433809Y1226895D02*
X75433809Y1036418D01*
X71909999Y1036418D02*
X73052856Y1036418D01*
X72481428Y1036418D02*
X72481428Y3036418D01*
X72481428Y3036418D02*
X72671904Y2750704D01*
X72671904Y2750704D02*
X72862380Y2560228D01*
X72862380Y2560228D02*
X73052856Y2464990D01*
X71052856Y1226895D02*
X70957618Y1131656D01*
X70957618Y1131656D02*
X71052856Y1036418D01*
X71052856Y1036418D02*
X71148094Y1131656D01*
X71148094Y1131656D02*
X71052856Y1226895D01*
X71052856Y1226895D02*
X71052856Y1036418D01*
X69719523Y3036418D02*
X69529046Y3036418D01*
X69529046Y3036418D02*
X69338570Y2941180D01*
X69338570Y2941180D02*
X69243332Y2845942D01*
X69243332Y2845942D02*
X69148094Y2655466D01*
X69148094Y2655466D02*
X69052856Y2274514D01*
X69052856Y2274514D02*
X69052856Y1798323D01*
X69052856Y1798323D02*
X69148094Y1417371D01*
X69148094Y1417371D02*
X69243332Y1226895D01*
X69243332Y1226895D02*
X69338570Y1131656D01*
X69338570Y1131656D02*
X69529046Y1036418D01*
X69529046Y1036418D02*
X69719523Y1036418D01*
X69719523Y1036418D02*
X69909999Y1131656D01*
X69909999Y1131656D02*
X70005237Y1226895D01*
X70005237Y1226895D02*
X70100475Y1417371D01*
X70100475Y1417371D02*
X70195713Y1798323D01*
X70195713Y1798323D02*
X70195713Y2274514D01*
X70195713Y2274514D02*
X70100475Y2655466D01*
X70100475Y2655466D02*
X70005237Y2845942D01*
X70005237Y2845942D02*
X69909999Y2941180D01*
X69909999Y2941180D02*
X69719523Y3036418D01*
D11*
X30650332Y93763300D02*
X30507475Y93715681D01*
X30507475Y93715681D02*
X30269380Y93715681D01*
X30269380Y93715681D02*
X30174142Y93763300D01*
X30174142Y93763300D02*
X30126523Y93810920D01*
X30126523Y93810920D02*
X30078904Y93906158D01*
X30078904Y93906158D02*
X30078904Y94001396D01*
X30078904Y94001396D02*
X30126523Y94096634D01*
X30126523Y94096634D02*
X30174142Y94144253D01*
X30174142Y94144253D02*
X30269380Y94191872D01*
X30269380Y94191872D02*
X30459856Y94239491D01*
X30459856Y94239491D02*
X30555094Y94287110D01*
X30555094Y94287110D02*
X30602713Y94334729D01*
X30602713Y94334729D02*
X30650332Y94429967D01*
X30650332Y94429967D02*
X30650332Y94525205D01*
X30650332Y94525205D02*
X30602713Y94620443D01*
X30602713Y94620443D02*
X30555094Y94668062D01*
X30555094Y94668062D02*
X30459856Y94715681D01*
X30459856Y94715681D02*
X30221761Y94715681D01*
X30221761Y94715681D02*
X30078904Y94668062D01*
X29745570Y94715681D02*
X29507475Y93715681D01*
X29507475Y93715681D02*
X29316999Y94429967D01*
X29316999Y94429967D02*
X29126523Y93715681D01*
X29126523Y93715681D02*
X28888428Y94715681D01*
X28031285Y94715681D02*
X28507475Y94715681D01*
X28507475Y94715681D02*
X28555094Y94239491D01*
X28555094Y94239491D02*
X28507475Y94287110D01*
X28507475Y94287110D02*
X28412237Y94334729D01*
X28412237Y94334729D02*
X28174142Y94334729D01*
X28174142Y94334729D02*
X28078904Y94287110D01*
X28078904Y94287110D02*
X28031285Y94239491D01*
X28031285Y94239491D02*
X27983666Y94144253D01*
X27983666Y94144253D02*
X27983666Y93906158D01*
X27983666Y93906158D02*
X28031285Y93810920D01*
X28031285Y93810920D02*
X28078904Y93763300D01*
X28078904Y93763300D02*
X28174142Y93715681D01*
X28174142Y93715681D02*
X28412237Y93715681D01*
X28412237Y93715681D02*
X28507475Y93763300D01*
X28507475Y93763300D02*
X28555094Y93810920D01*
X30650332Y74713300D02*
X30507475Y74665681D01*
X30507475Y74665681D02*
X30269380Y74665681D01*
X30269380Y74665681D02*
X30174142Y74713300D01*
X30174142Y74713300D02*
X30126523Y74760920D01*
X30126523Y74760920D02*
X30078904Y74856158D01*
X30078904Y74856158D02*
X30078904Y74951396D01*
X30078904Y74951396D02*
X30126523Y75046634D01*
X30126523Y75046634D02*
X30174142Y75094253D01*
X30174142Y75094253D02*
X30269380Y75141872D01*
X30269380Y75141872D02*
X30459856Y75189491D01*
X30459856Y75189491D02*
X30555094Y75237110D01*
X30555094Y75237110D02*
X30602713Y75284729D01*
X30602713Y75284729D02*
X30650332Y75379967D01*
X30650332Y75379967D02*
X30650332Y75475205D01*
X30650332Y75475205D02*
X30602713Y75570443D01*
X30602713Y75570443D02*
X30555094Y75618062D01*
X30555094Y75618062D02*
X30459856Y75665681D01*
X30459856Y75665681D02*
X30221761Y75665681D01*
X30221761Y75665681D02*
X30078904Y75618062D01*
X29745570Y75665681D02*
X29507475Y74665681D01*
X29507475Y74665681D02*
X29316999Y75379967D01*
X29316999Y75379967D02*
X29126523Y74665681D01*
X29126523Y74665681D02*
X28888428Y75665681D01*
X28078904Y75665681D02*
X28269380Y75665681D01*
X28269380Y75665681D02*
X28364618Y75618062D01*
X28364618Y75618062D02*
X28412237Y75570443D01*
X28412237Y75570443D02*
X28507475Y75427586D01*
X28507475Y75427586D02*
X28555094Y75237110D01*
X28555094Y75237110D02*
X28555094Y74856158D01*
X28555094Y74856158D02*
X28507475Y74760920D01*
X28507475Y74760920D02*
X28459856Y74713300D01*
X28459856Y74713300D02*
X28364618Y74665681D01*
X28364618Y74665681D02*
X28174142Y74665681D01*
X28174142Y74665681D02*
X28078904Y74713300D01*
X28078904Y74713300D02*
X28031285Y74760920D01*
X28031285Y74760920D02*
X27983666Y74856158D01*
X27983666Y74856158D02*
X27983666Y75094253D01*
X27983666Y75094253D02*
X28031285Y75189491D01*
X28031285Y75189491D02*
X28078904Y75237110D01*
X28078904Y75237110D02*
X28174142Y75284729D01*
X28174142Y75284729D02*
X28364618Y75284729D01*
X28364618Y75284729D02*
X28459856Y75237110D01*
X28459856Y75237110D02*
X28507475Y75189491D01*
X28507475Y75189491D02*
X28555094Y75094253D01*
X30650332Y55663300D02*
X30507475Y55615681D01*
X30507475Y55615681D02*
X30269380Y55615681D01*
X30269380Y55615681D02*
X30174142Y55663300D01*
X30174142Y55663300D02*
X30126523Y55710920D01*
X30126523Y55710920D02*
X30078904Y55806158D01*
X30078904Y55806158D02*
X30078904Y55901396D01*
X30078904Y55901396D02*
X30126523Y55996634D01*
X30126523Y55996634D02*
X30174142Y56044253D01*
X30174142Y56044253D02*
X30269380Y56091872D01*
X30269380Y56091872D02*
X30459856Y56139491D01*
X30459856Y56139491D02*
X30555094Y56187110D01*
X30555094Y56187110D02*
X30602713Y56234729D01*
X30602713Y56234729D02*
X30650332Y56329967D01*
X30650332Y56329967D02*
X30650332Y56425205D01*
X30650332Y56425205D02*
X30602713Y56520443D01*
X30602713Y56520443D02*
X30555094Y56568062D01*
X30555094Y56568062D02*
X30459856Y56615681D01*
X30459856Y56615681D02*
X30221761Y56615681D01*
X30221761Y56615681D02*
X30078904Y56568062D01*
X29745570Y56615681D02*
X29507475Y55615681D01*
X29507475Y55615681D02*
X29316999Y56329967D01*
X29316999Y56329967D02*
X29126523Y55615681D01*
X29126523Y55615681D02*
X28888428Y56615681D01*
X28602713Y56615681D02*
X27936047Y56615681D01*
X27936047Y56615681D02*
X28364618Y55615681D01*
X30650332Y36613300D02*
X30507475Y36565681D01*
X30507475Y36565681D02*
X30269380Y36565681D01*
X30269380Y36565681D02*
X30174142Y36613300D01*
X30174142Y36613300D02*
X30126523Y36660920D01*
X30126523Y36660920D02*
X30078904Y36756158D01*
X30078904Y36756158D02*
X30078904Y36851396D01*
X30078904Y36851396D02*
X30126523Y36946634D01*
X30126523Y36946634D02*
X30174142Y36994253D01*
X30174142Y36994253D02*
X30269380Y37041872D01*
X30269380Y37041872D02*
X30459856Y37089491D01*
X30459856Y37089491D02*
X30555094Y37137110D01*
X30555094Y37137110D02*
X30602713Y37184729D01*
X30602713Y37184729D02*
X30650332Y37279967D01*
X30650332Y37279967D02*
X30650332Y37375205D01*
X30650332Y37375205D02*
X30602713Y37470443D01*
X30602713Y37470443D02*
X30555094Y37518062D01*
X30555094Y37518062D02*
X30459856Y37565681D01*
X30459856Y37565681D02*
X30221761Y37565681D01*
X30221761Y37565681D02*
X30078904Y37518062D01*
X29745570Y37565681D02*
X29507475Y36565681D01*
X29507475Y36565681D02*
X29316999Y37279967D01*
X29316999Y37279967D02*
X29126523Y36565681D01*
X29126523Y36565681D02*
X28888428Y37565681D01*
X28364618Y37137110D02*
X28459856Y37184729D01*
X28459856Y37184729D02*
X28507475Y37232348D01*
X28507475Y37232348D02*
X28555094Y37327586D01*
X28555094Y37327586D02*
X28555094Y37375205D01*
X28555094Y37375205D02*
X28507475Y37470443D01*
X28507475Y37470443D02*
X28459856Y37518062D01*
X28459856Y37518062D02*
X28364618Y37565681D01*
X28364618Y37565681D02*
X28174142Y37565681D01*
X28174142Y37565681D02*
X28078904Y37518062D01*
X28078904Y37518062D02*
X28031285Y37470443D01*
X28031285Y37470443D02*
X27983666Y37375205D01*
X27983666Y37375205D02*
X27983666Y37327586D01*
X27983666Y37327586D02*
X28031285Y37232348D01*
X28031285Y37232348D02*
X28078904Y37184729D01*
X28078904Y37184729D02*
X28174142Y37137110D01*
X28174142Y37137110D02*
X28364618Y37137110D01*
X28364618Y37137110D02*
X28459856Y37089491D01*
X28459856Y37089491D02*
X28507475Y37041872D01*
X28507475Y37041872D02*
X28555094Y36946634D01*
X28555094Y36946634D02*
X28555094Y36756158D01*
X28555094Y36756158D02*
X28507475Y36660920D01*
X28507475Y36660920D02*
X28459856Y36613300D01*
X28459856Y36613300D02*
X28364618Y36565681D01*
X28364618Y36565681D02*
X28174142Y36565681D01*
X28174142Y36565681D02*
X28078904Y36613300D01*
X28078904Y36613300D02*
X28031285Y36660920D01*
X28031285Y36660920D02*
X27983666Y36756158D01*
X27983666Y36756158D02*
X27983666Y36946634D01*
X27983666Y36946634D02*
X28031285Y37041872D01*
X28031285Y37041872D02*
X28078904Y37089491D01*
X28078904Y37089491D02*
X28174142Y37137110D01*
X50176523Y41375800D02*
X50033666Y41328181D01*
X50033666Y41328181D02*
X49795571Y41328181D01*
X49795571Y41328181D02*
X49700333Y41375800D01*
X49700333Y41375800D02*
X49652714Y41423420D01*
X49652714Y41423420D02*
X49605095Y41518658D01*
X49605095Y41518658D02*
X49605095Y41613896D01*
X49605095Y41613896D02*
X49652714Y41709134D01*
X49652714Y41709134D02*
X49700333Y41756753D01*
X49700333Y41756753D02*
X49795571Y41804372D01*
X49795571Y41804372D02*
X49986047Y41851991D01*
X49986047Y41851991D02*
X50081285Y41899610D01*
X50081285Y41899610D02*
X50128904Y41947229D01*
X50128904Y41947229D02*
X50176523Y42042467D01*
X50176523Y42042467D02*
X50176523Y42137705D01*
X50176523Y42137705D02*
X50128904Y42232943D01*
X50128904Y42232943D02*
X50081285Y42280562D01*
X50081285Y42280562D02*
X49986047Y42328181D01*
X49986047Y42328181D02*
X49747952Y42328181D01*
X49747952Y42328181D02*
X49605095Y42280562D01*
X49271761Y42328181D02*
X49033666Y41328181D01*
X49033666Y41328181D02*
X48843190Y42042467D01*
X48843190Y42042467D02*
X48652714Y41328181D01*
X48652714Y41328181D02*
X48414619Y42328181D01*
X47509857Y41328181D02*
X48081285Y41328181D01*
X47795571Y41328181D02*
X47795571Y42328181D01*
X47795571Y42328181D02*
X47890809Y42185324D01*
X47890809Y42185324D02*
X47986047Y42090086D01*
X47986047Y42090086D02*
X48081285Y42042467D01*
X47128904Y42232943D02*
X47081285Y42280562D01*
X47081285Y42280562D02*
X46986047Y42328181D01*
X46986047Y42328181D02*
X46747952Y42328181D01*
X46747952Y42328181D02*
X46652714Y42280562D01*
X46652714Y42280562D02*
X46605095Y42232943D01*
X46605095Y42232943D02*
X46557476Y42137705D01*
X46557476Y42137705D02*
X46557476Y42042467D01*
X46557476Y42042467D02*
X46605095Y41899610D01*
X46605095Y41899610D02*
X47176523Y41328181D01*
X47176523Y41328181D02*
X46557476Y41328181D01*
X69226523Y100907100D02*
X69083666Y100859481D01*
X69083666Y100859481D02*
X68845571Y100859481D01*
X68845571Y100859481D02*
X68750333Y100907100D01*
X68750333Y100907100D02*
X68702714Y100954720D01*
X68702714Y100954720D02*
X68655095Y101049958D01*
X68655095Y101049958D02*
X68655095Y101145196D01*
X68655095Y101145196D02*
X68702714Y101240434D01*
X68702714Y101240434D02*
X68750333Y101288053D01*
X68750333Y101288053D02*
X68845571Y101335672D01*
X68845571Y101335672D02*
X69036047Y101383291D01*
X69036047Y101383291D02*
X69131285Y101430910D01*
X69131285Y101430910D02*
X69178904Y101478529D01*
X69178904Y101478529D02*
X69226523Y101573767D01*
X69226523Y101573767D02*
X69226523Y101669005D01*
X69226523Y101669005D02*
X69178904Y101764243D01*
X69178904Y101764243D02*
X69131285Y101811862D01*
X69131285Y101811862D02*
X69036047Y101859481D01*
X69036047Y101859481D02*
X68797952Y101859481D01*
X68797952Y101859481D02*
X68655095Y101811862D01*
X68321761Y101859481D02*
X68083666Y100859481D01*
X68083666Y100859481D02*
X67893190Y101573767D01*
X67893190Y101573767D02*
X67702714Y100859481D01*
X67702714Y100859481D02*
X67464619Y101859481D01*
X66559857Y100859481D02*
X67131285Y100859481D01*
X66845571Y100859481D02*
X66845571Y101859481D01*
X66845571Y101859481D02*
X66940809Y101716624D01*
X66940809Y101716624D02*
X67036047Y101621386D01*
X67036047Y101621386D02*
X67131285Y101573767D01*
X66226523Y101859481D02*
X65607476Y101859481D01*
X65607476Y101859481D02*
X65940809Y101478529D01*
X65940809Y101478529D02*
X65797952Y101478529D01*
X65797952Y101478529D02*
X65702714Y101430910D01*
X65702714Y101430910D02*
X65655095Y101383291D01*
X65655095Y101383291D02*
X65607476Y101288053D01*
X65607476Y101288053D02*
X65607476Y101049958D01*
X65607476Y101049958D02*
X65655095Y100954720D01*
X65655095Y100954720D02*
X65702714Y100907100D01*
X65702714Y100907100D02*
X65797952Y100859481D01*
X65797952Y100859481D02*
X66083666Y100859481D01*
X66083666Y100859481D02*
X66178904Y100907100D01*
X66178904Y100907100D02*
X66226523Y100954720D01*
X69226523Y81857100D02*
X69083666Y81809481D01*
X69083666Y81809481D02*
X68845571Y81809481D01*
X68845571Y81809481D02*
X68750333Y81857100D01*
X68750333Y81857100D02*
X68702714Y81904720D01*
X68702714Y81904720D02*
X68655095Y81999958D01*
X68655095Y81999958D02*
X68655095Y82095196D01*
X68655095Y82095196D02*
X68702714Y82190434D01*
X68702714Y82190434D02*
X68750333Y82238053D01*
X68750333Y82238053D02*
X68845571Y82285672D01*
X68845571Y82285672D02*
X69036047Y82333291D01*
X69036047Y82333291D02*
X69131285Y82380910D01*
X69131285Y82380910D02*
X69178904Y82428529D01*
X69178904Y82428529D02*
X69226523Y82523767D01*
X69226523Y82523767D02*
X69226523Y82619005D01*
X69226523Y82619005D02*
X69178904Y82714243D01*
X69178904Y82714243D02*
X69131285Y82761862D01*
X69131285Y82761862D02*
X69036047Y82809481D01*
X69036047Y82809481D02*
X68797952Y82809481D01*
X68797952Y82809481D02*
X68655095Y82761862D01*
X68321761Y82809481D02*
X68083666Y81809481D01*
X68083666Y81809481D02*
X67893190Y82523767D01*
X67893190Y82523767D02*
X67702714Y81809481D01*
X67702714Y81809481D02*
X67464619Y82809481D01*
X66559857Y81809481D02*
X67131285Y81809481D01*
X66845571Y81809481D02*
X66845571Y82809481D01*
X66845571Y82809481D02*
X66940809Y82666624D01*
X66940809Y82666624D02*
X67036047Y82571386D01*
X67036047Y82571386D02*
X67131285Y82523767D01*
X65702714Y82476148D02*
X65702714Y81809481D01*
X65940809Y82857100D02*
X66178904Y82142815D01*
X66178904Y82142815D02*
X65559857Y82142815D01*
X69226523Y62807100D02*
X69083666Y62759481D01*
X69083666Y62759481D02*
X68845571Y62759481D01*
X68845571Y62759481D02*
X68750333Y62807100D01*
X68750333Y62807100D02*
X68702714Y62854720D01*
X68702714Y62854720D02*
X68655095Y62949958D01*
X68655095Y62949958D02*
X68655095Y63045196D01*
X68655095Y63045196D02*
X68702714Y63140434D01*
X68702714Y63140434D02*
X68750333Y63188053D01*
X68750333Y63188053D02*
X68845571Y63235672D01*
X68845571Y63235672D02*
X69036047Y63283291D01*
X69036047Y63283291D02*
X69131285Y63330910D01*
X69131285Y63330910D02*
X69178904Y63378529D01*
X69178904Y63378529D02*
X69226523Y63473767D01*
X69226523Y63473767D02*
X69226523Y63569005D01*
X69226523Y63569005D02*
X69178904Y63664243D01*
X69178904Y63664243D02*
X69131285Y63711862D01*
X69131285Y63711862D02*
X69036047Y63759481D01*
X69036047Y63759481D02*
X68797952Y63759481D01*
X68797952Y63759481D02*
X68655095Y63711862D01*
X68321761Y63759481D02*
X68083666Y62759481D01*
X68083666Y62759481D02*
X67893190Y63473767D01*
X67893190Y63473767D02*
X67702714Y62759481D01*
X67702714Y62759481D02*
X67464619Y63759481D01*
X66559857Y62759481D02*
X67131285Y62759481D01*
X66845571Y62759481D02*
X66845571Y63759481D01*
X66845571Y63759481D02*
X66940809Y63616624D01*
X66940809Y63616624D02*
X67036047Y63521386D01*
X67036047Y63521386D02*
X67131285Y63473767D01*
X65655095Y63759481D02*
X66131285Y63759481D01*
X66131285Y63759481D02*
X66178904Y63283291D01*
X66178904Y63283291D02*
X66131285Y63330910D01*
X66131285Y63330910D02*
X66036047Y63378529D01*
X66036047Y63378529D02*
X65797952Y63378529D01*
X65797952Y63378529D02*
X65702714Y63330910D01*
X65702714Y63330910D02*
X65655095Y63283291D01*
X65655095Y63283291D02*
X65607476Y63188053D01*
X65607476Y63188053D02*
X65607476Y62949958D01*
X65607476Y62949958D02*
X65655095Y62854720D01*
X65655095Y62854720D02*
X65702714Y62807100D01*
X65702714Y62807100D02*
X65797952Y62759481D01*
X65797952Y62759481D02*
X66036047Y62759481D01*
X66036047Y62759481D02*
X66131285Y62807100D01*
X66131285Y62807100D02*
X66178904Y62854720D01*
X69226523Y43757100D02*
X69083666Y43709481D01*
X69083666Y43709481D02*
X68845571Y43709481D01*
X68845571Y43709481D02*
X68750333Y43757100D01*
X68750333Y43757100D02*
X68702714Y43804720D01*
X68702714Y43804720D02*
X68655095Y43899958D01*
X68655095Y43899958D02*
X68655095Y43995196D01*
X68655095Y43995196D02*
X68702714Y44090434D01*
X68702714Y44090434D02*
X68750333Y44138053D01*
X68750333Y44138053D02*
X68845571Y44185672D01*
X68845571Y44185672D02*
X69036047Y44233291D01*
X69036047Y44233291D02*
X69131285Y44280910D01*
X69131285Y44280910D02*
X69178904Y44328529D01*
X69178904Y44328529D02*
X69226523Y44423767D01*
X69226523Y44423767D02*
X69226523Y44519005D01*
X69226523Y44519005D02*
X69178904Y44614243D01*
X69178904Y44614243D02*
X69131285Y44661862D01*
X69131285Y44661862D02*
X69036047Y44709481D01*
X69036047Y44709481D02*
X68797952Y44709481D01*
X68797952Y44709481D02*
X68655095Y44661862D01*
X68321761Y44709481D02*
X68083666Y43709481D01*
X68083666Y43709481D02*
X67893190Y44423767D01*
X67893190Y44423767D02*
X67702714Y43709481D01*
X67702714Y43709481D02*
X67464619Y44709481D01*
X66559857Y43709481D02*
X67131285Y43709481D01*
X66845571Y43709481D02*
X66845571Y44709481D01*
X66845571Y44709481D02*
X66940809Y44566624D01*
X66940809Y44566624D02*
X67036047Y44471386D01*
X67036047Y44471386D02*
X67131285Y44423767D01*
X65702714Y44709481D02*
X65893190Y44709481D01*
X65893190Y44709481D02*
X65988428Y44661862D01*
X65988428Y44661862D02*
X66036047Y44614243D01*
X66036047Y44614243D02*
X66131285Y44471386D01*
X66131285Y44471386D02*
X66178904Y44280910D01*
X66178904Y44280910D02*
X66178904Y43899958D01*
X66178904Y43899958D02*
X66131285Y43804720D01*
X66131285Y43804720D02*
X66083666Y43757100D01*
X66083666Y43757100D02*
X65988428Y43709481D01*
X65988428Y43709481D02*
X65797952Y43709481D01*
X65797952Y43709481D02*
X65702714Y43757100D01*
X65702714Y43757100D02*
X65655095Y43804720D01*
X65655095Y43804720D02*
X65607476Y43899958D01*
X65607476Y43899958D02*
X65607476Y44138053D01*
X65607476Y44138053D02*
X65655095Y44233291D01*
X65655095Y44233291D02*
X65702714Y44280910D01*
X65702714Y44280910D02*
X65797952Y44328529D01*
X65797952Y44328529D02*
X65988428Y44328529D01*
X65988428Y44328529D02*
X66083666Y44280910D01*
X66083666Y44280910D02*
X66131285Y44233291D01*
X66131285Y44233291D02*
X66178904Y44138053D01*
X88276523Y98525800D02*
X88133666Y98478181D01*
X88133666Y98478181D02*
X87895571Y98478181D01*
X87895571Y98478181D02*
X87800333Y98525800D01*
X87800333Y98525800D02*
X87752714Y98573420D01*
X87752714Y98573420D02*
X87705095Y98668658D01*
X87705095Y98668658D02*
X87705095Y98763896D01*
X87705095Y98763896D02*
X87752714Y98859134D01*
X87752714Y98859134D02*
X87800333Y98906753D01*
X87800333Y98906753D02*
X87895571Y98954372D01*
X87895571Y98954372D02*
X88086047Y99001991D01*
X88086047Y99001991D02*
X88181285Y99049610D01*
X88181285Y99049610D02*
X88228904Y99097229D01*
X88228904Y99097229D02*
X88276523Y99192467D01*
X88276523Y99192467D02*
X88276523Y99287705D01*
X88276523Y99287705D02*
X88228904Y99382943D01*
X88228904Y99382943D02*
X88181285Y99430562D01*
X88181285Y99430562D02*
X88086047Y99478181D01*
X88086047Y99478181D02*
X87847952Y99478181D01*
X87847952Y99478181D02*
X87705095Y99430562D01*
X87371761Y99478181D02*
X87133666Y98478181D01*
X87133666Y98478181D02*
X86943190Y99192467D01*
X86943190Y99192467D02*
X86752714Y98478181D01*
X86752714Y98478181D02*
X86514619Y99478181D01*
X85609857Y98478181D02*
X86181285Y98478181D01*
X85895571Y98478181D02*
X85895571Y99478181D01*
X85895571Y99478181D02*
X85990809Y99335324D01*
X85990809Y99335324D02*
X86086047Y99240086D01*
X86086047Y99240086D02*
X86181285Y99192467D01*
X85276523Y99478181D02*
X84609857Y99478181D01*
X84609857Y99478181D02*
X85038428Y98478181D01*
X88276523Y79475800D02*
X88133666Y79428181D01*
X88133666Y79428181D02*
X87895571Y79428181D01*
X87895571Y79428181D02*
X87800333Y79475800D01*
X87800333Y79475800D02*
X87752714Y79523420D01*
X87752714Y79523420D02*
X87705095Y79618658D01*
X87705095Y79618658D02*
X87705095Y79713896D01*
X87705095Y79713896D02*
X87752714Y79809134D01*
X87752714Y79809134D02*
X87800333Y79856753D01*
X87800333Y79856753D02*
X87895571Y79904372D01*
X87895571Y79904372D02*
X88086047Y79951991D01*
X88086047Y79951991D02*
X88181285Y79999610D01*
X88181285Y79999610D02*
X88228904Y80047229D01*
X88228904Y80047229D02*
X88276523Y80142467D01*
X88276523Y80142467D02*
X88276523Y80237705D01*
X88276523Y80237705D02*
X88228904Y80332943D01*
X88228904Y80332943D02*
X88181285Y80380562D01*
X88181285Y80380562D02*
X88086047Y80428181D01*
X88086047Y80428181D02*
X87847952Y80428181D01*
X87847952Y80428181D02*
X87705095Y80380562D01*
X87371761Y80428181D02*
X87133666Y79428181D01*
X87133666Y79428181D02*
X86943190Y80142467D01*
X86943190Y80142467D02*
X86752714Y79428181D01*
X86752714Y79428181D02*
X86514619Y80428181D01*
X85609857Y79428181D02*
X86181285Y79428181D01*
X85895571Y79428181D02*
X85895571Y80428181D01*
X85895571Y80428181D02*
X85990809Y80285324D01*
X85990809Y80285324D02*
X86086047Y80190086D01*
X86086047Y80190086D02*
X86181285Y80142467D01*
X85038428Y79999610D02*
X85133666Y80047229D01*
X85133666Y80047229D02*
X85181285Y80094848D01*
X85181285Y80094848D02*
X85228904Y80190086D01*
X85228904Y80190086D02*
X85228904Y80237705D01*
X85228904Y80237705D02*
X85181285Y80332943D01*
X85181285Y80332943D02*
X85133666Y80380562D01*
X85133666Y80380562D02*
X85038428Y80428181D01*
X85038428Y80428181D02*
X84847952Y80428181D01*
X84847952Y80428181D02*
X84752714Y80380562D01*
X84752714Y80380562D02*
X84705095Y80332943D01*
X84705095Y80332943D02*
X84657476Y80237705D01*
X84657476Y80237705D02*
X84657476Y80190086D01*
X84657476Y80190086D02*
X84705095Y80094848D01*
X84705095Y80094848D02*
X84752714Y80047229D01*
X84752714Y80047229D02*
X84847952Y79999610D01*
X84847952Y79999610D02*
X85038428Y79999610D01*
X85038428Y79999610D02*
X85133666Y79951991D01*
X85133666Y79951991D02*
X85181285Y79904372D01*
X85181285Y79904372D02*
X85228904Y79809134D01*
X85228904Y79809134D02*
X85228904Y79618658D01*
X85228904Y79618658D02*
X85181285Y79523420D01*
X85181285Y79523420D02*
X85133666Y79475800D01*
X85133666Y79475800D02*
X85038428Y79428181D01*
X85038428Y79428181D02*
X84847952Y79428181D01*
X84847952Y79428181D02*
X84752714Y79475800D01*
X84752714Y79475800D02*
X84705095Y79523420D01*
X84705095Y79523420D02*
X84657476Y79618658D01*
X84657476Y79618658D02*
X84657476Y79809134D01*
X84657476Y79809134D02*
X84705095Y79904372D01*
X84705095Y79904372D02*
X84752714Y79951991D01*
X84752714Y79951991D02*
X84847952Y79999610D01*
X88276523Y60425800D02*
X88133666Y60378181D01*
X88133666Y60378181D02*
X87895571Y60378181D01*
X87895571Y60378181D02*
X87800333Y60425800D01*
X87800333Y60425800D02*
X87752714Y60473420D01*
X87752714Y60473420D02*
X87705095Y60568658D01*
X87705095Y60568658D02*
X87705095Y60663896D01*
X87705095Y60663896D02*
X87752714Y60759134D01*
X87752714Y60759134D02*
X87800333Y60806753D01*
X87800333Y60806753D02*
X87895571Y60854372D01*
X87895571Y60854372D02*
X88086047Y60901991D01*
X88086047Y60901991D02*
X88181285Y60949610D01*
X88181285Y60949610D02*
X88228904Y60997229D01*
X88228904Y60997229D02*
X88276523Y61092467D01*
X88276523Y61092467D02*
X88276523Y61187705D01*
X88276523Y61187705D02*
X88228904Y61282943D01*
X88228904Y61282943D02*
X88181285Y61330562D01*
X88181285Y61330562D02*
X88086047Y61378181D01*
X88086047Y61378181D02*
X87847952Y61378181D01*
X87847952Y61378181D02*
X87705095Y61330562D01*
X87371761Y61378181D02*
X87133666Y60378181D01*
X87133666Y60378181D02*
X86943190Y61092467D01*
X86943190Y61092467D02*
X86752714Y60378181D01*
X86752714Y60378181D02*
X86514619Y61378181D01*
X85609857Y60378181D02*
X86181285Y60378181D01*
X85895571Y60378181D02*
X85895571Y61378181D01*
X85895571Y61378181D02*
X85990809Y61235324D01*
X85990809Y61235324D02*
X86086047Y61140086D01*
X86086047Y61140086D02*
X86181285Y61092467D01*
X85133666Y60378181D02*
X84943190Y60378181D01*
X84943190Y60378181D02*
X84847952Y60425800D01*
X84847952Y60425800D02*
X84800333Y60473420D01*
X84800333Y60473420D02*
X84705095Y60616277D01*
X84705095Y60616277D02*
X84657476Y60806753D01*
X84657476Y60806753D02*
X84657476Y61187705D01*
X84657476Y61187705D02*
X84705095Y61282943D01*
X84705095Y61282943D02*
X84752714Y61330562D01*
X84752714Y61330562D02*
X84847952Y61378181D01*
X84847952Y61378181D02*
X85038428Y61378181D01*
X85038428Y61378181D02*
X85133666Y61330562D01*
X85133666Y61330562D02*
X85181285Y61282943D01*
X85181285Y61282943D02*
X85228904Y61187705D01*
X85228904Y61187705D02*
X85228904Y60949610D01*
X85228904Y60949610D02*
X85181285Y60854372D01*
X85181285Y60854372D02*
X85133666Y60806753D01*
X85133666Y60806753D02*
X85038428Y60759134D01*
X85038428Y60759134D02*
X84847952Y60759134D01*
X84847952Y60759134D02*
X84752714Y60806753D01*
X84752714Y60806753D02*
X84705095Y60854372D01*
X84705095Y60854372D02*
X84657476Y60949610D01*
X88276523Y41375800D02*
X88133666Y41328181D01*
X88133666Y41328181D02*
X87895571Y41328181D01*
X87895571Y41328181D02*
X87800333Y41375800D01*
X87800333Y41375800D02*
X87752714Y41423420D01*
X87752714Y41423420D02*
X87705095Y41518658D01*
X87705095Y41518658D02*
X87705095Y41613896D01*
X87705095Y41613896D02*
X87752714Y41709134D01*
X87752714Y41709134D02*
X87800333Y41756753D01*
X87800333Y41756753D02*
X87895571Y41804372D01*
X87895571Y41804372D02*
X88086047Y41851991D01*
X88086047Y41851991D02*
X88181285Y41899610D01*
X88181285Y41899610D02*
X88228904Y41947229D01*
X88228904Y41947229D02*
X88276523Y42042467D01*
X88276523Y42042467D02*
X88276523Y42137705D01*
X88276523Y42137705D02*
X88228904Y42232943D01*
X88228904Y42232943D02*
X88181285Y42280562D01*
X88181285Y42280562D02*
X88086047Y42328181D01*
X88086047Y42328181D02*
X87847952Y42328181D01*
X87847952Y42328181D02*
X87705095Y42280562D01*
X87371761Y42328181D02*
X87133666Y41328181D01*
X87133666Y41328181D02*
X86943190Y42042467D01*
X86943190Y42042467D02*
X86752714Y41328181D01*
X86752714Y41328181D02*
X86514619Y42328181D01*
X86181285Y42232943D02*
X86133666Y42280562D01*
X86133666Y42280562D02*
X86038428Y42328181D01*
X86038428Y42328181D02*
X85800333Y42328181D01*
X85800333Y42328181D02*
X85705095Y42280562D01*
X85705095Y42280562D02*
X85657476Y42232943D01*
X85657476Y42232943D02*
X85609857Y42137705D01*
X85609857Y42137705D02*
X85609857Y42042467D01*
X85609857Y42042467D02*
X85657476Y41899610D01*
X85657476Y41899610D02*
X86228904Y41328181D01*
X86228904Y41328181D02*
X85609857Y41328181D01*
X84990809Y42328181D02*
X84895571Y42328181D01*
X84895571Y42328181D02*
X84800333Y42280562D01*
X84800333Y42280562D02*
X84752714Y42232943D01*
X84752714Y42232943D02*
X84705095Y42137705D01*
X84705095Y42137705D02*
X84657476Y41947229D01*
X84657476Y41947229D02*
X84657476Y41709134D01*
X84657476Y41709134D02*
X84705095Y41518658D01*
X84705095Y41518658D02*
X84752714Y41423420D01*
X84752714Y41423420D02*
X84800333Y41375800D01*
X84800333Y41375800D02*
X84895571Y41328181D01*
X84895571Y41328181D02*
X84990809Y41328181D01*
X84990809Y41328181D02*
X85086047Y41375800D01*
X85086047Y41375800D02*
X85133666Y41423420D01*
X85133666Y41423420D02*
X85181285Y41518658D01*
X85181285Y41518658D02*
X85228904Y41709134D01*
X85228904Y41709134D02*
X85228904Y41947229D01*
X85228904Y41947229D02*
X85181285Y42137705D01*
X85181285Y42137705D02*
X85133666Y42232943D01*
X85133666Y42232943D02*
X85086047Y42280562D01*
X85086047Y42280562D02*
X84990809Y42328181D01*
X107326523Y96144600D02*
X107183666Y96096981D01*
X107183666Y96096981D02*
X106945571Y96096981D01*
X106945571Y96096981D02*
X106850333Y96144600D01*
X106850333Y96144600D02*
X106802714Y96192220D01*
X106802714Y96192220D02*
X106755095Y96287458D01*
X106755095Y96287458D02*
X106755095Y96382696D01*
X106755095Y96382696D02*
X106802714Y96477934D01*
X106802714Y96477934D02*
X106850333Y96525553D01*
X106850333Y96525553D02*
X106945571Y96573172D01*
X106945571Y96573172D02*
X107136047Y96620791D01*
X107136047Y96620791D02*
X107231285Y96668410D01*
X107231285Y96668410D02*
X107278904Y96716029D01*
X107278904Y96716029D02*
X107326523Y96811267D01*
X107326523Y96811267D02*
X107326523Y96906505D01*
X107326523Y96906505D02*
X107278904Y97001743D01*
X107278904Y97001743D02*
X107231285Y97049362D01*
X107231285Y97049362D02*
X107136047Y97096981D01*
X107136047Y97096981D02*
X106897952Y97096981D01*
X106897952Y97096981D02*
X106755095Y97049362D01*
X106421761Y97096981D02*
X106183666Y96096981D01*
X106183666Y96096981D02*
X105993190Y96811267D01*
X105993190Y96811267D02*
X105802714Y96096981D01*
X105802714Y96096981D02*
X105564619Y97096981D01*
X105231285Y97001743D02*
X105183666Y97049362D01*
X105183666Y97049362D02*
X105088428Y97096981D01*
X105088428Y97096981D02*
X104850333Y97096981D01*
X104850333Y97096981D02*
X104755095Y97049362D01*
X104755095Y97049362D02*
X104707476Y97001743D01*
X104707476Y97001743D02*
X104659857Y96906505D01*
X104659857Y96906505D02*
X104659857Y96811267D01*
X104659857Y96811267D02*
X104707476Y96668410D01*
X104707476Y96668410D02*
X105278904Y96096981D01*
X105278904Y96096981D02*
X104659857Y96096981D01*
X103707476Y96096981D02*
X104278904Y96096981D01*
X103993190Y96096981D02*
X103993190Y97096981D01*
X103993190Y97096981D02*
X104088428Y96954124D01*
X104088428Y96954124D02*
X104183666Y96858886D01*
X104183666Y96858886D02*
X104278904Y96811267D01*
X126376523Y86619600D02*
X126233666Y86571981D01*
X126233666Y86571981D02*
X125995571Y86571981D01*
X125995571Y86571981D02*
X125900333Y86619600D01*
X125900333Y86619600D02*
X125852714Y86667220D01*
X125852714Y86667220D02*
X125805095Y86762458D01*
X125805095Y86762458D02*
X125805095Y86857696D01*
X125805095Y86857696D02*
X125852714Y86952934D01*
X125852714Y86952934D02*
X125900333Y87000553D01*
X125900333Y87000553D02*
X125995571Y87048172D01*
X125995571Y87048172D02*
X126186047Y87095791D01*
X126186047Y87095791D02*
X126281285Y87143410D01*
X126281285Y87143410D02*
X126328904Y87191029D01*
X126328904Y87191029D02*
X126376523Y87286267D01*
X126376523Y87286267D02*
X126376523Y87381505D01*
X126376523Y87381505D02*
X126328904Y87476743D01*
X126328904Y87476743D02*
X126281285Y87524362D01*
X126281285Y87524362D02*
X126186047Y87571981D01*
X126186047Y87571981D02*
X125947952Y87571981D01*
X125947952Y87571981D02*
X125805095Y87524362D01*
X125471761Y87571981D02*
X125233666Y86571981D01*
X125233666Y86571981D02*
X125043190Y87286267D01*
X125043190Y87286267D02*
X124852714Y86571981D01*
X124852714Y86571981D02*
X124614619Y87571981D01*
X124281285Y87476743D02*
X124233666Y87524362D01*
X124233666Y87524362D02*
X124138428Y87571981D01*
X124138428Y87571981D02*
X123900333Y87571981D01*
X123900333Y87571981D02*
X123805095Y87524362D01*
X123805095Y87524362D02*
X123757476Y87476743D01*
X123757476Y87476743D02*
X123709857Y87381505D01*
X123709857Y87381505D02*
X123709857Y87286267D01*
X123709857Y87286267D02*
X123757476Y87143410D01*
X123757476Y87143410D02*
X124328904Y86571981D01*
X124328904Y86571981D02*
X123709857Y86571981D01*
X122805095Y87571981D02*
X123281285Y87571981D01*
X123281285Y87571981D02*
X123328904Y87095791D01*
X123328904Y87095791D02*
X123281285Y87143410D01*
X123281285Y87143410D02*
X123186047Y87191029D01*
X123186047Y87191029D02*
X122947952Y87191029D01*
X122947952Y87191029D02*
X122852714Y87143410D01*
X122852714Y87143410D02*
X122805095Y87095791D01*
X122805095Y87095791D02*
X122757476Y87000553D01*
X122757476Y87000553D02*
X122757476Y86762458D01*
X122757476Y86762458D02*
X122805095Y86667220D01*
X122805095Y86667220D02*
X122852714Y86619600D01*
X122852714Y86619600D02*
X122947952Y86571981D01*
X122947952Y86571981D02*
X123186047Y86571981D01*
X123186047Y86571981D02*
X123281285Y86619600D01*
X123281285Y86619600D02*
X123328904Y86667220D01*
X126376523Y67569600D02*
X126233666Y67521981D01*
X126233666Y67521981D02*
X125995571Y67521981D01*
X125995571Y67521981D02*
X125900333Y67569600D01*
X125900333Y67569600D02*
X125852714Y67617220D01*
X125852714Y67617220D02*
X125805095Y67712458D01*
X125805095Y67712458D02*
X125805095Y67807696D01*
X125805095Y67807696D02*
X125852714Y67902934D01*
X125852714Y67902934D02*
X125900333Y67950553D01*
X125900333Y67950553D02*
X125995571Y67998172D01*
X125995571Y67998172D02*
X126186047Y68045791D01*
X126186047Y68045791D02*
X126281285Y68093410D01*
X126281285Y68093410D02*
X126328904Y68141029D01*
X126328904Y68141029D02*
X126376523Y68236267D01*
X126376523Y68236267D02*
X126376523Y68331505D01*
X126376523Y68331505D02*
X126328904Y68426743D01*
X126328904Y68426743D02*
X126281285Y68474362D01*
X126281285Y68474362D02*
X126186047Y68521981D01*
X126186047Y68521981D02*
X125947952Y68521981D01*
X125947952Y68521981D02*
X125805095Y68474362D01*
X125471761Y68521981D02*
X125233666Y67521981D01*
X125233666Y67521981D02*
X125043190Y68236267D01*
X125043190Y68236267D02*
X124852714Y67521981D01*
X124852714Y67521981D02*
X124614619Y68521981D01*
X124281285Y68426743D02*
X124233666Y68474362D01*
X124233666Y68474362D02*
X124138428Y68521981D01*
X124138428Y68521981D02*
X123900333Y68521981D01*
X123900333Y68521981D02*
X123805095Y68474362D01*
X123805095Y68474362D02*
X123757476Y68426743D01*
X123757476Y68426743D02*
X123709857Y68331505D01*
X123709857Y68331505D02*
X123709857Y68236267D01*
X123709857Y68236267D02*
X123757476Y68093410D01*
X123757476Y68093410D02*
X124328904Y67521981D01*
X124328904Y67521981D02*
X123709857Y67521981D01*
X122852714Y68521981D02*
X123043190Y68521981D01*
X123043190Y68521981D02*
X123138428Y68474362D01*
X123138428Y68474362D02*
X123186047Y68426743D01*
X123186047Y68426743D02*
X123281285Y68283886D01*
X123281285Y68283886D02*
X123328904Y68093410D01*
X123328904Y68093410D02*
X123328904Y67712458D01*
X123328904Y67712458D02*
X123281285Y67617220D01*
X123281285Y67617220D02*
X123233666Y67569600D01*
X123233666Y67569600D02*
X123138428Y67521981D01*
X123138428Y67521981D02*
X122947952Y67521981D01*
X122947952Y67521981D02*
X122852714Y67569600D01*
X122852714Y67569600D02*
X122805095Y67617220D01*
X122805095Y67617220D02*
X122757476Y67712458D01*
X122757476Y67712458D02*
X122757476Y67950553D01*
X122757476Y67950553D02*
X122805095Y68045791D01*
X122805095Y68045791D02*
X122852714Y68093410D01*
X122852714Y68093410D02*
X122947952Y68141029D01*
X122947952Y68141029D02*
X123138428Y68141029D01*
X123138428Y68141029D02*
X123233666Y68093410D01*
X123233666Y68093410D02*
X123281285Y68045791D01*
X123281285Y68045791D02*
X123328904Y67950553D01*
X126376523Y48519600D02*
X126233666Y48471981D01*
X126233666Y48471981D02*
X125995571Y48471981D01*
X125995571Y48471981D02*
X125900333Y48519600D01*
X125900333Y48519600D02*
X125852714Y48567220D01*
X125852714Y48567220D02*
X125805095Y48662458D01*
X125805095Y48662458D02*
X125805095Y48757696D01*
X125805095Y48757696D02*
X125852714Y48852934D01*
X125852714Y48852934D02*
X125900333Y48900553D01*
X125900333Y48900553D02*
X125995571Y48948172D01*
X125995571Y48948172D02*
X126186047Y48995791D01*
X126186047Y48995791D02*
X126281285Y49043410D01*
X126281285Y49043410D02*
X126328904Y49091029D01*
X126328904Y49091029D02*
X126376523Y49186267D01*
X126376523Y49186267D02*
X126376523Y49281505D01*
X126376523Y49281505D02*
X126328904Y49376743D01*
X126328904Y49376743D02*
X126281285Y49424362D01*
X126281285Y49424362D02*
X126186047Y49471981D01*
X126186047Y49471981D02*
X125947952Y49471981D01*
X125947952Y49471981D02*
X125805095Y49424362D01*
X125471761Y49471981D02*
X125233666Y48471981D01*
X125233666Y48471981D02*
X125043190Y49186267D01*
X125043190Y49186267D02*
X124852714Y48471981D01*
X124852714Y48471981D02*
X124614619Y49471981D01*
X124281285Y49376743D02*
X124233666Y49424362D01*
X124233666Y49424362D02*
X124138428Y49471981D01*
X124138428Y49471981D02*
X123900333Y49471981D01*
X123900333Y49471981D02*
X123805095Y49424362D01*
X123805095Y49424362D02*
X123757476Y49376743D01*
X123757476Y49376743D02*
X123709857Y49281505D01*
X123709857Y49281505D02*
X123709857Y49186267D01*
X123709857Y49186267D02*
X123757476Y49043410D01*
X123757476Y49043410D02*
X124328904Y48471981D01*
X124328904Y48471981D02*
X123709857Y48471981D01*
X123376523Y49471981D02*
X122709857Y49471981D01*
X122709857Y49471981D02*
X123138428Y48471981D01*
X133458373Y13943594D02*
X133428184Y13796067D01*
X133428184Y13796067D02*
X133309136Y13589870D01*
X133309136Y13589870D02*
X133220278Y13531201D01*
X133220278Y13531201D02*
X133155229Y13513771D01*
X133155229Y13513771D02*
X133048941Y13520151D01*
X133048941Y13520151D02*
X132966462Y13567770D01*
X132966462Y13567770D02*
X132907793Y13656628D01*
X132907793Y13656628D02*
X132890363Y13721677D01*
X132890363Y13721677D02*
X132896743Y13827965D01*
X132896743Y13827965D02*
X132950742Y14016732D01*
X132950742Y14016732D02*
X132957122Y14123020D01*
X132957122Y14123020D02*
X132939692Y14188069D01*
X132939692Y14188069D02*
X132881023Y14276927D01*
X132881023Y14276927D02*
X132798544Y14324546D01*
X132798544Y14324546D02*
X132692256Y14330926D01*
X132692256Y14330926D02*
X132627207Y14313496D01*
X132627207Y14313496D02*
X132538349Y14254827D01*
X132538349Y14254827D02*
X132419301Y14048631D01*
X132419301Y14048631D02*
X132389112Y13901103D01*
X132181206Y13636238D02*
X132928184Y12930041D01*
X132928184Y12930041D02*
X132214356Y13122227D01*
X132214356Y13122227D02*
X132737707Y12600127D01*
X132737707Y12600127D02*
X131752634Y12893930D01*
X131668446Y12557636D02*
X131603398Y12540206D01*
X131603398Y12540206D02*
X131514539Y12481537D01*
X131514539Y12481537D02*
X131395492Y12275341D01*
X131395492Y12275341D02*
X131389112Y12169053D01*
X131389112Y12169053D02*
X131406542Y12104004D01*
X131406542Y12104004D02*
X131465211Y12015145D01*
X131465211Y12015145D02*
X131547689Y11967526D01*
X131547689Y11967526D02*
X131695217Y11937337D01*
X131695217Y11937337D02*
X132475803Y12146495D01*
X132475803Y12146495D02*
X132166279Y11610384D01*
X131385693Y11401226D02*
X131392073Y11507514D01*
X131392073Y11507514D02*
X131374643Y11572563D01*
X131374643Y11572563D02*
X131315974Y11661421D01*
X131315974Y11661421D02*
X131274735Y11685231D01*
X131274735Y11685231D02*
X131168446Y11691611D01*
X131168446Y11691611D02*
X131103398Y11674181D01*
X131103398Y11674181D02*
X131014539Y11615512D01*
X131014539Y11615512D02*
X130919301Y11450555D01*
X130919301Y11450555D02*
X130912921Y11344267D01*
X130912921Y11344267D02*
X130930351Y11279218D01*
X130930351Y11279218D02*
X130989020Y11190359D01*
X130989020Y11190359D02*
X131030260Y11166550D01*
X131030260Y11166550D02*
X131136548Y11160170D01*
X131136548Y11160170D02*
X131201597Y11177600D01*
X131201597Y11177600D02*
X131290455Y11236269D01*
X131290455Y11236269D02*
X131385693Y11401226D01*
X131385693Y11401226D02*
X131474551Y11459895D01*
X131474551Y11459895D02*
X131539600Y11477325D01*
X131539600Y11477325D02*
X131645888Y11470945D01*
X131645888Y11470945D02*
X131810846Y11375707D01*
X131810846Y11375707D02*
X131869515Y11286849D01*
X131869515Y11286849D02*
X131886944Y11221800D01*
X131886944Y11221800D02*
X131880565Y11115512D01*
X131880565Y11115512D02*
X131785327Y10950555D01*
X131785327Y10950555D02*
X131696468Y10891886D01*
X131696468Y10891886D02*
X131631419Y10874456D01*
X131631419Y10874456D02*
X131525131Y10880836D01*
X131525131Y10880836D02*
X131360174Y10976074D01*
X131360174Y10976074D02*
X131301505Y11064932D01*
X131301505Y11064932D02*
X131284075Y11129981D01*
X131284075Y11129981D02*
X131290455Y11236269D01*
X31126523Y17563300D02*
X30983666Y17515681D01*
X30983666Y17515681D02*
X30745571Y17515681D01*
X30745571Y17515681D02*
X30650333Y17563300D01*
X30650333Y17563300D02*
X30602714Y17610920D01*
X30602714Y17610920D02*
X30555095Y17706158D01*
X30555095Y17706158D02*
X30555095Y17801396D01*
X30555095Y17801396D02*
X30602714Y17896634D01*
X30602714Y17896634D02*
X30650333Y17944253D01*
X30650333Y17944253D02*
X30745571Y17991872D01*
X30745571Y17991872D02*
X30936047Y18039491D01*
X30936047Y18039491D02*
X31031285Y18087110D01*
X31031285Y18087110D02*
X31078904Y18134729D01*
X31078904Y18134729D02*
X31126523Y18229967D01*
X31126523Y18229967D02*
X31126523Y18325205D01*
X31126523Y18325205D02*
X31078904Y18420443D01*
X31078904Y18420443D02*
X31031285Y18468062D01*
X31031285Y18468062D02*
X30936047Y18515681D01*
X30936047Y18515681D02*
X30697952Y18515681D01*
X30697952Y18515681D02*
X30555095Y18468062D01*
X30221761Y18515681D02*
X29983666Y17515681D01*
X29983666Y17515681D02*
X29793190Y18229967D01*
X29793190Y18229967D02*
X29602714Y17515681D01*
X29602714Y17515681D02*
X29364619Y18515681D01*
X29078904Y18515681D02*
X28459857Y18515681D01*
X28459857Y18515681D02*
X28793190Y18134729D01*
X28793190Y18134729D02*
X28650333Y18134729D01*
X28650333Y18134729D02*
X28555095Y18087110D01*
X28555095Y18087110D02*
X28507476Y18039491D01*
X28507476Y18039491D02*
X28459857Y17944253D01*
X28459857Y17944253D02*
X28459857Y17706158D01*
X28459857Y17706158D02*
X28507476Y17610920D01*
X28507476Y17610920D02*
X28555095Y17563300D01*
X28555095Y17563300D02*
X28650333Y17515681D01*
X28650333Y17515681D02*
X28936047Y17515681D01*
X28936047Y17515681D02*
X29031285Y17563300D01*
X29031285Y17563300D02*
X29078904Y17610920D01*
X27507476Y17515681D02*
X28078904Y17515681D01*
X27793190Y17515681D02*
X27793190Y18515681D01*
X27793190Y18515681D02*
X27888428Y18372824D01*
X27888428Y18372824D02*
X27983666Y18277586D01*
X27983666Y18277586D02*
X28078904Y18229967D01*
X91622441Y15639294D02*
X91592252Y15491767D01*
X91592252Y15491767D02*
X91473204Y15285570D01*
X91473204Y15285570D02*
X91384346Y15226901D01*
X91384346Y15226901D02*
X91319297Y15209471D01*
X91319297Y15209471D02*
X91213009Y15215851D01*
X91213009Y15215851D02*
X91130530Y15263470D01*
X91130530Y15263470D02*
X91071861Y15352328D01*
X91071861Y15352328D02*
X91054431Y15417377D01*
X91054431Y15417377D02*
X91060811Y15523665D01*
X91060811Y15523665D02*
X91114810Y15712432D01*
X91114810Y15712432D02*
X91121190Y15818720D01*
X91121190Y15818720D02*
X91103760Y15883769D01*
X91103760Y15883769D02*
X91045091Y15972627D01*
X91045091Y15972627D02*
X90962612Y16020246D01*
X90962612Y16020246D02*
X90856324Y16026626D01*
X90856324Y16026626D02*
X90791275Y16009196D01*
X90791275Y16009196D02*
X90702417Y15950527D01*
X90702417Y15950527D02*
X90583369Y15744331D01*
X90583369Y15744331D02*
X90553180Y15596803D01*
X90345274Y15331938D02*
X91092252Y14625741D01*
X91092252Y14625741D02*
X90378424Y14817927D01*
X90378424Y14817927D02*
X90901775Y14295827D01*
X90901775Y14295827D02*
X89916702Y14589630D01*
X89773845Y14342195D02*
X89464322Y13806084D01*
X89464322Y13806084D02*
X89960903Y13904283D01*
X89960903Y13904283D02*
X89889474Y13780565D01*
X89889474Y13780565D02*
X89883094Y13674276D01*
X89883094Y13674276D02*
X89900524Y13609228D01*
X89900524Y13609228D02*
X89959193Y13520369D01*
X89959193Y13520369D02*
X90165390Y13401322D01*
X90165390Y13401322D02*
X90271678Y13394942D01*
X90271678Y13394942D02*
X90336727Y13412372D01*
X90336727Y13412372D02*
X90425585Y13471041D01*
X90425585Y13471041D02*
X90568442Y13718477D01*
X90568442Y13718477D02*
X90574822Y13824765D01*
X90574822Y13824765D02*
X90557392Y13889814D01*
X89324425Y12897109D02*
X89901776Y12563776D01*
X89113558Y13293782D02*
X89851196Y13142836D01*
X89851196Y13142836D02*
X89541672Y12606725D01*
X123933373Y-2554406D02*
X123903184Y-2701933D01*
X123903184Y-2701933D02*
X123784136Y-2908130D01*
X123784136Y-2908130D02*
X123695278Y-2966799D01*
X123695278Y-2966799D02*
X123630229Y-2984229D01*
X123630229Y-2984229D02*
X123523941Y-2977849D01*
X123523941Y-2977849D02*
X123441462Y-2930230D01*
X123441462Y-2930230D02*
X123382793Y-2841372D01*
X123382793Y-2841372D02*
X123365363Y-2776323D01*
X123365363Y-2776323D02*
X123371743Y-2670035D01*
X123371743Y-2670035D02*
X123425742Y-2481268D01*
X123425742Y-2481268D02*
X123432122Y-2374980D01*
X123432122Y-2374980D02*
X123414692Y-2309931D01*
X123414692Y-2309931D02*
X123356023Y-2221073D01*
X123356023Y-2221073D02*
X123273544Y-2173454D01*
X123273544Y-2173454D02*
X123167256Y-2167074D01*
X123167256Y-2167074D02*
X123102207Y-2184504D01*
X123102207Y-2184504D02*
X123013349Y-2243173D01*
X123013349Y-2243173D02*
X122894301Y-2449369D01*
X122894301Y-2449369D02*
X122864112Y-2596897D01*
X122656206Y-2861762D02*
X123403184Y-3567959D01*
X123403184Y-3567959D02*
X122689356Y-3375773D01*
X122689356Y-3375773D02*
X123212707Y-3897873D01*
X123212707Y-3897873D02*
X122227634Y-3604070D01*
X122084777Y-3851505D02*
X121775254Y-4387616D01*
X121775254Y-4387616D02*
X122271835Y-4289417D01*
X122271835Y-4289417D02*
X122200406Y-4413135D01*
X122200406Y-4413135D02*
X122194026Y-4519424D01*
X122194026Y-4519424D02*
X122211456Y-4584472D01*
X122211456Y-4584472D02*
X122270125Y-4673331D01*
X122270125Y-4673331D02*
X122476322Y-4792378D01*
X122476322Y-4792378D02*
X122582610Y-4798758D01*
X122582610Y-4798758D02*
X122647659Y-4781328D01*
X122647659Y-4781328D02*
X122736517Y-4722659D01*
X122736517Y-4722659D02*
X122879374Y-4475223D01*
X122879374Y-4475223D02*
X122885754Y-4368935D01*
X122885754Y-4368935D02*
X122868324Y-4303886D01*
X121322873Y-5171163D02*
X121560968Y-4758770D01*
X121560968Y-4758770D02*
X121997170Y-4955626D01*
X121997170Y-4955626D02*
X121932122Y-4973056D01*
X121932122Y-4973056D02*
X121843263Y-5031725D01*
X121843263Y-5031725D02*
X121724216Y-5237922D01*
X121724216Y-5237922D02*
X121717836Y-5344210D01*
X121717836Y-5344210D02*
X121735266Y-5409259D01*
X121735266Y-5409259D02*
X121793935Y-5498117D01*
X121793935Y-5498117D02*
X122000131Y-5617164D01*
X122000131Y-5617164D02*
X122106419Y-5623544D01*
X122106419Y-5623544D02*
X122171468Y-5606114D01*
X122171468Y-5606114D02*
X122260327Y-5547445D01*
X122260327Y-5547445D02*
X122379374Y-5341249D01*
X122379374Y-5341249D02*
X122385754Y-5234961D01*
X122385754Y-5234961D02*
X122368324Y-5169912D01*
X145066373Y-3811506D02*
X145036184Y-3959033D01*
X145036184Y-3959033D02*
X144917136Y-4165230D01*
X144917136Y-4165230D02*
X144828278Y-4223899D01*
X144828278Y-4223899D02*
X144763229Y-4241329D01*
X144763229Y-4241329D02*
X144656941Y-4234949D01*
X144656941Y-4234949D02*
X144574462Y-4187330D01*
X144574462Y-4187330D02*
X144515793Y-4098472D01*
X144515793Y-4098472D02*
X144498363Y-4033423D01*
X144498363Y-4033423D02*
X144504743Y-3927135D01*
X144504743Y-3927135D02*
X144558742Y-3738368D01*
X144558742Y-3738368D02*
X144565122Y-3632080D01*
X144565122Y-3632080D02*
X144547692Y-3567031D01*
X144547692Y-3567031D02*
X144489023Y-3478173D01*
X144489023Y-3478173D02*
X144406544Y-3430554D01*
X144406544Y-3430554D02*
X144300256Y-3424174D01*
X144300256Y-3424174D02*
X144235207Y-3441604D01*
X144235207Y-3441604D02*
X144146349Y-3500273D01*
X144146349Y-3500273D02*
X144027301Y-3706469D01*
X144027301Y-3706469D02*
X143997112Y-3853997D01*
X143789206Y-4118862D02*
X144536184Y-4825059D01*
X144536184Y-4825059D02*
X143822356Y-4632873D01*
X143822356Y-4632873D02*
X144345707Y-5154973D01*
X144345707Y-5154973D02*
X143360634Y-4861170D01*
X143244548Y-5728904D02*
X143821898Y-6062238D01*
X143033681Y-5332232D02*
X143771318Y-5483178D01*
X143771318Y-5483178D02*
X143461794Y-6019289D01*
X143298088Y-6969503D02*
X143583803Y-6474631D01*
X143440946Y-6722067D02*
X142574920Y-6222067D01*
X142574920Y-6222067D02*
X142746257Y-6211017D01*
X142746257Y-6211017D02*
X142876355Y-6176157D01*
X142876355Y-6176157D02*
X142965213Y-6117488D01*
X11600332Y93763300D02*
X11457475Y93715681D01*
X11457475Y93715681D02*
X11219380Y93715681D01*
X11219380Y93715681D02*
X11124142Y93763300D01*
X11124142Y93763300D02*
X11076523Y93810920D01*
X11076523Y93810920D02*
X11028904Y93906158D01*
X11028904Y93906158D02*
X11028904Y94001396D01*
X11028904Y94001396D02*
X11076523Y94096634D01*
X11076523Y94096634D02*
X11124142Y94144253D01*
X11124142Y94144253D02*
X11219380Y94191872D01*
X11219380Y94191872D02*
X11409856Y94239491D01*
X11409856Y94239491D02*
X11505094Y94287110D01*
X11505094Y94287110D02*
X11552713Y94334729D01*
X11552713Y94334729D02*
X11600332Y94429967D01*
X11600332Y94429967D02*
X11600332Y94525205D01*
X11600332Y94525205D02*
X11552713Y94620443D01*
X11552713Y94620443D02*
X11505094Y94668062D01*
X11505094Y94668062D02*
X11409856Y94715681D01*
X11409856Y94715681D02*
X11171761Y94715681D01*
X11171761Y94715681D02*
X11028904Y94668062D01*
X10695570Y94715681D02*
X10457475Y93715681D01*
X10457475Y93715681D02*
X10266999Y94429967D01*
X10266999Y94429967D02*
X10076523Y93715681D01*
X10076523Y93715681D02*
X9838428Y94715681D01*
X8933666Y93715681D02*
X9505094Y93715681D01*
X9219380Y93715681D02*
X9219380Y94715681D01*
X9219380Y94715681D02*
X9314618Y94572824D01*
X9314618Y94572824D02*
X9409856Y94477586D01*
X9409856Y94477586D02*
X9505094Y94429967D01*
X11600332Y74713300D02*
X11457475Y74665681D01*
X11457475Y74665681D02*
X11219380Y74665681D01*
X11219380Y74665681D02*
X11124142Y74713300D01*
X11124142Y74713300D02*
X11076523Y74760920D01*
X11076523Y74760920D02*
X11028904Y74856158D01*
X11028904Y74856158D02*
X11028904Y74951396D01*
X11028904Y74951396D02*
X11076523Y75046634D01*
X11076523Y75046634D02*
X11124142Y75094253D01*
X11124142Y75094253D02*
X11219380Y75141872D01*
X11219380Y75141872D02*
X11409856Y75189491D01*
X11409856Y75189491D02*
X11505094Y75237110D01*
X11505094Y75237110D02*
X11552713Y75284729D01*
X11552713Y75284729D02*
X11600332Y75379967D01*
X11600332Y75379967D02*
X11600332Y75475205D01*
X11600332Y75475205D02*
X11552713Y75570443D01*
X11552713Y75570443D02*
X11505094Y75618062D01*
X11505094Y75618062D02*
X11409856Y75665681D01*
X11409856Y75665681D02*
X11171761Y75665681D01*
X11171761Y75665681D02*
X11028904Y75618062D01*
X10695570Y75665681D02*
X10457475Y74665681D01*
X10457475Y74665681D02*
X10266999Y75379967D01*
X10266999Y75379967D02*
X10076523Y74665681D01*
X10076523Y74665681D02*
X9838428Y75665681D01*
X9505094Y75570443D02*
X9457475Y75618062D01*
X9457475Y75618062D02*
X9362237Y75665681D01*
X9362237Y75665681D02*
X9124142Y75665681D01*
X9124142Y75665681D02*
X9028904Y75618062D01*
X9028904Y75618062D02*
X8981285Y75570443D01*
X8981285Y75570443D02*
X8933666Y75475205D01*
X8933666Y75475205D02*
X8933666Y75379967D01*
X8933666Y75379967D02*
X8981285Y75237110D01*
X8981285Y75237110D02*
X9552713Y74665681D01*
X9552713Y74665681D02*
X8933666Y74665681D01*
X11600332Y55663300D02*
X11457475Y55615681D01*
X11457475Y55615681D02*
X11219380Y55615681D01*
X11219380Y55615681D02*
X11124142Y55663300D01*
X11124142Y55663300D02*
X11076523Y55710920D01*
X11076523Y55710920D02*
X11028904Y55806158D01*
X11028904Y55806158D02*
X11028904Y55901396D01*
X11028904Y55901396D02*
X11076523Y55996634D01*
X11076523Y55996634D02*
X11124142Y56044253D01*
X11124142Y56044253D02*
X11219380Y56091872D01*
X11219380Y56091872D02*
X11409856Y56139491D01*
X11409856Y56139491D02*
X11505094Y56187110D01*
X11505094Y56187110D02*
X11552713Y56234729D01*
X11552713Y56234729D02*
X11600332Y56329967D01*
X11600332Y56329967D02*
X11600332Y56425205D01*
X11600332Y56425205D02*
X11552713Y56520443D01*
X11552713Y56520443D02*
X11505094Y56568062D01*
X11505094Y56568062D02*
X11409856Y56615681D01*
X11409856Y56615681D02*
X11171761Y56615681D01*
X11171761Y56615681D02*
X11028904Y56568062D01*
X10695570Y56615681D02*
X10457475Y55615681D01*
X10457475Y55615681D02*
X10266999Y56329967D01*
X10266999Y56329967D02*
X10076523Y55615681D01*
X10076523Y55615681D02*
X9838428Y56615681D01*
X9552713Y56615681D02*
X8933666Y56615681D01*
X8933666Y56615681D02*
X9266999Y56234729D01*
X9266999Y56234729D02*
X9124142Y56234729D01*
X9124142Y56234729D02*
X9028904Y56187110D01*
X9028904Y56187110D02*
X8981285Y56139491D01*
X8981285Y56139491D02*
X8933666Y56044253D01*
X8933666Y56044253D02*
X8933666Y55806158D01*
X8933666Y55806158D02*
X8981285Y55710920D01*
X8981285Y55710920D02*
X9028904Y55663300D01*
X9028904Y55663300D02*
X9124142Y55615681D01*
X9124142Y55615681D02*
X9409856Y55615681D01*
X9409856Y55615681D02*
X9505094Y55663300D01*
X9505094Y55663300D02*
X9552713Y55710920D01*
X11600332Y36613300D02*
X11457475Y36565681D01*
X11457475Y36565681D02*
X11219380Y36565681D01*
X11219380Y36565681D02*
X11124142Y36613300D01*
X11124142Y36613300D02*
X11076523Y36660920D01*
X11076523Y36660920D02*
X11028904Y36756158D01*
X11028904Y36756158D02*
X11028904Y36851396D01*
X11028904Y36851396D02*
X11076523Y36946634D01*
X11076523Y36946634D02*
X11124142Y36994253D01*
X11124142Y36994253D02*
X11219380Y37041872D01*
X11219380Y37041872D02*
X11409856Y37089491D01*
X11409856Y37089491D02*
X11505094Y37137110D01*
X11505094Y37137110D02*
X11552713Y37184729D01*
X11552713Y37184729D02*
X11600332Y37279967D01*
X11600332Y37279967D02*
X11600332Y37375205D01*
X11600332Y37375205D02*
X11552713Y37470443D01*
X11552713Y37470443D02*
X11505094Y37518062D01*
X11505094Y37518062D02*
X11409856Y37565681D01*
X11409856Y37565681D02*
X11171761Y37565681D01*
X11171761Y37565681D02*
X11028904Y37518062D01*
X10695570Y37565681D02*
X10457475Y36565681D01*
X10457475Y36565681D02*
X10266999Y37279967D01*
X10266999Y37279967D02*
X10076523Y36565681D01*
X10076523Y36565681D02*
X9838428Y37565681D01*
X9028904Y37232348D02*
X9028904Y36565681D01*
X9266999Y37613300D02*
X9505094Y36899015D01*
X9505094Y36899015D02*
X8886047Y36899015D01*
X49700332Y98525800D02*
X49557475Y98478181D01*
X49557475Y98478181D02*
X49319380Y98478181D01*
X49319380Y98478181D02*
X49224142Y98525800D01*
X49224142Y98525800D02*
X49176523Y98573420D01*
X49176523Y98573420D02*
X49128904Y98668658D01*
X49128904Y98668658D02*
X49128904Y98763896D01*
X49128904Y98763896D02*
X49176523Y98859134D01*
X49176523Y98859134D02*
X49224142Y98906753D01*
X49224142Y98906753D02*
X49319380Y98954372D01*
X49319380Y98954372D02*
X49509856Y99001991D01*
X49509856Y99001991D02*
X49605094Y99049610D01*
X49605094Y99049610D02*
X49652713Y99097229D01*
X49652713Y99097229D02*
X49700332Y99192467D01*
X49700332Y99192467D02*
X49700332Y99287705D01*
X49700332Y99287705D02*
X49652713Y99382943D01*
X49652713Y99382943D02*
X49605094Y99430562D01*
X49605094Y99430562D02*
X49509856Y99478181D01*
X49509856Y99478181D02*
X49271761Y99478181D01*
X49271761Y99478181D02*
X49128904Y99430562D01*
X48795570Y99478181D02*
X48557475Y98478181D01*
X48557475Y98478181D02*
X48366999Y99192467D01*
X48366999Y99192467D02*
X48176523Y98478181D01*
X48176523Y98478181D02*
X47938428Y99478181D01*
X47509856Y98478181D02*
X47319380Y98478181D01*
X47319380Y98478181D02*
X47224142Y98525800D01*
X47224142Y98525800D02*
X47176523Y98573420D01*
X47176523Y98573420D02*
X47081285Y98716277D01*
X47081285Y98716277D02*
X47033666Y98906753D01*
X47033666Y98906753D02*
X47033666Y99287705D01*
X47033666Y99287705D02*
X47081285Y99382943D01*
X47081285Y99382943D02*
X47128904Y99430562D01*
X47128904Y99430562D02*
X47224142Y99478181D01*
X47224142Y99478181D02*
X47414618Y99478181D01*
X47414618Y99478181D02*
X47509856Y99430562D01*
X47509856Y99430562D02*
X47557475Y99382943D01*
X47557475Y99382943D02*
X47605094Y99287705D01*
X47605094Y99287705D02*
X47605094Y99049610D01*
X47605094Y99049610D02*
X47557475Y98954372D01*
X47557475Y98954372D02*
X47509856Y98906753D01*
X47509856Y98906753D02*
X47414618Y98859134D01*
X47414618Y98859134D02*
X47224142Y98859134D01*
X47224142Y98859134D02*
X47128904Y98906753D01*
X47128904Y98906753D02*
X47081285Y98954372D01*
X47081285Y98954372D02*
X47033666Y99049610D01*
X50176523Y79475800D02*
X50033666Y79428181D01*
X50033666Y79428181D02*
X49795571Y79428181D01*
X49795571Y79428181D02*
X49700333Y79475800D01*
X49700333Y79475800D02*
X49652714Y79523420D01*
X49652714Y79523420D02*
X49605095Y79618658D01*
X49605095Y79618658D02*
X49605095Y79713896D01*
X49605095Y79713896D02*
X49652714Y79809134D01*
X49652714Y79809134D02*
X49700333Y79856753D01*
X49700333Y79856753D02*
X49795571Y79904372D01*
X49795571Y79904372D02*
X49986047Y79951991D01*
X49986047Y79951991D02*
X50081285Y79999610D01*
X50081285Y79999610D02*
X50128904Y80047229D01*
X50128904Y80047229D02*
X50176523Y80142467D01*
X50176523Y80142467D02*
X50176523Y80237705D01*
X50176523Y80237705D02*
X50128904Y80332943D01*
X50128904Y80332943D02*
X50081285Y80380562D01*
X50081285Y80380562D02*
X49986047Y80428181D01*
X49986047Y80428181D02*
X49747952Y80428181D01*
X49747952Y80428181D02*
X49605095Y80380562D01*
X49271761Y80428181D02*
X49033666Y79428181D01*
X49033666Y79428181D02*
X48843190Y80142467D01*
X48843190Y80142467D02*
X48652714Y79428181D01*
X48652714Y79428181D02*
X48414619Y80428181D01*
X47509857Y79428181D02*
X48081285Y79428181D01*
X47795571Y79428181D02*
X47795571Y80428181D01*
X47795571Y80428181D02*
X47890809Y80285324D01*
X47890809Y80285324D02*
X47986047Y80190086D01*
X47986047Y80190086D02*
X48081285Y80142467D01*
X46890809Y80428181D02*
X46795571Y80428181D01*
X46795571Y80428181D02*
X46700333Y80380562D01*
X46700333Y80380562D02*
X46652714Y80332943D01*
X46652714Y80332943D02*
X46605095Y80237705D01*
X46605095Y80237705D02*
X46557476Y80047229D01*
X46557476Y80047229D02*
X46557476Y79809134D01*
X46557476Y79809134D02*
X46605095Y79618658D01*
X46605095Y79618658D02*
X46652714Y79523420D01*
X46652714Y79523420D02*
X46700333Y79475800D01*
X46700333Y79475800D02*
X46795571Y79428181D01*
X46795571Y79428181D02*
X46890809Y79428181D01*
X46890809Y79428181D02*
X46986047Y79475800D01*
X46986047Y79475800D02*
X47033666Y79523420D01*
X47033666Y79523420D02*
X47081285Y79618658D01*
X47081285Y79618658D02*
X47128904Y79809134D01*
X47128904Y79809134D02*
X47128904Y80047229D01*
X47128904Y80047229D02*
X47081285Y80237705D01*
X47081285Y80237705D02*
X47033666Y80332943D01*
X47033666Y80332943D02*
X46986047Y80380562D01*
X46986047Y80380562D02*
X46890809Y80428181D01*
X50176523Y60425800D02*
X50033666Y60378181D01*
X50033666Y60378181D02*
X49795571Y60378181D01*
X49795571Y60378181D02*
X49700333Y60425800D01*
X49700333Y60425800D02*
X49652714Y60473420D01*
X49652714Y60473420D02*
X49605095Y60568658D01*
X49605095Y60568658D02*
X49605095Y60663896D01*
X49605095Y60663896D02*
X49652714Y60759134D01*
X49652714Y60759134D02*
X49700333Y60806753D01*
X49700333Y60806753D02*
X49795571Y60854372D01*
X49795571Y60854372D02*
X49986047Y60901991D01*
X49986047Y60901991D02*
X50081285Y60949610D01*
X50081285Y60949610D02*
X50128904Y60997229D01*
X50128904Y60997229D02*
X50176523Y61092467D01*
X50176523Y61092467D02*
X50176523Y61187705D01*
X50176523Y61187705D02*
X50128904Y61282943D01*
X50128904Y61282943D02*
X50081285Y61330562D01*
X50081285Y61330562D02*
X49986047Y61378181D01*
X49986047Y61378181D02*
X49747952Y61378181D01*
X49747952Y61378181D02*
X49605095Y61330562D01*
X49271761Y61378181D02*
X49033666Y60378181D01*
X49033666Y60378181D02*
X48843190Y61092467D01*
X48843190Y61092467D02*
X48652714Y60378181D01*
X48652714Y60378181D02*
X48414619Y61378181D01*
X47509857Y60378181D02*
X48081285Y60378181D01*
X47795571Y60378181D02*
X47795571Y61378181D01*
X47795571Y61378181D02*
X47890809Y61235324D01*
X47890809Y61235324D02*
X47986047Y61140086D01*
X47986047Y61140086D02*
X48081285Y61092467D01*
X46557476Y60378181D02*
X47128904Y60378181D01*
X46843190Y60378181D02*
X46843190Y61378181D01*
X46843190Y61378181D02*
X46938428Y61235324D01*
X46938428Y61235324D02*
X47033666Y61140086D01*
X47033666Y61140086D02*
X47128904Y61092467D01*
X107326523Y77094600D02*
X107183666Y77046981D01*
X107183666Y77046981D02*
X106945571Y77046981D01*
X106945571Y77046981D02*
X106850333Y77094600D01*
X106850333Y77094600D02*
X106802714Y77142220D01*
X106802714Y77142220D02*
X106755095Y77237458D01*
X106755095Y77237458D02*
X106755095Y77332696D01*
X106755095Y77332696D02*
X106802714Y77427934D01*
X106802714Y77427934D02*
X106850333Y77475553D01*
X106850333Y77475553D02*
X106945571Y77523172D01*
X106945571Y77523172D02*
X107136047Y77570791D01*
X107136047Y77570791D02*
X107231285Y77618410D01*
X107231285Y77618410D02*
X107278904Y77666029D01*
X107278904Y77666029D02*
X107326523Y77761267D01*
X107326523Y77761267D02*
X107326523Y77856505D01*
X107326523Y77856505D02*
X107278904Y77951743D01*
X107278904Y77951743D02*
X107231285Y77999362D01*
X107231285Y77999362D02*
X107136047Y78046981D01*
X107136047Y78046981D02*
X106897952Y78046981D01*
X106897952Y78046981D02*
X106755095Y77999362D01*
X106421761Y78046981D02*
X106183666Y77046981D01*
X106183666Y77046981D02*
X105993190Y77761267D01*
X105993190Y77761267D02*
X105802714Y77046981D01*
X105802714Y77046981D02*
X105564619Y78046981D01*
X105231285Y77951743D02*
X105183666Y77999362D01*
X105183666Y77999362D02*
X105088428Y78046981D01*
X105088428Y78046981D02*
X104850333Y78046981D01*
X104850333Y78046981D02*
X104755095Y77999362D01*
X104755095Y77999362D02*
X104707476Y77951743D01*
X104707476Y77951743D02*
X104659857Y77856505D01*
X104659857Y77856505D02*
X104659857Y77761267D01*
X104659857Y77761267D02*
X104707476Y77618410D01*
X104707476Y77618410D02*
X105278904Y77046981D01*
X105278904Y77046981D02*
X104659857Y77046981D01*
X104278904Y77951743D02*
X104231285Y77999362D01*
X104231285Y77999362D02*
X104136047Y78046981D01*
X104136047Y78046981D02*
X103897952Y78046981D01*
X103897952Y78046981D02*
X103802714Y77999362D01*
X103802714Y77999362D02*
X103755095Y77951743D01*
X103755095Y77951743D02*
X103707476Y77856505D01*
X103707476Y77856505D02*
X103707476Y77761267D01*
X103707476Y77761267D02*
X103755095Y77618410D01*
X103755095Y77618410D02*
X104326523Y77046981D01*
X104326523Y77046981D02*
X103707476Y77046981D01*
X107326523Y58044600D02*
X107183666Y57996981D01*
X107183666Y57996981D02*
X106945571Y57996981D01*
X106945571Y57996981D02*
X106850333Y58044600D01*
X106850333Y58044600D02*
X106802714Y58092220D01*
X106802714Y58092220D02*
X106755095Y58187458D01*
X106755095Y58187458D02*
X106755095Y58282696D01*
X106755095Y58282696D02*
X106802714Y58377934D01*
X106802714Y58377934D02*
X106850333Y58425553D01*
X106850333Y58425553D02*
X106945571Y58473172D01*
X106945571Y58473172D02*
X107136047Y58520791D01*
X107136047Y58520791D02*
X107231285Y58568410D01*
X107231285Y58568410D02*
X107278904Y58616029D01*
X107278904Y58616029D02*
X107326523Y58711267D01*
X107326523Y58711267D02*
X107326523Y58806505D01*
X107326523Y58806505D02*
X107278904Y58901743D01*
X107278904Y58901743D02*
X107231285Y58949362D01*
X107231285Y58949362D02*
X107136047Y58996981D01*
X107136047Y58996981D02*
X106897952Y58996981D01*
X106897952Y58996981D02*
X106755095Y58949362D01*
X106421761Y58996981D02*
X106183666Y57996981D01*
X106183666Y57996981D02*
X105993190Y58711267D01*
X105993190Y58711267D02*
X105802714Y57996981D01*
X105802714Y57996981D02*
X105564619Y58996981D01*
X105231285Y58901743D02*
X105183666Y58949362D01*
X105183666Y58949362D02*
X105088428Y58996981D01*
X105088428Y58996981D02*
X104850333Y58996981D01*
X104850333Y58996981D02*
X104755095Y58949362D01*
X104755095Y58949362D02*
X104707476Y58901743D01*
X104707476Y58901743D02*
X104659857Y58806505D01*
X104659857Y58806505D02*
X104659857Y58711267D01*
X104659857Y58711267D02*
X104707476Y58568410D01*
X104707476Y58568410D02*
X105278904Y57996981D01*
X105278904Y57996981D02*
X104659857Y57996981D01*
X104326523Y58996981D02*
X103707476Y58996981D01*
X103707476Y58996981D02*
X104040809Y58616029D01*
X104040809Y58616029D02*
X103897952Y58616029D01*
X103897952Y58616029D02*
X103802714Y58568410D01*
X103802714Y58568410D02*
X103755095Y58520791D01*
X103755095Y58520791D02*
X103707476Y58425553D01*
X103707476Y58425553D02*
X103707476Y58187458D01*
X103707476Y58187458D02*
X103755095Y58092220D01*
X103755095Y58092220D02*
X103802714Y58044600D01*
X103802714Y58044600D02*
X103897952Y57996981D01*
X103897952Y57996981D02*
X104183666Y57996981D01*
X104183666Y57996981D02*
X104278904Y58044600D01*
X104278904Y58044600D02*
X104326523Y58092220D01*
X107326523Y38994600D02*
X107183666Y38946981D01*
X107183666Y38946981D02*
X106945571Y38946981D01*
X106945571Y38946981D02*
X106850333Y38994600D01*
X106850333Y38994600D02*
X106802714Y39042220D01*
X106802714Y39042220D02*
X106755095Y39137458D01*
X106755095Y39137458D02*
X106755095Y39232696D01*
X106755095Y39232696D02*
X106802714Y39327934D01*
X106802714Y39327934D02*
X106850333Y39375553D01*
X106850333Y39375553D02*
X106945571Y39423172D01*
X106945571Y39423172D02*
X107136047Y39470791D01*
X107136047Y39470791D02*
X107231285Y39518410D01*
X107231285Y39518410D02*
X107278904Y39566029D01*
X107278904Y39566029D02*
X107326523Y39661267D01*
X107326523Y39661267D02*
X107326523Y39756505D01*
X107326523Y39756505D02*
X107278904Y39851743D01*
X107278904Y39851743D02*
X107231285Y39899362D01*
X107231285Y39899362D02*
X107136047Y39946981D01*
X107136047Y39946981D02*
X106897952Y39946981D01*
X106897952Y39946981D02*
X106755095Y39899362D01*
X106421761Y39946981D02*
X106183666Y38946981D01*
X106183666Y38946981D02*
X105993190Y39661267D01*
X105993190Y39661267D02*
X105802714Y38946981D01*
X105802714Y38946981D02*
X105564619Y39946981D01*
X105231285Y39851743D02*
X105183666Y39899362D01*
X105183666Y39899362D02*
X105088428Y39946981D01*
X105088428Y39946981D02*
X104850333Y39946981D01*
X104850333Y39946981D02*
X104755095Y39899362D01*
X104755095Y39899362D02*
X104707476Y39851743D01*
X104707476Y39851743D02*
X104659857Y39756505D01*
X104659857Y39756505D02*
X104659857Y39661267D01*
X104659857Y39661267D02*
X104707476Y39518410D01*
X104707476Y39518410D02*
X105278904Y38946981D01*
X105278904Y38946981D02*
X104659857Y38946981D01*
X103802714Y39613648D02*
X103802714Y38946981D01*
X104040809Y39994600D02*
X104278904Y39280315D01*
X104278904Y39280315D02*
X103659857Y39280315D01*
X12076523Y17563300D02*
X11933666Y17515681D01*
X11933666Y17515681D02*
X11695571Y17515681D01*
X11695571Y17515681D02*
X11600333Y17563300D01*
X11600333Y17563300D02*
X11552714Y17610920D01*
X11552714Y17610920D02*
X11505095Y17706158D01*
X11505095Y17706158D02*
X11505095Y17801396D01*
X11505095Y17801396D02*
X11552714Y17896634D01*
X11552714Y17896634D02*
X11600333Y17944253D01*
X11600333Y17944253D02*
X11695571Y17991872D01*
X11695571Y17991872D02*
X11886047Y18039491D01*
X11886047Y18039491D02*
X11981285Y18087110D01*
X11981285Y18087110D02*
X12028904Y18134729D01*
X12028904Y18134729D02*
X12076523Y18229967D01*
X12076523Y18229967D02*
X12076523Y18325205D01*
X12076523Y18325205D02*
X12028904Y18420443D01*
X12028904Y18420443D02*
X11981285Y18468062D01*
X11981285Y18468062D02*
X11886047Y18515681D01*
X11886047Y18515681D02*
X11647952Y18515681D01*
X11647952Y18515681D02*
X11505095Y18468062D01*
X11171761Y18515681D02*
X10933666Y17515681D01*
X10933666Y17515681D02*
X10743190Y18229967D01*
X10743190Y18229967D02*
X10552714Y17515681D01*
X10552714Y17515681D02*
X10314619Y18515681D01*
X10028904Y18515681D02*
X9409857Y18515681D01*
X9409857Y18515681D02*
X9743190Y18134729D01*
X9743190Y18134729D02*
X9600333Y18134729D01*
X9600333Y18134729D02*
X9505095Y18087110D01*
X9505095Y18087110D02*
X9457476Y18039491D01*
X9457476Y18039491D02*
X9409857Y17944253D01*
X9409857Y17944253D02*
X9409857Y17706158D01*
X9409857Y17706158D02*
X9457476Y17610920D01*
X9457476Y17610920D02*
X9505095Y17563300D01*
X9505095Y17563300D02*
X9600333Y17515681D01*
X9600333Y17515681D02*
X9886047Y17515681D01*
X9886047Y17515681D02*
X9981285Y17563300D01*
X9981285Y17563300D02*
X10028904Y17610920D01*
X8790809Y18515681D02*
X8695571Y18515681D01*
X8695571Y18515681D02*
X8600333Y18468062D01*
X8600333Y18468062D02*
X8552714Y18420443D01*
X8552714Y18420443D02*
X8505095Y18325205D01*
X8505095Y18325205D02*
X8457476Y18134729D01*
X8457476Y18134729D02*
X8457476Y17896634D01*
X8457476Y17896634D02*
X8505095Y17706158D01*
X8505095Y17706158D02*
X8552714Y17610920D01*
X8552714Y17610920D02*
X8600333Y17563300D01*
X8600333Y17563300D02*
X8695571Y17515681D01*
X8695571Y17515681D02*
X8790809Y17515681D01*
X8790809Y17515681D02*
X8886047Y17563300D01*
X8886047Y17563300D02*
X8933666Y17610920D01*
X8933666Y17610920D02*
X8981285Y17706158D01*
X8981285Y17706158D02*
X9028904Y17896634D01*
X9028904Y17896634D02*
X9028904Y18134729D01*
X9028904Y18134729D02*
X8981285Y18325205D01*
X8981285Y18325205D02*
X8933666Y18420443D01*
X8933666Y18420443D02*
X8886047Y18468062D01*
X8886047Y18468062D02*
X8790809Y18515681D01*
X50176523Y22325800D02*
X50033666Y22278181D01*
X50033666Y22278181D02*
X49795571Y22278181D01*
X49795571Y22278181D02*
X49700333Y22325800D01*
X49700333Y22325800D02*
X49652714Y22373420D01*
X49652714Y22373420D02*
X49605095Y22468658D01*
X49605095Y22468658D02*
X49605095Y22563896D01*
X49605095Y22563896D02*
X49652714Y22659134D01*
X49652714Y22659134D02*
X49700333Y22706753D01*
X49700333Y22706753D02*
X49795571Y22754372D01*
X49795571Y22754372D02*
X49986047Y22801991D01*
X49986047Y22801991D02*
X50081285Y22849610D01*
X50081285Y22849610D02*
X50128904Y22897229D01*
X50128904Y22897229D02*
X50176523Y22992467D01*
X50176523Y22992467D02*
X50176523Y23087705D01*
X50176523Y23087705D02*
X50128904Y23182943D01*
X50128904Y23182943D02*
X50081285Y23230562D01*
X50081285Y23230562D02*
X49986047Y23278181D01*
X49986047Y23278181D02*
X49747952Y23278181D01*
X49747952Y23278181D02*
X49605095Y23230562D01*
X49271761Y23278181D02*
X49033666Y22278181D01*
X49033666Y22278181D02*
X48843190Y22992467D01*
X48843190Y22992467D02*
X48652714Y22278181D01*
X48652714Y22278181D02*
X48414619Y23278181D01*
X48128904Y23278181D02*
X47509857Y23278181D01*
X47509857Y23278181D02*
X47843190Y22897229D01*
X47843190Y22897229D02*
X47700333Y22897229D01*
X47700333Y22897229D02*
X47605095Y22849610D01*
X47605095Y22849610D02*
X47557476Y22801991D01*
X47557476Y22801991D02*
X47509857Y22706753D01*
X47509857Y22706753D02*
X47509857Y22468658D01*
X47509857Y22468658D02*
X47557476Y22373420D01*
X47557476Y22373420D02*
X47605095Y22325800D01*
X47605095Y22325800D02*
X47700333Y22278181D01*
X47700333Y22278181D02*
X47986047Y22278181D01*
X47986047Y22278181D02*
X48081285Y22325800D01*
X48081285Y22325800D02*
X48128904Y22373420D01*
X47128904Y23182943D02*
X47081285Y23230562D01*
X47081285Y23230562D02*
X46986047Y23278181D01*
X46986047Y23278181D02*
X46747952Y23278181D01*
X46747952Y23278181D02*
X46652714Y23230562D01*
X46652714Y23230562D02*
X46605095Y23182943D01*
X46605095Y23182943D02*
X46557476Y23087705D01*
X46557476Y23087705D02*
X46557476Y22992467D01*
X46557476Y22992467D02*
X46605095Y22849610D01*
X46605095Y22849610D02*
X47176523Y22278181D01*
X47176523Y22278181D02*
X46557476Y22278181D01*
X69226523Y24707100D02*
X69083666Y24659481D01*
X69083666Y24659481D02*
X68845571Y24659481D01*
X68845571Y24659481D02*
X68750333Y24707100D01*
X68750333Y24707100D02*
X68702714Y24754720D01*
X68702714Y24754720D02*
X68655095Y24849958D01*
X68655095Y24849958D02*
X68655095Y24945196D01*
X68655095Y24945196D02*
X68702714Y25040434D01*
X68702714Y25040434D02*
X68750333Y25088053D01*
X68750333Y25088053D02*
X68845571Y25135672D01*
X68845571Y25135672D02*
X69036047Y25183291D01*
X69036047Y25183291D02*
X69131285Y25230910D01*
X69131285Y25230910D02*
X69178904Y25278529D01*
X69178904Y25278529D02*
X69226523Y25373767D01*
X69226523Y25373767D02*
X69226523Y25469005D01*
X69226523Y25469005D02*
X69178904Y25564243D01*
X69178904Y25564243D02*
X69131285Y25611862D01*
X69131285Y25611862D02*
X69036047Y25659481D01*
X69036047Y25659481D02*
X68797952Y25659481D01*
X68797952Y25659481D02*
X68655095Y25611862D01*
X68321761Y25659481D02*
X68083666Y24659481D01*
X68083666Y24659481D02*
X67893190Y25373767D01*
X67893190Y25373767D02*
X67702714Y24659481D01*
X67702714Y24659481D02*
X67464619Y25659481D01*
X67178904Y25659481D02*
X66559857Y25659481D01*
X66559857Y25659481D02*
X66893190Y25278529D01*
X66893190Y25278529D02*
X66750333Y25278529D01*
X66750333Y25278529D02*
X66655095Y25230910D01*
X66655095Y25230910D02*
X66607476Y25183291D01*
X66607476Y25183291D02*
X66559857Y25088053D01*
X66559857Y25088053D02*
X66559857Y24849958D01*
X66559857Y24849958D02*
X66607476Y24754720D01*
X66607476Y24754720D02*
X66655095Y24707100D01*
X66655095Y24707100D02*
X66750333Y24659481D01*
X66750333Y24659481D02*
X67036047Y24659481D01*
X67036047Y24659481D02*
X67131285Y24707100D01*
X67131285Y24707100D02*
X67178904Y24754720D01*
X66226523Y25659481D02*
X65607476Y25659481D01*
X65607476Y25659481D02*
X65940809Y25278529D01*
X65940809Y25278529D02*
X65797952Y25278529D01*
X65797952Y25278529D02*
X65702714Y25230910D01*
X65702714Y25230910D02*
X65655095Y25183291D01*
X65655095Y25183291D02*
X65607476Y25088053D01*
X65607476Y25088053D02*
X65607476Y24849958D01*
X65607476Y24849958D02*
X65655095Y24754720D01*
X65655095Y24754720D02*
X65702714Y24707100D01*
X65702714Y24707100D02*
X65797952Y24659481D01*
X65797952Y24659481D02*
X66083666Y24659481D01*
X66083666Y24659481D02*
X66178904Y24707100D01*
X66178904Y24707100D02*
X66226523Y24754720D01*
%TO.C,J1*%
X125580000Y87850000D02*
X125580000Y100550000D01*
X125580000Y100550000D02*
X124310000Y100550000D01*
X124310000Y100550000D02*
X124310000Y101820000D01*
X124310000Y101820000D02*
X120500000Y101820000D01*
X120500000Y100550000D02*
X119230000Y100550000D01*
X120500000Y101820000D02*
X120500000Y100550000D01*
X119230000Y87850000D02*
X125580000Y87850000D01*
X119230000Y100550000D02*
X119230000Y87850000D01*
%TO.C,U3*%
X137560400Y85240000D02*
X140100400Y85240000D01*
X137560400Y54760000D02*
X137560400Y85240000D01*
X140100400Y85240000D02*
X140100400Y54760000D01*
X140100400Y54760000D02*
X137560400Y54760000D01*
X152800400Y85240000D02*
X155340400Y85240000D01*
X152800400Y54760000D02*
X152800400Y85240000D01*
X155340400Y85240000D02*
X155340400Y54760000D01*
X155340400Y54760000D02*
X152800400Y54760000D01*
%TO.C,SW5*%
X22317000Y92280500D02*
X23317000Y92280500D01*
X22317000Y91280500D02*
X22317000Y92280500D01*
X22317000Y78280500D02*
X22317000Y79280500D01*
X23317000Y78280500D02*
X22317000Y78280500D01*
X27317000Y92980500D02*
X27817000Y93480500D01*
X27317000Y89480500D02*
X27817000Y88980500D01*
X27817000Y93480500D02*
X30817000Y93480500D01*
X27817000Y88980500D02*
X30317000Y88980500D01*
X30817000Y93480500D02*
X31317000Y92980500D01*
X31317000Y91980500D02*
X31317000Y92980500D01*
X31817000Y87480500D02*
X31817000Y86780500D01*
X31817000Y86780500D02*
X36317000Y86780500D01*
X35317000Y92280500D02*
X36317000Y92280500D01*
X36317000Y92280500D02*
X36317000Y91280500D01*
X36317000Y91480500D02*
X31817000Y91480500D01*
X36317000Y90880500D02*
X36317000Y91480500D01*
X36317000Y86780500D02*
X36317000Y87280500D01*
X36317000Y79280500D02*
X36317000Y78280500D01*
X36317000Y78280500D02*
X35317000Y78280500D01*
X30317000Y88980500D02*
G75*
G02*
X31817000Y87480500I0J-1500000D01*
G01*
X31817000Y91480500D02*
G75*
G02*
X31317000Y91980500I0J500000D01*
G01*
%TO.C,SW6*%
X22317000Y73230500D02*
X23317000Y73230500D01*
X22317000Y72230500D02*
X22317000Y73230500D01*
X22317000Y59230500D02*
X22317000Y60230500D01*
X23317000Y59230500D02*
X22317000Y59230500D01*
X27317000Y73930500D02*
X27817000Y74430500D01*
X27317000Y70430500D02*
X27817000Y69930500D01*
X27817000Y74430500D02*
X30817000Y74430500D01*
X27817000Y69930500D02*
X30317000Y69930500D01*
X30817000Y74430500D02*
X31317000Y73930500D01*
X31317000Y72930500D02*
X31317000Y73930500D01*
X31817000Y68430500D02*
X31817000Y67730500D01*
X31817000Y67730500D02*
X36317000Y67730500D01*
X35317000Y73230500D02*
X36317000Y73230500D01*
X36317000Y73230500D02*
X36317000Y72230500D01*
X36317000Y72430500D02*
X31817000Y72430500D01*
X36317000Y71830500D02*
X36317000Y72430500D01*
X36317000Y67730500D02*
X36317000Y68230500D01*
X36317000Y60230500D02*
X36317000Y59230500D01*
X36317000Y59230500D02*
X35317000Y59230500D01*
X30317000Y69930500D02*
G75*
G02*
X31817000Y68430500I0J-1500000D01*
G01*
X31817000Y72430500D02*
G75*
G02*
X31317000Y72930500I0J500000D01*
G01*
%TO.C,SW7*%
X22317000Y54180500D02*
X23317000Y54180500D01*
X22317000Y53180500D02*
X22317000Y54180500D01*
X22317000Y40180500D02*
X22317000Y41180500D01*
X23317000Y40180500D02*
X22317000Y40180500D01*
X27317000Y54880500D02*
X27817000Y55380500D01*
X27317000Y51380500D02*
X27817000Y50880500D01*
X27817000Y55380500D02*
X30817000Y55380500D01*
X27817000Y50880500D02*
X30317000Y50880500D01*
X30817000Y55380500D02*
X31317000Y54880500D01*
X31317000Y53880500D02*
X31317000Y54880500D01*
X31817000Y49380500D02*
X31817000Y48680500D01*
X31817000Y48680500D02*
X36317000Y48680500D01*
X35317000Y54180500D02*
X36317000Y54180500D01*
X36317000Y54180500D02*
X36317000Y53180500D01*
X36317000Y53380500D02*
X31817000Y53380500D01*
X36317000Y52780500D02*
X36317000Y53380500D01*
X36317000Y48680500D02*
X36317000Y49180500D01*
X36317000Y41180500D02*
X36317000Y40180500D01*
X36317000Y40180500D02*
X35317000Y40180500D01*
X30317000Y50880500D02*
G75*
G02*
X31817000Y49380500I0J-1500000D01*
G01*
X31817000Y53380500D02*
G75*
G02*
X31317000Y53880500I0J500000D01*
G01*
%TO.C,SW8*%
X22317000Y35130500D02*
X23317000Y35130500D01*
X22317000Y34130500D02*
X22317000Y35130500D01*
X22317000Y21130500D02*
X22317000Y22130500D01*
X23317000Y21130500D02*
X22317000Y21130500D01*
X27317000Y35830500D02*
X27817000Y36330500D01*
X27317000Y32330500D02*
X27817000Y31830500D01*
X27817000Y36330500D02*
X30817000Y36330500D01*
X27817000Y31830500D02*
X30317000Y31830500D01*
X30817000Y36330500D02*
X31317000Y35830500D01*
X31317000Y34830500D02*
X31317000Y35830500D01*
X31817000Y30330500D02*
X31817000Y29630500D01*
X31817000Y29630500D02*
X36317000Y29630500D01*
X35317000Y35130500D02*
X36317000Y35130500D01*
X36317000Y35130500D02*
X36317000Y34130500D01*
X36317000Y34330500D02*
X31817000Y34330500D01*
X36317000Y33730500D02*
X36317000Y34330500D01*
X36317000Y29630500D02*
X36317000Y30130500D01*
X36317000Y22130500D02*
X36317000Y21130500D01*
X36317000Y21130500D02*
X35317000Y21130500D01*
X30317000Y31830500D02*
G75*
G02*
X31817000Y30330500I0J-1500000D01*
G01*
X31817000Y34330500D02*
G75*
G02*
X31317000Y34830500I0J500000D01*
G01*
%TO.C,SW12*%
X41367000Y39893000D02*
X42367000Y39893000D01*
X41367000Y38893000D02*
X41367000Y39893000D01*
X41367000Y25893000D02*
X41367000Y26893000D01*
X42367000Y25893000D02*
X41367000Y25893000D01*
X46367000Y40593000D02*
X46867000Y41093000D01*
X46367000Y37093000D02*
X46867000Y36593000D01*
X46867000Y41093000D02*
X49867000Y41093000D01*
X46867000Y36593000D02*
X49367000Y36593000D01*
X49867000Y41093000D02*
X50367000Y40593000D01*
X50367000Y39593000D02*
X50367000Y40593000D01*
X50867000Y35093000D02*
X50867000Y34393000D01*
X50867000Y34393000D02*
X55367000Y34393000D01*
X54367000Y39893000D02*
X55367000Y39893000D01*
X55367000Y39893000D02*
X55367000Y38893000D01*
X55367000Y39093000D02*
X50867000Y39093000D01*
X55367000Y38493000D02*
X55367000Y39093000D01*
X55367000Y34393000D02*
X55367000Y34893000D01*
X55367000Y26893000D02*
X55367000Y25893000D01*
X55367000Y25893000D02*
X54367000Y25893000D01*
X49367000Y36593000D02*
G75*
G02*
X50867000Y35093000I0J-1500000D01*
G01*
X50867000Y39093000D02*
G75*
G02*
X50367000Y39593000I0J500000D01*
G01*
%TO.C,SW13*%
X60417000Y99424300D02*
X61417000Y99424300D01*
X60417000Y98424300D02*
X60417000Y99424300D01*
X60417000Y85424300D02*
X60417000Y86424300D01*
X61417000Y85424300D02*
X60417000Y85424300D01*
X65417000Y100124300D02*
X65917000Y100624300D01*
X65417000Y96624300D02*
X65917000Y96124300D01*
X65917000Y100624300D02*
X68917000Y100624300D01*
X65917000Y96124300D02*
X68417000Y96124300D01*
X68917000Y100624300D02*
X69417000Y100124300D01*
X69417000Y99124300D02*
X69417000Y100124300D01*
X69917000Y94624300D02*
X69917000Y93924300D01*
X69917000Y93924300D02*
X74417000Y93924300D01*
X73417000Y99424300D02*
X74417000Y99424300D01*
X74417000Y99424300D02*
X74417000Y98424300D01*
X74417000Y98624300D02*
X69917000Y98624300D01*
X74417000Y98024300D02*
X74417000Y98624300D01*
X74417000Y93924300D02*
X74417000Y94424300D01*
X74417000Y86424300D02*
X74417000Y85424300D01*
X74417000Y85424300D02*
X73417000Y85424300D01*
X68417000Y96124300D02*
G75*
G02*
X69917000Y94624300I0J-1500000D01*
G01*
X69917000Y98624300D02*
G75*
G02*
X69417000Y99124300I0J500000D01*
G01*
%TO.C,SW14*%
X60417000Y80374300D02*
X61417000Y80374300D01*
X60417000Y79374300D02*
X60417000Y80374300D01*
X60417000Y66374300D02*
X60417000Y67374300D01*
X61417000Y66374300D02*
X60417000Y66374300D01*
X65417000Y81074300D02*
X65917000Y81574300D01*
X65417000Y77574300D02*
X65917000Y77074300D01*
X65917000Y81574300D02*
X68917000Y81574300D01*
X65917000Y77074300D02*
X68417000Y77074300D01*
X68917000Y81574300D02*
X69417000Y81074300D01*
X69417000Y80074300D02*
X69417000Y81074300D01*
X69917000Y75574300D02*
X69917000Y74874300D01*
X69917000Y74874300D02*
X74417000Y74874300D01*
X73417000Y80374300D02*
X74417000Y80374300D01*
X74417000Y80374300D02*
X74417000Y79374300D01*
X74417000Y79574300D02*
X69917000Y79574300D01*
X74417000Y78974300D02*
X74417000Y79574300D01*
X74417000Y74874300D02*
X74417000Y75374300D01*
X74417000Y67374300D02*
X74417000Y66374300D01*
X74417000Y66374300D02*
X73417000Y66374300D01*
X68417000Y77074300D02*
G75*
G02*
X69917000Y75574300I0J-1500000D01*
G01*
X69917000Y79574300D02*
G75*
G02*
X69417000Y80074300I0J500000D01*
G01*
%TO.C,SW15*%
X60417000Y61324300D02*
X61417000Y61324300D01*
X60417000Y60324300D02*
X60417000Y61324300D01*
X60417000Y47324300D02*
X60417000Y48324300D01*
X61417000Y47324300D02*
X60417000Y47324300D01*
X65417000Y62024300D02*
X65917000Y62524300D01*
X65417000Y58524300D02*
X65917000Y58024300D01*
X65917000Y62524300D02*
X68917000Y62524300D01*
X65917000Y58024300D02*
X68417000Y58024300D01*
X68917000Y62524300D02*
X69417000Y62024300D01*
X69417000Y61024300D02*
X69417000Y62024300D01*
X69917000Y56524300D02*
X69917000Y55824300D01*
X69917000Y55824300D02*
X74417000Y55824300D01*
X73417000Y61324300D02*
X74417000Y61324300D01*
X74417000Y61324300D02*
X74417000Y60324300D01*
X74417000Y60524300D02*
X69917000Y60524300D01*
X74417000Y59924300D02*
X74417000Y60524300D01*
X74417000Y55824300D02*
X74417000Y56324300D01*
X74417000Y48324300D02*
X74417000Y47324300D01*
X74417000Y47324300D02*
X73417000Y47324300D01*
X68417000Y58024300D02*
G75*
G02*
X69917000Y56524300I0J-1500000D01*
G01*
X69917000Y60524300D02*
G75*
G02*
X69417000Y61024300I0J500000D01*
G01*
%TO.C,SW16*%
X60417000Y42274300D02*
X61417000Y42274300D01*
X60417000Y41274300D02*
X60417000Y42274300D01*
X60417000Y28274300D02*
X60417000Y29274300D01*
X61417000Y28274300D02*
X60417000Y28274300D01*
X65417000Y42974300D02*
X65917000Y43474300D01*
X65417000Y39474300D02*
X65917000Y38974300D01*
X65917000Y43474300D02*
X68917000Y43474300D01*
X65917000Y38974300D02*
X68417000Y38974300D01*
X68917000Y43474300D02*
X69417000Y42974300D01*
X69417000Y41974300D02*
X69417000Y42974300D01*
X69917000Y37474300D02*
X69917000Y36774300D01*
X69917000Y36774300D02*
X74417000Y36774300D01*
X73417000Y42274300D02*
X74417000Y42274300D01*
X74417000Y42274300D02*
X74417000Y41274300D01*
X74417000Y41474300D02*
X69917000Y41474300D01*
X74417000Y40874300D02*
X74417000Y41474300D01*
X74417000Y36774300D02*
X74417000Y37274300D01*
X74417000Y29274300D02*
X74417000Y28274300D01*
X74417000Y28274300D02*
X73417000Y28274300D01*
X68417000Y38974300D02*
G75*
G02*
X69917000Y37474300I0J-1500000D01*
G01*
X69917000Y41474300D02*
G75*
G02*
X69417000Y41974300I0J500000D01*
G01*
%TO.C,SW17*%
X79467000Y97043000D02*
X80467000Y97043000D01*
X79467000Y96043000D02*
X79467000Y97043000D01*
X79467000Y83043000D02*
X79467000Y84043000D01*
X80467000Y83043000D02*
X79467000Y83043000D01*
X84467000Y97743000D02*
X84967000Y98243000D01*
X84467000Y94243000D02*
X84967000Y93743000D01*
X84967000Y98243000D02*
X87967000Y98243000D01*
X84967000Y93743000D02*
X87467000Y93743000D01*
X87967000Y98243000D02*
X88467000Y97743000D01*
X88467000Y96743000D02*
X88467000Y97743000D01*
X88967000Y92243000D02*
X88967000Y91543000D01*
X88967000Y91543000D02*
X93467000Y91543000D01*
X92467000Y97043000D02*
X93467000Y97043000D01*
X93467000Y97043000D02*
X93467000Y96043000D01*
X93467000Y96243000D02*
X88967000Y96243000D01*
X93467000Y95643000D02*
X93467000Y96243000D01*
X93467000Y91543000D02*
X93467000Y92043000D01*
X93467000Y84043000D02*
X93467000Y83043000D01*
X93467000Y83043000D02*
X92467000Y83043000D01*
X87467000Y93743000D02*
G75*
G02*
X88967000Y92243000I0J-1500000D01*
G01*
X88967000Y96243000D02*
G75*
G02*
X88467000Y96743000I0J500000D01*
G01*
%TO.C,SW18*%
X79467000Y77993000D02*
X80467000Y77993000D01*
X79467000Y76993000D02*
X79467000Y77993000D01*
X79467000Y63993000D02*
X79467000Y64993000D01*
X80467000Y63993000D02*
X79467000Y63993000D01*
X84467000Y78693000D02*
X84967000Y79193000D01*
X84467000Y75193000D02*
X84967000Y74693000D01*
X84967000Y79193000D02*
X87967000Y79193000D01*
X84967000Y74693000D02*
X87467000Y74693000D01*
X87967000Y79193000D02*
X88467000Y78693000D01*
X88467000Y77693000D02*
X88467000Y78693000D01*
X88967000Y73193000D02*
X88967000Y72493000D01*
X88967000Y72493000D02*
X93467000Y72493000D01*
X92467000Y77993000D02*
X93467000Y77993000D01*
X93467000Y77993000D02*
X93467000Y76993000D01*
X93467000Y77193000D02*
X88967000Y77193000D01*
X93467000Y76593000D02*
X93467000Y77193000D01*
X93467000Y72493000D02*
X93467000Y72993000D01*
X93467000Y64993000D02*
X93467000Y63993000D01*
X93467000Y63993000D02*
X92467000Y63993000D01*
X87467000Y74693000D02*
G75*
G02*
X88967000Y73193000I0J-1500000D01*
G01*
X88967000Y77193000D02*
G75*
G02*
X88467000Y77693000I0J500000D01*
G01*
%TO.C,SW19*%
X79467000Y58943000D02*
X80467000Y58943000D01*
X79467000Y57943000D02*
X79467000Y58943000D01*
X79467000Y44943000D02*
X79467000Y45943000D01*
X80467000Y44943000D02*
X79467000Y44943000D01*
X84467000Y59643000D02*
X84967000Y60143000D01*
X84467000Y56143000D02*
X84967000Y55643000D01*
X84967000Y60143000D02*
X87967000Y60143000D01*
X84967000Y55643000D02*
X87467000Y55643000D01*
X87967000Y60143000D02*
X88467000Y59643000D01*
X88467000Y58643000D02*
X88467000Y59643000D01*
X88967000Y54143000D02*
X88967000Y53443000D01*
X88967000Y53443000D02*
X93467000Y53443000D01*
X92467000Y58943000D02*
X93467000Y58943000D01*
X93467000Y58943000D02*
X93467000Y57943000D01*
X93467000Y58143000D02*
X88967000Y58143000D01*
X93467000Y57543000D02*
X93467000Y58143000D01*
X93467000Y53443000D02*
X93467000Y53943000D01*
X93467000Y45943000D02*
X93467000Y44943000D01*
X93467000Y44943000D02*
X92467000Y44943000D01*
X87467000Y55643000D02*
G75*
G02*
X88967000Y54143000I0J-1500000D01*
G01*
X88967000Y58143000D02*
G75*
G02*
X88467000Y58643000I0J500000D01*
G01*
%TO.C,SW20*%
X79467000Y39893000D02*
X80467000Y39893000D01*
X79467000Y38893000D02*
X79467000Y39893000D01*
X79467000Y25893000D02*
X79467000Y26893000D01*
X80467000Y25893000D02*
X79467000Y25893000D01*
X84467000Y40593000D02*
X84967000Y41093000D01*
X84467000Y37093000D02*
X84967000Y36593000D01*
X84967000Y41093000D02*
X87967000Y41093000D01*
X84967000Y36593000D02*
X87467000Y36593000D01*
X87967000Y41093000D02*
X88467000Y40593000D01*
X88467000Y39593000D02*
X88467000Y40593000D01*
X88967000Y35093000D02*
X88967000Y34393000D01*
X88967000Y34393000D02*
X93467000Y34393000D01*
X92467000Y39893000D02*
X93467000Y39893000D01*
X93467000Y39893000D02*
X93467000Y38893000D01*
X93467000Y39093000D02*
X88967000Y39093000D01*
X93467000Y38493000D02*
X93467000Y39093000D01*
X93467000Y34393000D02*
X93467000Y34893000D01*
X93467000Y26893000D02*
X93467000Y25893000D01*
X93467000Y25893000D02*
X92467000Y25893000D01*
X87467000Y36593000D02*
G75*
G02*
X88967000Y35093000I0J-1500000D01*
G01*
X88967000Y39093000D02*
G75*
G02*
X88467000Y39593000I0J500000D01*
G01*
%TO.C,SW21*%
X98517000Y94661800D02*
X99517000Y94661800D01*
X98517000Y93661800D02*
X98517000Y94661800D01*
X98517000Y80661800D02*
X98517000Y81661800D01*
X99517000Y80661800D02*
X98517000Y80661800D01*
X103517000Y95361800D02*
X104017000Y95861800D01*
X103517000Y91861800D02*
X104017000Y91361800D01*
X104017000Y95861800D02*
X107017000Y95861800D01*
X104017000Y91361800D02*
X106517000Y91361800D01*
X107017000Y95861800D02*
X107517000Y95361800D01*
X107517000Y94361800D02*
X107517000Y95361800D01*
X108017000Y89861800D02*
X108017000Y89161800D01*
X108017000Y89161800D02*
X112517000Y89161800D01*
X111517000Y94661800D02*
X112517000Y94661800D01*
X112517000Y94661800D02*
X112517000Y93661800D01*
X112517000Y93861800D02*
X108017000Y93861800D01*
X112517000Y93261800D02*
X112517000Y93861800D01*
X112517000Y89161800D02*
X112517000Y89661800D01*
X112517000Y81661800D02*
X112517000Y80661800D01*
X112517000Y80661800D02*
X111517000Y80661800D01*
X106517000Y91361800D02*
G75*
G02*
X108017000Y89861800I0J-1500000D01*
G01*
X108017000Y93861800D02*
G75*
G02*
X107517000Y94361800I0J500000D01*
G01*
%TO.C,SW25*%
X117567000Y85136800D02*
X118567000Y85136800D01*
X117567000Y84136800D02*
X117567000Y85136800D01*
X117567000Y71136800D02*
X117567000Y72136800D01*
X118567000Y71136800D02*
X117567000Y71136800D01*
X122567000Y85836800D02*
X123067000Y86336800D01*
X122567000Y82336800D02*
X123067000Y81836800D01*
X123067000Y86336800D02*
X126067000Y86336800D01*
X123067000Y81836800D02*
X125567000Y81836800D01*
X126067000Y86336800D02*
X126567000Y85836800D01*
X126567000Y84836800D02*
X126567000Y85836800D01*
X127067000Y80336800D02*
X127067000Y79636800D01*
X127067000Y79636800D02*
X131567000Y79636800D01*
X130567000Y85136800D02*
X131567000Y85136800D01*
X131567000Y85136800D02*
X131567000Y84136800D01*
X131567000Y84336800D02*
X127067000Y84336800D01*
X131567000Y83736800D02*
X131567000Y84336800D01*
X131567000Y79636800D02*
X131567000Y80136800D01*
X131567000Y72136800D02*
X131567000Y71136800D01*
X131567000Y71136800D02*
X130567000Y71136800D01*
X125567000Y81836800D02*
G75*
G02*
X127067000Y80336800I0J-1500000D01*
G01*
X127067000Y84336800D02*
G75*
G02*
X126567000Y84836800I0J500000D01*
G01*
%TO.C,SW26*%
X117567000Y66086800D02*
X118567000Y66086800D01*
X117567000Y65086800D02*
X117567000Y66086800D01*
X117567000Y52086800D02*
X117567000Y53086800D01*
X118567000Y52086800D02*
X117567000Y52086800D01*
X122567000Y66786800D02*
X123067000Y67286800D01*
X122567000Y63286800D02*
X123067000Y62786800D01*
X123067000Y67286800D02*
X126067000Y67286800D01*
X123067000Y62786800D02*
X125567000Y62786800D01*
X126067000Y67286800D02*
X126567000Y66786800D01*
X126567000Y65786800D02*
X126567000Y66786800D01*
X127067000Y61286800D02*
X127067000Y60586800D01*
X127067000Y60586800D02*
X131567000Y60586800D01*
X130567000Y66086800D02*
X131567000Y66086800D01*
X131567000Y66086800D02*
X131567000Y65086800D01*
X131567000Y65286800D02*
X127067000Y65286800D01*
X131567000Y64686800D02*
X131567000Y65286800D01*
X131567000Y60586800D02*
X131567000Y61086800D01*
X131567000Y53086800D02*
X131567000Y52086800D01*
X131567000Y52086800D02*
X130567000Y52086800D01*
X125567000Y62786800D02*
G75*
G02*
X127067000Y61286800I0J-1500000D01*
G01*
X127067000Y65286800D02*
G75*
G02*
X126567000Y65786800I0J500000D01*
G01*
%TO.C,SW27*%
X117567000Y47036800D02*
X118567000Y47036800D01*
X117567000Y46036800D02*
X117567000Y47036800D01*
X117567000Y33036800D02*
X117567000Y34036800D01*
X118567000Y33036800D02*
X117567000Y33036800D01*
X122567000Y47736800D02*
X123067000Y48236800D01*
X122567000Y44236800D02*
X123067000Y43736800D01*
X123067000Y48236800D02*
X126067000Y48236800D01*
X123067000Y43736800D02*
X125567000Y43736800D01*
X126067000Y48236800D02*
X126567000Y47736800D01*
X126567000Y46736800D02*
X126567000Y47736800D01*
X127067000Y42236800D02*
X127067000Y41536800D01*
X127067000Y41536800D02*
X131567000Y41536800D01*
X130567000Y47036800D02*
X131567000Y47036800D01*
X131567000Y47036800D02*
X131567000Y46036800D01*
X131567000Y46236800D02*
X127067000Y46236800D01*
X131567000Y45636800D02*
X131567000Y46236800D01*
X131567000Y41536800D02*
X131567000Y42036800D01*
X131567000Y34036800D02*
X131567000Y33036800D01*
X131567000Y33036800D02*
X130567000Y33036800D01*
X125567000Y43736800D02*
G75*
G02*
X127067000Y42236800I0J-1500000D01*
G01*
X127067000Y46236800D02*
G75*
G02*
X126567000Y46736800I0J500000D01*
G01*
%TO.C,SW28*%
X114939822Y14462922D02*
X115439822Y15328948D01*
X115805848Y13962922D02*
X114939822Y14462922D01*
X121439822Y25721252D02*
X121939822Y26587278D01*
X121939822Y26587278D02*
X122805848Y26087278D01*
X122301038Y10212922D02*
X122734051Y9962922D01*
X124551038Y14110036D02*
X122301038Y10212922D01*
X125157256Y13760036D02*
X124551038Y14110036D01*
X125851742Y8162922D02*
X126371358Y7862922D01*
X126371358Y7862922D02*
X128621358Y11760036D01*
X127064178Y7462922D02*
X126198152Y7962922D01*
X127564178Y8328948D02*
X127064178Y7462922D01*
X128456294Y16474138D02*
X127206294Y14309075D01*
X129139307Y16657151D02*
X128456294Y16474138D01*
X129304370Y11943049D02*
X130170396Y11443049D01*
X130853408Y11626062D02*
X130170396Y11443049D01*
X132170396Y14907151D02*
X132353408Y14224138D01*
X132353408Y14224138D02*
X130853408Y11626062D01*
X133198152Y20087278D02*
X134064178Y19587278D01*
X134064178Y19587278D02*
X133564178Y18721252D01*
X127206294Y14309075D02*
G75*
G02*
X125157256Y13760037I-1299038J750000D01*
G01*
X128621358Y11760036D02*
G75*
G02*
X129304370Y11943048I433012J-250000D01*
G01*
%TO.C,SW31*%
X22317000Y16080500D02*
X23317000Y16080500D01*
X22317000Y15080500D02*
X22317000Y16080500D01*
X22317000Y2080500D02*
X22317000Y3080500D01*
X23317000Y2080500D02*
X22317000Y2080500D01*
X27317000Y16780500D02*
X27817000Y17280500D01*
X27317000Y13280500D02*
X27817000Y12780500D01*
X27817000Y17280500D02*
X30817000Y17280500D01*
X27817000Y12780500D02*
X30317000Y12780500D01*
X30817000Y17280500D02*
X31317000Y16780500D01*
X31317000Y15780500D02*
X31317000Y16780500D01*
X31817000Y11280500D02*
X31817000Y10580500D01*
X31817000Y10580500D02*
X36317000Y10580500D01*
X35317000Y16080500D02*
X36317000Y16080500D01*
X36317000Y16080500D02*
X36317000Y15080500D01*
X36317000Y15280500D02*
X31817000Y15280500D01*
X36317000Y14680500D02*
X36317000Y15280500D01*
X36317000Y10580500D02*
X36317000Y11080500D01*
X36317000Y3080500D02*
X36317000Y2080500D01*
X36317000Y2080500D02*
X35317000Y2080500D01*
X30317000Y12780500D02*
G75*
G02*
X31817000Y11280500I0J-1500000D01*
G01*
X31817000Y15280500D02*
G75*
G02*
X31317000Y15780500I0J500000D01*
G01*
%TO.C,SW34*%
X88501822Y7268622D02*
X89001822Y8134648D01*
X89367848Y6768622D02*
X88501822Y7268622D01*
X90212592Y12631762D02*
X91712592Y15229838D01*
X90395604Y11948749D02*
X90212592Y12631762D01*
X91712592Y15229838D02*
X92395604Y15412851D01*
X93261630Y14912851D02*
X92395604Y15412851D01*
X93426693Y10198749D02*
X94109706Y10381762D01*
X94109706Y10381762D02*
X95359706Y12546825D01*
X95001822Y18526952D02*
X95501822Y19392978D01*
X95501822Y19392978D02*
X96367848Y18892978D01*
X96194642Y18992978D02*
X93944642Y15095864D01*
X96714258Y18692978D02*
X96194642Y18992978D01*
X97408744Y13095864D02*
X98014962Y12745864D01*
X98014962Y12745864D02*
X100264962Y16642978D01*
X100264962Y16642978D02*
X99831949Y16892978D01*
X100626178Y268622D02*
X99760152Y768622D01*
X101126178Y1134648D02*
X100626178Y268622D01*
X106760152Y12892978D02*
X107626178Y12392978D01*
X107626178Y12392978D02*
X107126178Y11526952D01*
X93944642Y15095864D02*
G75*
G02*
X93261630Y14912852I-433012J250000D01*
G01*
X95359706Y12546825D02*
G75*
G02*
X97408744Y13095863I1299038J-750000D01*
G01*
%TO.C,SW35*%
X105414822Y-2035078D02*
X105914822Y-1169052D01*
X106280848Y-2535078D02*
X105414822Y-2035078D01*
X111914822Y9223252D02*
X112414822Y10089278D01*
X112414822Y10089278D02*
X113280848Y9589278D01*
X112776038Y-6285078D02*
X113209051Y-6535078D01*
X115026038Y-2387964D02*
X112776038Y-6285078D01*
X115632256Y-2737964D02*
X115026038Y-2387964D01*
X116326742Y-8335078D02*
X116846358Y-8635078D01*
X116846358Y-8635078D02*
X119096358Y-4737964D01*
X117539178Y-9035078D02*
X116673152Y-8535078D01*
X118039178Y-8169052D02*
X117539178Y-9035078D01*
X118931294Y-23862D02*
X117681294Y-2188925D01*
X119614307Y159151D02*
X118931294Y-23862D01*
X119779370Y-4554951D02*
X120645396Y-5054951D01*
X121328408Y-4871938D02*
X120645396Y-5054951D01*
X122645396Y-1590849D02*
X122828408Y-2273862D01*
X122828408Y-2273862D02*
X121328408Y-4871938D01*
X123673152Y3589278D02*
X124539178Y3089278D01*
X124539178Y3089278D02*
X124039178Y2223252D01*
X117681294Y-2188925D02*
G75*
G02*
X115632256Y-2737963I-1299038J750000D01*
G01*
X119096358Y-4737964D02*
G75*
G02*
X119779370Y-4554952I433012J-250000D01*
G01*
%TO.C,SW41*%
X126547822Y-3292178D02*
X127047822Y-2426152D01*
X127413848Y-3792178D02*
X126547822Y-3292178D01*
X133047822Y7966152D02*
X133547822Y8832178D01*
X133547822Y8832178D02*
X134413848Y8332178D01*
X133909038Y-7542178D02*
X134342051Y-7792178D01*
X136159038Y-3645064D02*
X133909038Y-7542178D01*
X136765256Y-3995064D02*
X136159038Y-3645064D01*
X137459742Y-9592178D02*
X137979358Y-9892178D01*
X137979358Y-9892178D02*
X140229358Y-5995064D01*
X138672178Y-10292178D02*
X137806152Y-9792178D01*
X139172178Y-9426152D02*
X138672178Y-10292178D01*
X140064294Y-1280962D02*
X138814294Y-3446025D01*
X140747307Y-1097949D02*
X140064294Y-1280962D01*
X140912370Y-5812051D02*
X141778396Y-6312051D01*
X142461408Y-6129038D02*
X141778396Y-6312051D01*
X143778396Y-2847949D02*
X143961408Y-3530962D01*
X143961408Y-3530962D02*
X142461408Y-6129038D01*
X144806152Y2332178D02*
X145672178Y1832178D01*
X145672178Y1832178D02*
X145172178Y966152D01*
X138814294Y-3446025D02*
G75*
G02*
X136765256Y-3995063I-1299038J750000D01*
G01*
X140229358Y-5995064D02*
G75*
G02*
X140912370Y-5812052I433012J-250000D01*
G01*
%TO.C,D1*%
X7787900Y76750000D02*
X6810000Y76750000D01*
X10099300Y77448500D02*
X11128000Y76762700D01*
X10099300Y76051500D02*
X10099300Y77448500D01*
X11140700Y76750000D02*
X10099300Y76051500D01*
X11140700Y76038800D02*
X11140700Y77448500D01*
X14430000Y76750000D02*
X13464800Y76750000D01*
%TO.C,D2*%
X18038800Y61459300D02*
X19448500Y61459300D01*
X18051500Y62500700D02*
X19448500Y62500700D01*
X18750000Y64812100D02*
X18750000Y65790000D01*
X18750000Y61459300D02*
X18051500Y62500700D01*
X18750000Y58170000D02*
X18750000Y59135200D01*
X19448500Y62500700D02*
X18762700Y61472000D01*
%TO.C,D3*%
X18288800Y41959300D02*
X19698500Y41959300D01*
X18301500Y43000700D02*
X19698500Y43000700D01*
X19000000Y45312100D02*
X19000000Y46290000D01*
X19000000Y41959300D02*
X18301500Y43000700D01*
X19000000Y38670000D02*
X19000000Y39635200D01*
X19698500Y43000700D02*
X19012700Y41972000D01*
%TO.C,D4*%
X36538800Y23059300D02*
X37948500Y23059300D01*
X36551500Y24100700D02*
X37948500Y24100700D01*
X37250000Y26412100D02*
X37250000Y27390000D01*
X37250000Y23059300D02*
X36551500Y24100700D01*
X37250000Y19770000D02*
X37250000Y20735200D01*
X37948500Y24100700D02*
X37262700Y23072000D01*
%TO.C,D5*%
X36538800Y79709300D02*
X37948500Y79709300D01*
X36551500Y80750700D02*
X37948500Y80750700D01*
X37250000Y83062100D02*
X37250000Y84040000D01*
X37250000Y79709300D02*
X36551500Y80750700D01*
X37250000Y76420000D02*
X37250000Y77385200D01*
X37948500Y80750700D02*
X37262700Y79722000D01*
%TO.C,D6*%
X36538800Y59959300D02*
X37948500Y59959300D01*
X36551500Y61000700D02*
X37948500Y61000700D01*
X37250000Y63312100D02*
X37250000Y64290000D01*
X37250000Y59959300D02*
X36551500Y61000700D01*
X37250000Y56670000D02*
X37250000Y57635200D01*
X37948500Y61000700D02*
X37262700Y59972000D01*
%TO.C,D7*%
X36788800Y42459300D02*
X38198500Y42459300D01*
X36801500Y43500700D02*
X38198500Y43500700D01*
X37500000Y45812100D02*
X37500000Y46790000D01*
X37500000Y42459300D02*
X36801500Y43500700D01*
X37500000Y39170000D02*
X37500000Y40135200D01*
X38198500Y43500700D02*
X37512700Y42472000D01*
%TO.C,D8*%
X39273800Y27673300D02*
X40683500Y27673300D01*
X39286500Y28714700D02*
X40683500Y28714700D01*
X39985000Y31026100D02*
X39985000Y32004000D01*
X39985000Y27673300D02*
X39286500Y28714700D01*
X39985000Y24384000D02*
X39985000Y25349200D01*
X40683500Y28714700D02*
X39997700Y27686000D01*
%TO.C,D9*%
X39273800Y84823300D02*
X40683500Y84823300D01*
X39286500Y85864700D02*
X40683500Y85864700D01*
X39985000Y88176100D02*
X39985000Y89154000D01*
X39985000Y84823300D02*
X39286500Y85864700D01*
X39985000Y81534000D02*
X39985000Y82499200D01*
X40683500Y85864700D02*
X39997700Y84836000D01*
%TO.C,D10*%
X39538800Y65646300D02*
X40948500Y65646300D01*
X39551500Y66687700D02*
X40948500Y66687700D01*
X40250000Y68999100D02*
X40250000Y69977000D01*
X40250000Y65646300D02*
X39551500Y66687700D01*
X40250000Y62357000D02*
X40250000Y63322200D01*
X40948500Y66687700D02*
X40262700Y65659000D01*
%TO.C,D11*%
X39538800Y46723300D02*
X40948500Y46723300D01*
X39551500Y47764700D02*
X40948500Y47764700D01*
X40250000Y50076100D02*
X40250000Y51054000D01*
X40250000Y46723300D02*
X39551500Y47764700D01*
X40250000Y43434000D02*
X40250000Y44399200D01*
X40948500Y47764700D02*
X40262700Y46736000D01*
%TO.C,D12*%
X45787900Y43750000D02*
X44810000Y43750000D01*
X48099300Y44448500D02*
X49128000Y43762700D01*
X48099300Y43051500D02*
X48099300Y44448500D01*
X49140700Y43750000D02*
X48099300Y43051500D01*
X49140700Y43038800D02*
X49140700Y44448500D01*
X52430000Y43750000D02*
X51464800Y43750000D01*
%TO.C,D13*%
X51037900Y81250000D02*
X50060000Y81250000D01*
X53349300Y81948500D02*
X54378000Y81262700D01*
X53349300Y80551500D02*
X53349300Y81948500D01*
X54390700Y81250000D02*
X53349300Y80551500D01*
X54390700Y80538800D02*
X54390700Y81948500D01*
X57680000Y81250000D02*
X56714800Y81250000D01*
%TO.C,D14*%
X75087800Y67043300D02*
X76497500Y67043300D01*
X75100500Y68084700D02*
X76497500Y68084700D01*
X75799000Y70396100D02*
X75799000Y71374000D01*
X75799000Y67043300D02*
X75100500Y68084700D01*
X75799000Y63754000D02*
X75799000Y64719200D01*
X76497500Y68084700D02*
X75811700Y67056000D01*
%TO.C,D16*%
X63287900Y44750000D02*
X62310000Y44750000D01*
X65599300Y45448500D02*
X66628000Y44762700D01*
X65599300Y44051500D02*
X65599300Y45448500D01*
X66640700Y44750000D02*
X65599300Y44051500D01*
X66640700Y44038800D02*
X66640700Y45448500D01*
X69930000Y44750000D02*
X68964800Y44750000D01*
%TO.C,D17*%
X96788800Y83209300D02*
X98198500Y83209300D01*
X96801500Y84250700D02*
X98198500Y84250700D01*
X97500000Y86562100D02*
X97500000Y87540000D01*
X97500000Y83209300D02*
X96801500Y84250700D01*
X97500000Y79920000D02*
X97500000Y80885200D01*
X98198500Y84250700D02*
X97512700Y83222000D01*
%TO.C,D19*%
X75038800Y49209300D02*
X76448500Y49209300D01*
X75051500Y50250700D02*
X76448500Y50250700D01*
X75750000Y52562100D02*
X75750000Y53540000D01*
X75750000Y49209300D02*
X75051500Y50250700D01*
X75750000Y45920000D02*
X75750000Y46885200D01*
X76448500Y50250700D02*
X75762700Y49222000D01*
%TO.C,D20*%
X93788800Y25109300D02*
X95198500Y25109300D01*
X93801500Y26150700D02*
X95198500Y26150700D01*
X94500000Y28462100D02*
X94500000Y29440000D01*
X94500000Y25109300D02*
X93801500Y26150700D01*
X94500000Y21820000D02*
X94500000Y22785200D01*
X95198500Y26150700D02*
X94512700Y25122000D01*
%TO.C,D21*%
X96788800Y61859300D02*
X98198500Y61859300D01*
X96801500Y62900700D02*
X98198500Y62900700D01*
X97500000Y65212100D02*
X97500000Y66190000D01*
X97500000Y61859300D02*
X96801500Y62900700D01*
X97500000Y58570000D02*
X97500000Y59535200D01*
X98198500Y62900700D02*
X97512700Y61872000D01*
%TO.C,D22*%
X93788800Y64559300D02*
X95198500Y64559300D01*
X93801500Y65600700D02*
X95198500Y65600700D01*
X94500000Y67912100D02*
X94500000Y68890000D01*
X94500000Y64559300D02*
X93801500Y65600700D01*
X94500000Y61270000D02*
X94500000Y62235200D01*
X95198500Y65600700D02*
X94512700Y64572000D01*
%TO.C,D23*%
X96550800Y44459300D02*
X97960500Y44459300D01*
X96563500Y45500700D02*
X97960500Y45500700D01*
X97262000Y47812100D02*
X97262000Y48790000D01*
X97262000Y44459300D02*
X96563500Y45500700D01*
X97262000Y41170000D02*
X97262000Y42135200D01*
X97960500Y45500700D02*
X97274700Y44472000D01*
%TO.C,D24*%
X96538800Y26209300D02*
X97948500Y26209300D01*
X96551500Y27250700D02*
X97948500Y27250700D01*
X97250000Y29562100D02*
X97250000Y30540000D01*
X97250000Y26209300D02*
X96551500Y27250700D01*
X97250000Y22920000D02*
X97250000Y23885200D01*
X97948500Y27250700D02*
X97262700Y26222000D01*
%TO.C,D25*%
X113038800Y63809300D02*
X114448500Y63809300D01*
X113051500Y64850700D02*
X114448500Y64850700D01*
X113750000Y67162100D02*
X113750000Y68140000D01*
X113750000Y63809300D02*
X113051500Y64850700D01*
X113750000Y60520000D02*
X113750000Y61485200D01*
X114448500Y64850700D02*
X113762700Y63822000D01*
%TO.C,D26*%
X115788800Y54459300D02*
X117198500Y54459300D01*
X115801500Y55500700D02*
X117198500Y55500700D01*
X116500000Y57812100D02*
X116500000Y58790000D01*
X116500000Y54459300D02*
X115801500Y55500700D01*
X116500000Y51170000D02*
X116500000Y52135200D01*
X117198500Y55500700D02*
X116512700Y54472000D01*
%TO.C,D27*%
X112788800Y41849300D02*
X114198500Y41849300D01*
X112801500Y42890700D02*
X114198500Y42890700D01*
X113500000Y45202100D02*
X113500000Y46180000D01*
X113500000Y41849300D02*
X112801500Y42890700D01*
X113500000Y38560000D02*
X113500000Y39525200D01*
X114198500Y42890700D02*
X113512700Y41862000D01*
%TO.C,D28*%
X113187800Y25709300D02*
X114597500Y25709300D01*
X113200500Y26750700D02*
X114597500Y26750700D01*
X113899000Y29062100D02*
X113899000Y30040000D01*
X113899000Y25709300D02*
X113200500Y26750700D01*
X113899000Y22420000D02*
X113899000Y23385200D01*
X114597500Y26750700D02*
X113911700Y25722000D01*
%TO.C,D29*%
X6937900Y19250000D02*
X5960000Y19250000D01*
X9249300Y19948500D02*
X10278000Y19262700D01*
X9249300Y18551500D02*
X9249300Y19948500D01*
X10290700Y19250000D02*
X9249300Y18551500D01*
X10290700Y18538800D02*
X10290700Y19948500D01*
X13580000Y19250000D02*
X12614800Y19250000D01*
%TO.C,D30*%
X26337900Y19000000D02*
X25360000Y19000000D01*
X28649300Y19698500D02*
X29678000Y19012700D01*
X28649300Y18301500D02*
X28649300Y19698500D01*
X29690700Y19000000D02*
X28649300Y18301500D01*
X29690700Y18288800D02*
X29690700Y19698500D01*
X32980000Y19000000D02*
X32014800Y19000000D01*
%TO.C,D31*%
X39288800Y8959300D02*
X40698500Y8959300D01*
X39301500Y10000700D02*
X40698500Y10000700D01*
X40000000Y12312100D02*
X40000000Y13290000D01*
X40000000Y8959300D02*
X39301500Y10000700D01*
X40000000Y5670000D02*
X40000000Y6635200D01*
X40698500Y10000700D02*
X40012700Y8972000D01*
%TO.C,D33*%
X103635720Y16981050D02*
X102788834Y17470000D01*
X105288202Y15220431D02*
X105986702Y16430269D01*
X105986702Y16430269D02*
X106534682Y15321999D01*
X106183730Y14688733D02*
X106888580Y15909569D01*
X106539330Y15304650D02*
X105288202Y15220431D01*
X109387948Y13660000D02*
X108552060Y14142600D01*
%TO.C,D34*%
X105335000Y1933122D02*
X105817600Y2769010D01*
X106363733Y5137340D02*
X107584569Y4432490D01*
X106895431Y6032868D02*
X108105269Y5334368D01*
X106979650Y4781740D02*
X106895431Y6032868D01*
X108105269Y5334368D02*
X106996999Y4786388D01*
X108656050Y7685350D02*
X109145000Y8532236D01*
%TO.C,D32*%
X58538800Y11459300D02*
X59948500Y11459300D01*
X58551500Y12500700D02*
X59948500Y12500700D01*
X59250000Y14812100D02*
X59250000Y15790000D01*
X59250000Y11459300D02*
X58551500Y12500700D01*
X59250000Y8170000D02*
X59250000Y9135200D01*
X59948500Y12500700D02*
X59262700Y11472000D01*
%TO.C,D15*%
X56538800Y46809300D02*
X57948500Y46809300D01*
X56551500Y47850700D02*
X57948500Y47850700D01*
X57250000Y50162100D02*
X57250000Y51140000D01*
X57250000Y46809300D02*
X56551500Y47850700D01*
X57250000Y43520000D02*
X57250000Y44485200D01*
X57948500Y47850700D02*
X57262700Y46822000D01*
%TO.C,D18*%
X93788800Y45859300D02*
X95198500Y45859300D01*
X93801500Y46900700D02*
X95198500Y46900700D01*
X94500000Y49212100D02*
X94500000Y50190000D01*
X94500000Y45859300D02*
X93801500Y46900700D01*
X94500000Y42570000D02*
X94500000Y43535200D01*
X95198500Y46900700D02*
X94512700Y45872000D01*
%TO.C,SW1*%
X3267000Y92280500D02*
X4267000Y92280500D01*
X3267000Y91280500D02*
X3267000Y92280500D01*
X3267000Y78280500D02*
X3267000Y79280500D01*
X4267000Y78280500D02*
X3267000Y78280500D01*
X8767000Y93480500D02*
X8267000Y92980500D01*
X8767000Y88980500D02*
X8267000Y89480500D01*
X11267000Y88980500D02*
X8767000Y88980500D01*
X11767000Y93480500D02*
X8767000Y93480500D01*
X12267000Y92980500D02*
X11767000Y93480500D01*
X12267000Y92980500D02*
X12267000Y91980500D01*
X12767000Y91480500D02*
X17267000Y91480500D01*
X12767000Y86780500D02*
X12767000Y87480500D01*
X16267000Y92280500D02*
X17267000Y92280500D01*
X17267000Y92280500D02*
X17267000Y91280500D01*
X17267000Y91480500D02*
X17267000Y90880500D01*
X17267000Y87280500D02*
X17267000Y86780500D01*
X17267000Y86780500D02*
X12767000Y86780500D01*
X17267000Y79280500D02*
X17267000Y78280500D01*
X17267000Y78280500D02*
X16267000Y78280500D01*
X11267000Y88980500D02*
G75*
G02*
X12767000Y87480500I-1J-1500001D01*
G01*
X12767000Y91480500D02*
G75*
G02*
X12267000Y91980500I1J500001D01*
G01*
%TO.C,SW2*%
X3267000Y73230500D02*
X4267000Y73230500D01*
X3267000Y72230500D02*
X3267000Y73230500D01*
X3267000Y59230500D02*
X3267000Y60230500D01*
X4267000Y59230500D02*
X3267000Y59230500D01*
X8767000Y74430500D02*
X8267000Y73930500D01*
X8767000Y69930500D02*
X8267000Y70430500D01*
X11267000Y69930500D02*
X8767000Y69930500D01*
X11767000Y74430500D02*
X8767000Y74430500D01*
X12267000Y73930500D02*
X11767000Y74430500D01*
X12267000Y73930500D02*
X12267000Y72930500D01*
X12767000Y72430500D02*
X17267000Y72430500D01*
X12767000Y67730500D02*
X12767000Y68430500D01*
X16267000Y73230500D02*
X17267000Y73230500D01*
X17267000Y73230500D02*
X17267000Y72230500D01*
X17267000Y72430500D02*
X17267000Y71830500D01*
X17267000Y68230500D02*
X17267000Y67730500D01*
X17267000Y67730500D02*
X12767000Y67730500D01*
X17267000Y60230500D02*
X17267000Y59230500D01*
X17267000Y59230500D02*
X16267000Y59230500D01*
X11267000Y69930500D02*
G75*
G02*
X12767000Y68430500I-1J-1500001D01*
G01*
X12767000Y72430500D02*
G75*
G02*
X12267000Y72930500I1J500001D01*
G01*
%TO.C,SW3*%
X3267000Y54180500D02*
X4267000Y54180500D01*
X3267000Y53180500D02*
X3267000Y54180500D01*
X3267000Y40180500D02*
X3267000Y41180500D01*
X4267000Y40180500D02*
X3267000Y40180500D01*
X8767000Y55380500D02*
X8267000Y54880500D01*
X8767000Y50880500D02*
X8267000Y51380500D01*
X11267000Y50880500D02*
X8767000Y50880500D01*
X11767000Y55380500D02*
X8767000Y55380500D01*
X12267000Y54880500D02*
X11767000Y55380500D01*
X12267000Y54880500D02*
X12267000Y53880500D01*
X12767000Y53380500D02*
X17267000Y53380500D01*
X12767000Y48680500D02*
X12767000Y49380500D01*
X16267000Y54180500D02*
X17267000Y54180500D01*
X17267000Y54180500D02*
X17267000Y53180500D01*
X17267000Y53380500D02*
X17267000Y52780500D01*
X17267000Y49180500D02*
X17267000Y48680500D01*
X17267000Y48680500D02*
X12767000Y48680500D01*
X17267000Y41180500D02*
X17267000Y40180500D01*
X17267000Y40180500D02*
X16267000Y40180500D01*
X11267000Y50880500D02*
G75*
G02*
X12767000Y49380500I-1J-1500001D01*
G01*
X12767000Y53380500D02*
G75*
G02*
X12267000Y53880500I1J500001D01*
G01*
%TO.C,SW4*%
X3267000Y35130500D02*
X4267000Y35130500D01*
X3267000Y34130500D02*
X3267000Y35130500D01*
X3267000Y21130500D02*
X3267000Y22130500D01*
X4267000Y21130500D02*
X3267000Y21130500D01*
X8767000Y36330500D02*
X8267000Y35830500D01*
X8767000Y31830500D02*
X8267000Y32330500D01*
X11267000Y31830500D02*
X8767000Y31830500D01*
X11767000Y36330500D02*
X8767000Y36330500D01*
X12267000Y35830500D02*
X11767000Y36330500D01*
X12267000Y35830500D02*
X12267000Y34830500D01*
X12767000Y34330500D02*
X17267000Y34330500D01*
X12767000Y29630500D02*
X12767000Y30330500D01*
X16267000Y35130500D02*
X17267000Y35130500D01*
X17267000Y35130500D02*
X17267000Y34130500D01*
X17267000Y34330500D02*
X17267000Y33730500D01*
X17267000Y30130500D02*
X17267000Y29630500D01*
X17267000Y29630500D02*
X12767000Y29630500D01*
X17267000Y22130500D02*
X17267000Y21130500D01*
X17267000Y21130500D02*
X16267000Y21130500D01*
X11267000Y31830500D02*
G75*
G02*
X12767000Y30330500I-1J-1500001D01*
G01*
X12767000Y34330500D02*
G75*
G02*
X12267000Y34830500I1J500001D01*
G01*
%TO.C,SW9*%
X41367000Y97043000D02*
X42367000Y97043000D01*
X41367000Y96043000D02*
X41367000Y97043000D01*
X41367000Y83043000D02*
X41367000Y84043000D01*
X42367000Y83043000D02*
X41367000Y83043000D01*
X46867000Y98243000D02*
X46367000Y97743000D01*
X46867000Y93743000D02*
X46367000Y94243000D01*
X49367000Y93743000D02*
X46867000Y93743000D01*
X49867000Y98243000D02*
X46867000Y98243000D01*
X50367000Y97743000D02*
X49867000Y98243000D01*
X50367000Y97743000D02*
X50367000Y96743000D01*
X50867000Y96243000D02*
X55367000Y96243000D01*
X50867000Y91543000D02*
X50867000Y92243000D01*
X54367000Y97043000D02*
X55367000Y97043000D01*
X55367000Y97043000D02*
X55367000Y96043000D01*
X55367000Y96243000D02*
X55367000Y95643000D01*
X55367000Y92043000D02*
X55367000Y91543000D01*
X55367000Y91543000D02*
X50867000Y91543000D01*
X55367000Y84043000D02*
X55367000Y83043000D01*
X55367000Y83043000D02*
X54367000Y83043000D01*
X49367000Y93743000D02*
G75*
G02*
X50867000Y92243000I-1J-1500001D01*
G01*
X50867000Y96243000D02*
G75*
G02*
X50367000Y96743000I1J500001D01*
G01*
%TO.C,SW10*%
X41367000Y77993000D02*
X42367000Y77993000D01*
X41367000Y76993000D02*
X41367000Y77993000D01*
X41367000Y63993000D02*
X41367000Y64993000D01*
X42367000Y63993000D02*
X41367000Y63993000D01*
X46867000Y79193000D02*
X46367000Y78693000D01*
X46867000Y74693000D02*
X46367000Y75193000D01*
X49367000Y74693000D02*
X46867000Y74693000D01*
X49867000Y79193000D02*
X46867000Y79193000D01*
X50367000Y78693000D02*
X49867000Y79193000D01*
X50367000Y78693000D02*
X50367000Y77693000D01*
X50867000Y77193000D02*
X55367000Y77193000D01*
X50867000Y72493000D02*
X50867000Y73193000D01*
X54367000Y77993000D02*
X55367000Y77993000D01*
X55367000Y77993000D02*
X55367000Y76993000D01*
X55367000Y77193000D02*
X55367000Y76593000D01*
X55367000Y72993000D02*
X55367000Y72493000D01*
X55367000Y72493000D02*
X50867000Y72493000D01*
X55367000Y64993000D02*
X55367000Y63993000D01*
X55367000Y63993000D02*
X54367000Y63993000D01*
X49367000Y74693000D02*
G75*
G02*
X50867000Y73193000I-1J-1500001D01*
G01*
X50867000Y77193000D02*
G75*
G02*
X50367000Y77693000I1J500001D01*
G01*
%TO.C,SW11*%
X41367000Y58943000D02*
X42367000Y58943000D01*
X41367000Y57943000D02*
X41367000Y58943000D01*
X41367000Y44943000D02*
X41367000Y45943000D01*
X42367000Y44943000D02*
X41367000Y44943000D01*
X46867000Y60143000D02*
X46367000Y59643000D01*
X46867000Y55643000D02*
X46367000Y56143000D01*
X49367000Y55643000D02*
X46867000Y55643000D01*
X49867000Y60143000D02*
X46867000Y60143000D01*
X50367000Y59643000D02*
X49867000Y60143000D01*
X50367000Y59643000D02*
X50367000Y58643000D01*
X50867000Y58143000D02*
X55367000Y58143000D01*
X50867000Y53443000D02*
X50867000Y54143000D01*
X54367000Y58943000D02*
X55367000Y58943000D01*
X55367000Y58943000D02*
X55367000Y57943000D01*
X55367000Y58143000D02*
X55367000Y57543000D01*
X55367000Y53943000D02*
X55367000Y53443000D01*
X55367000Y53443000D02*
X50867000Y53443000D01*
X55367000Y45943000D02*
X55367000Y44943000D01*
X55367000Y44943000D02*
X54367000Y44943000D01*
X49367000Y55643000D02*
G75*
G02*
X50867000Y54143000I-1J-1500001D01*
G01*
X50867000Y58143000D02*
G75*
G02*
X50367000Y58643000I1J500001D01*
G01*
%TO.C,SW22*%
X98517000Y75611800D02*
X99517000Y75611800D01*
X98517000Y74611800D02*
X98517000Y75611800D01*
X98517000Y61611800D02*
X98517000Y62611800D01*
X99517000Y61611800D02*
X98517000Y61611800D01*
X104017000Y76811800D02*
X103517000Y76311800D01*
X104017000Y72311800D02*
X103517000Y72811800D01*
X106517000Y72311800D02*
X104017000Y72311800D01*
X107017000Y76811800D02*
X104017000Y76811800D01*
X107517000Y76311800D02*
X107017000Y76811800D01*
X107517000Y76311800D02*
X107517000Y75311800D01*
X108017000Y74811800D02*
X112517000Y74811800D01*
X108017000Y70111800D02*
X108017000Y70811800D01*
X111517000Y75611800D02*
X112517000Y75611800D01*
X112517000Y75611800D02*
X112517000Y74611800D01*
X112517000Y74811800D02*
X112517000Y74211800D01*
X112517000Y70611800D02*
X112517000Y70111800D01*
X112517000Y70111800D02*
X108017000Y70111800D01*
X112517000Y62611800D02*
X112517000Y61611800D01*
X112517000Y61611800D02*
X111517000Y61611800D01*
X106517000Y72311800D02*
G75*
G02*
X108017000Y70811800I-1J-1500001D01*
G01*
X108017000Y74811800D02*
G75*
G02*
X107517000Y75311800I1J500001D01*
G01*
%TO.C,SW23*%
X98517000Y56561800D02*
X99517000Y56561800D01*
X98517000Y55561800D02*
X98517000Y56561800D01*
X98517000Y42561800D02*
X98517000Y43561800D01*
X99517000Y42561800D02*
X98517000Y42561800D01*
X104017000Y57761800D02*
X103517000Y57261800D01*
X104017000Y53261800D02*
X103517000Y53761800D01*
X106517000Y53261800D02*
X104017000Y53261800D01*
X107017000Y57761800D02*
X104017000Y57761800D01*
X107517000Y57261800D02*
X107017000Y57761800D01*
X107517000Y57261800D02*
X107517000Y56261800D01*
X108017000Y55761800D02*
X112517000Y55761800D01*
X108017000Y51061800D02*
X108017000Y51761800D01*
X111517000Y56561800D02*
X112517000Y56561800D01*
X112517000Y56561800D02*
X112517000Y55561800D01*
X112517000Y55761800D02*
X112517000Y55161800D01*
X112517000Y51561800D02*
X112517000Y51061800D01*
X112517000Y51061800D02*
X108017000Y51061800D01*
X112517000Y43561800D02*
X112517000Y42561800D01*
X112517000Y42561800D02*
X111517000Y42561800D01*
X106517000Y53261800D02*
G75*
G02*
X108017000Y51761800I-1J-1500001D01*
G01*
X108017000Y55761800D02*
G75*
G02*
X107517000Y56261800I1J500001D01*
G01*
%TO.C,SW24*%
X98517000Y37511800D02*
X99517000Y37511800D01*
X98517000Y36511800D02*
X98517000Y37511800D01*
X98517000Y23511800D02*
X98517000Y24511800D01*
X99517000Y23511800D02*
X98517000Y23511800D01*
X104017000Y38711800D02*
X103517000Y38211800D01*
X104017000Y34211800D02*
X103517000Y34711800D01*
X106517000Y34211800D02*
X104017000Y34211800D01*
X107017000Y38711800D02*
X104017000Y38711800D01*
X107517000Y38211800D02*
X107017000Y38711800D01*
X107517000Y38211800D02*
X107517000Y37211800D01*
X108017000Y36711800D02*
X112517000Y36711800D01*
X108017000Y32011800D02*
X108017000Y32711800D01*
X111517000Y37511800D02*
X112517000Y37511800D01*
X112517000Y37511800D02*
X112517000Y36511800D01*
X112517000Y36711800D02*
X112517000Y36111800D01*
X112517000Y32511800D02*
X112517000Y32011800D01*
X112517000Y32011800D02*
X108017000Y32011800D01*
X112517000Y24511800D02*
X112517000Y23511800D01*
X112517000Y23511800D02*
X111517000Y23511800D01*
X106517000Y34211800D02*
G75*
G02*
X108017000Y32711800I-1J-1500001D01*
G01*
X108017000Y36711800D02*
G75*
G02*
X107517000Y37211800I1J500001D01*
G01*
%TO.C,SW30*%
X3267000Y16080500D02*
X4267000Y16080500D01*
X3267000Y15080500D02*
X3267000Y16080500D01*
X3267000Y2080500D02*
X3267000Y3080500D01*
X4267000Y2080500D02*
X3267000Y2080500D01*
X8767000Y17280500D02*
X8267000Y16780500D01*
X8767000Y12780500D02*
X8267000Y13280500D01*
X11267000Y12780500D02*
X8767000Y12780500D01*
X11767000Y17280500D02*
X8767000Y17280500D01*
X12267000Y16780500D02*
X11767000Y17280500D01*
X12267000Y16780500D02*
X12267000Y15780500D01*
X12767000Y15280500D02*
X17267000Y15280500D01*
X12767000Y10580500D02*
X12767000Y11280500D01*
X16267000Y16080500D02*
X17267000Y16080500D01*
X17267000Y16080500D02*
X17267000Y15080500D01*
X17267000Y15280500D02*
X17267000Y14680500D01*
X17267000Y11080500D02*
X17267000Y10580500D01*
X17267000Y10580500D02*
X12767000Y10580500D01*
X17267000Y3080500D02*
X17267000Y2080500D01*
X17267000Y2080500D02*
X16267000Y2080500D01*
X11267000Y12780500D02*
G75*
G02*
X12767000Y11280500I-1J-1500001D01*
G01*
X12767000Y15280500D02*
G75*
G02*
X12267000Y15780500I1J500001D01*
G01*
%TO.C,SW32*%
X41367000Y20843000D02*
X42367000Y20843000D01*
X41367000Y19843000D02*
X41367000Y20843000D01*
X41367000Y6843000D02*
X41367000Y7843000D01*
X42367000Y6843000D02*
X41367000Y6843000D01*
X46867000Y22043000D02*
X46367000Y21543000D01*
X46867000Y17543000D02*
X46367000Y18043000D01*
X49367000Y17543000D02*
X46867000Y17543000D01*
X49867000Y22043000D02*
X46867000Y22043000D01*
X50367000Y21543000D02*
X49867000Y22043000D01*
X50367000Y21543000D02*
X50367000Y20543000D01*
X50867000Y20043000D02*
X55367000Y20043000D01*
X50867000Y15343000D02*
X50867000Y16043000D01*
X54367000Y20843000D02*
X55367000Y20843000D01*
X55367000Y20843000D02*
X55367000Y19843000D01*
X55367000Y20043000D02*
X55367000Y19443000D01*
X55367000Y15843000D02*
X55367000Y15343000D01*
X55367000Y15343000D02*
X50867000Y15343000D01*
X55367000Y7843000D02*
X55367000Y6843000D01*
X55367000Y6843000D02*
X54367000Y6843000D01*
X49367000Y17543000D02*
G75*
G02*
X50867000Y16043000I-1J-1500001D01*
G01*
X50867000Y20043000D02*
G75*
G02*
X50367000Y20543000I1J500001D01*
G01*
%TO.C,SW33*%
X60417000Y23224300D02*
X61417000Y23224300D01*
X60417000Y22224300D02*
X60417000Y23224300D01*
X60417000Y9224300D02*
X60417000Y10224300D01*
X61417000Y9224300D02*
X60417000Y9224300D01*
X65917000Y24424300D02*
X65417000Y23924300D01*
X65917000Y19924300D02*
X65417000Y20424300D01*
X68417000Y19924300D02*
X65917000Y19924300D01*
X68917000Y24424300D02*
X65917000Y24424300D01*
X69417000Y23924300D02*
X68917000Y24424300D01*
X69417000Y23924300D02*
X69417000Y22924300D01*
X69917000Y22424300D02*
X74417000Y22424300D01*
X69917000Y17724300D02*
X69917000Y18424300D01*
X73417000Y23224300D02*
X74417000Y23224300D01*
X74417000Y23224300D02*
X74417000Y22224300D01*
X74417000Y22424300D02*
X74417000Y21824300D01*
X74417000Y18224300D02*
X74417000Y17724300D01*
X74417000Y17724300D02*
X69917000Y17724300D01*
X74417000Y10224300D02*
X74417000Y9224300D01*
X74417000Y9224300D02*
X73417000Y9224300D01*
X68417000Y19924300D02*
G75*
G02*
X69917000Y18424300I-1J-1500001D01*
G01*
X69917000Y22424300D02*
G75*
G02*
X69417000Y22924300I1J500001D01*
G01*
%TD*%
D15*
%TO.C,U6*%
X157200400Y82470000D03*
X157200400Y79930000D03*
X157200400Y77390000D03*
X157200400Y74850000D03*
X157200400Y72310000D03*
X157200400Y69770000D03*
X157200400Y67230000D03*
X157200400Y64690000D03*
X157200400Y62150000D03*
X157200400Y59610000D03*
X157200400Y57070000D03*
X157200400Y54530000D03*
X141960400Y54530000D03*
X141960400Y57070000D03*
X141960400Y59610000D03*
X141960400Y62150000D03*
X141960400Y64690000D03*
X141960400Y67230000D03*
X141960400Y69770000D03*
X141960400Y72310000D03*
X141960400Y74850000D03*
X141960400Y77390000D03*
X141960400Y79930000D03*
X141960400Y82470000D03*
%TD*%
%LPC*%
D16*
%TO.C,U1*%
X57892000Y61468000D03*
%TD*%
%TO.C,U2*%
X115042000Y78232000D03*
%TD*%
%TO.C,U4*%
X109073000Y18542000D03*
%TD*%
%TO.C,U5*%
X19792000Y75692000D03*
%TD*%
%TO.C,U7*%
X19792000Y18288000D03*
%TD*%
D17*
%TO.C,J1*%
X124500000Y88750000D03*
X116500000Y88750000D03*
X120500000Y94250000D03*
X120500000Y97250000D03*
X120500000Y90250000D03*
D18*
X118500000Y92050000D03*
X122500000Y92050000D03*
X118500000Y99050000D03*
X122500000Y99050000D03*
%TD*%
D16*
%TO.C,U8*%
X58400000Y25908000D03*
%TD*%
%TO.C,U9*%
X51669000Y100584000D03*
%TD*%
D19*
%TO.C,U3*%
X138830400Y83970000D03*
X138830400Y81430000D03*
X138830400Y78890000D03*
X138830400Y76350000D03*
X138830400Y73810000D03*
X138830400Y71270000D03*
X138830400Y68730000D03*
X138830400Y66190000D03*
X138830400Y63650000D03*
X138830400Y61110000D03*
X138830400Y58570000D03*
X138830400Y56030000D03*
X154070400Y56030000D03*
X154070400Y58570000D03*
X154070400Y61110000D03*
X154070400Y63650000D03*
X154070400Y66190000D03*
X154070400Y68730000D03*
X154070400Y71270000D03*
X154070400Y73810000D03*
X154070400Y76350000D03*
X154070400Y78890000D03*
X154070400Y81430000D03*
X154070400Y83970000D03*
%TD*%
D20*
%TO.C,D68*%
X125395000Y-1061000D03*
D21*
X127120000Y1926788D03*
X128750000Y4750030D03*
D22*
X130475000Y7737818D03*
%TD*%
D23*
%TO.C,SW5*%
X23817000Y85280500D03*
D24*
X24317000Y89030500D03*
X29317000Y91230500D03*
D25*
X29317000Y85280500D03*
D24*
X34317000Y89030500D03*
D23*
X34817000Y85280500D03*
D26*
X26042000Y91230500D03*
D27*
X29317000Y79380500D03*
X24317000Y81480500D03*
X34317000Y81480500D03*
D28*
X37592000Y89030500D03*
%TD*%
D23*
%TO.C,SW6*%
X23817000Y66230500D03*
D24*
X24317000Y69980500D03*
X29317000Y72180500D03*
D25*
X29317000Y66230500D03*
D24*
X34317000Y69980500D03*
D23*
X34817000Y66230500D03*
D26*
X26042000Y72180500D03*
D27*
X29317000Y60330500D03*
X24317000Y62430500D03*
X34317000Y62430500D03*
D28*
X37592000Y69980500D03*
%TD*%
D23*
%TO.C,SW7*%
X23817000Y47180500D03*
D24*
X24317000Y50930500D03*
X29317000Y53130500D03*
D25*
X29317000Y47180500D03*
D24*
X34317000Y50930500D03*
D23*
X34817000Y47180500D03*
D26*
X26042000Y53130500D03*
D27*
X29317000Y41280500D03*
X24317000Y43380500D03*
X34317000Y43380500D03*
D28*
X37592000Y50930500D03*
%TD*%
D23*
%TO.C,SW8*%
X23817000Y28130500D03*
D24*
X24317000Y31880500D03*
X29317000Y34080500D03*
D25*
X29317000Y28130500D03*
D24*
X34317000Y31880500D03*
D23*
X34817000Y28130500D03*
D26*
X26042000Y34080500D03*
D27*
X29317000Y22230500D03*
X24317000Y24330500D03*
X34317000Y24330500D03*
D28*
X37592000Y31880500D03*
%TD*%
D23*
%TO.C,SW12*%
X42867000Y32893000D03*
D24*
X43367000Y36643000D03*
X48367000Y38843000D03*
D25*
X48367000Y32893000D03*
D24*
X53367000Y36643000D03*
D23*
X53867000Y32893000D03*
D26*
X45092000Y38843000D03*
D27*
X48367000Y26993000D03*
X43367000Y29093000D03*
X53367000Y29093000D03*
D28*
X56642000Y36643000D03*
%TD*%
D23*
%TO.C,SW13*%
X61917000Y92424300D03*
D24*
X62417000Y96174300D03*
X67417000Y98374300D03*
D25*
X67417000Y92424300D03*
D24*
X72417000Y96174300D03*
D23*
X72917000Y92424300D03*
D26*
X64142000Y98374300D03*
D27*
X67417000Y86524300D03*
X62417000Y88624300D03*
X72417000Y88624300D03*
D28*
X75692000Y96174300D03*
%TD*%
D23*
%TO.C,SW14*%
X61917000Y73374300D03*
D24*
X62417000Y77124300D03*
X67417000Y79324300D03*
D25*
X67417000Y73374300D03*
D24*
X72417000Y77124300D03*
D23*
X72917000Y73374300D03*
D26*
X64142000Y79324300D03*
D27*
X67417000Y67474300D03*
X62417000Y69574300D03*
X72417000Y69574300D03*
D28*
X75692000Y77124300D03*
%TD*%
D23*
%TO.C,SW15*%
X61917000Y54324300D03*
D24*
X62417000Y58074300D03*
X67417000Y60274300D03*
D25*
X67417000Y54324300D03*
D24*
X72417000Y58074300D03*
D23*
X72917000Y54324300D03*
D26*
X64142000Y60274300D03*
D27*
X67417000Y48424300D03*
X62417000Y50524300D03*
X72417000Y50524300D03*
D28*
X75692000Y58074300D03*
%TD*%
D23*
%TO.C,SW16*%
X61917000Y35274300D03*
D24*
X62417000Y39024300D03*
X67417000Y41224300D03*
D25*
X67417000Y35274300D03*
D24*
X72417000Y39024300D03*
D23*
X72917000Y35274300D03*
D26*
X64142000Y41224300D03*
D27*
X67417000Y29374300D03*
X62417000Y31474300D03*
X72417000Y31474300D03*
D28*
X75692000Y39024300D03*
%TD*%
D23*
%TO.C,SW17*%
X80967000Y90043000D03*
D24*
X81467000Y93793000D03*
X86467000Y95993000D03*
D25*
X86467000Y90043000D03*
D24*
X91467000Y93793000D03*
D23*
X91967000Y90043000D03*
D26*
X83192000Y95993000D03*
D27*
X86467000Y84143000D03*
X81467000Y86243000D03*
X91467000Y86243000D03*
D28*
X94742000Y93793000D03*
%TD*%
D23*
%TO.C,SW18*%
X80967000Y70993000D03*
D24*
X81467000Y74743000D03*
X86467000Y76943000D03*
D25*
X86467000Y70993000D03*
D24*
X91467000Y74743000D03*
D23*
X91967000Y70993000D03*
D26*
X83192000Y76943000D03*
D27*
X86467000Y65093000D03*
X81467000Y67193000D03*
X91467000Y67193000D03*
D28*
X94742000Y74743000D03*
%TD*%
D23*
%TO.C,SW19*%
X80967000Y51943000D03*
D24*
X81467000Y55693000D03*
X86467000Y57893000D03*
D25*
X86467000Y51943000D03*
D24*
X91467000Y55693000D03*
D23*
X91967000Y51943000D03*
D26*
X83192000Y57893000D03*
D27*
X86467000Y46043000D03*
X81467000Y48143000D03*
X91467000Y48143000D03*
D28*
X94742000Y55693000D03*
%TD*%
D23*
%TO.C,SW20*%
X80967000Y32893000D03*
D24*
X81467000Y36643000D03*
X86467000Y38843000D03*
D25*
X86467000Y32893000D03*
D24*
X91467000Y36643000D03*
D23*
X91967000Y32893000D03*
D26*
X83192000Y38843000D03*
D27*
X86467000Y26993000D03*
X81467000Y29093000D03*
X91467000Y29093000D03*
D28*
X94742000Y36643000D03*
%TD*%
D23*
%TO.C,SW21*%
X100017000Y87661800D03*
D24*
X100517000Y91411800D03*
X105517000Y93611800D03*
D25*
X105517000Y87661800D03*
D24*
X110517000Y91411800D03*
D23*
X111017000Y87661800D03*
D26*
X102242000Y93611800D03*
D27*
X105517000Y81761800D03*
X100517000Y83861800D03*
X110517000Y83861800D03*
D28*
X113792000Y91411800D03*
%TD*%
D23*
%TO.C,SW25*%
X119067000Y78136800D03*
D24*
X119567000Y81886800D03*
X124567000Y84086800D03*
D25*
X124567000Y78136800D03*
D24*
X129567000Y81886800D03*
D23*
X130067000Y78136800D03*
D26*
X121292000Y84086800D03*
D27*
X124567000Y72236800D03*
X119567000Y74336800D03*
X129567000Y74336800D03*
D28*
X132842000Y81886800D03*
%TD*%
D23*
%TO.C,SW26*%
X119067000Y59086800D03*
D24*
X119567000Y62836800D03*
X124567000Y65036800D03*
D25*
X124567000Y59086800D03*
D24*
X129567000Y62836800D03*
D23*
X130067000Y59086800D03*
D26*
X121292000Y65036800D03*
D27*
X124567000Y53186800D03*
X119567000Y55286800D03*
X129567000Y55286800D03*
D28*
X132842000Y62836800D03*
%TD*%
D23*
%TO.C,SW27*%
X119067000Y40036800D03*
D24*
X119567000Y43786800D03*
X124567000Y45986800D03*
D25*
X124567000Y40036800D03*
D24*
X129567000Y43786800D03*
D23*
X130067000Y40036800D03*
D26*
X121292000Y45986800D03*
D27*
X124567000Y34136800D03*
X119567000Y36236800D03*
X129567000Y36236800D03*
D28*
X132842000Y43786800D03*
%TD*%
D23*
%TO.C,SW28*%
X127252000Y21788240D03*
D24*
X130249595Y19480227D03*
X129654851Y14050100D03*
D25*
X124502000Y17025100D03*
D24*
X125249595Y10819973D03*
D23*
X121752000Y12261960D03*
D29*
X131292351Y16886333D03*
D27*
X119392450Y19975100D03*
X123711103Y23255227D03*
X118711103Y14594973D03*
D30*
X123612095Y7983740D03*
%TD*%
D23*
%TO.C,SW31*%
X23817000Y9080500D03*
D24*
X24317000Y12830500D03*
X29317000Y15030500D03*
D25*
X29317000Y9080500D03*
D24*
X34317000Y12830500D03*
D23*
X34817000Y9080500D03*
D26*
X26042000Y15030500D03*
D27*
X29317000Y3180500D03*
X24317000Y5280500D03*
X34317000Y5280500D03*
D28*
X37592000Y12830500D03*
%TD*%
D23*
%TO.C,SW34*%
X95314000Y5067660D03*
D24*
X92316405Y7375673D03*
X92911149Y12805800D03*
D25*
X98064000Y9830800D03*
D24*
X97316405Y16035927D03*
D23*
X100814000Y14593940D03*
D31*
X91273649Y9969567D03*
D27*
X103173550Y6880800D03*
X98854897Y3600673D03*
X103854897Y12260927D03*
D32*
X98953905Y18872160D03*
%TD*%
D23*
%TO.C,SW35*%
X117727000Y5290240D03*
D24*
X120724595Y2982227D03*
X120129851Y-2447900D03*
D25*
X114977000Y527100D03*
D24*
X115724595Y-5678027D03*
D23*
X112227000Y-4236040D03*
D29*
X121767351Y388333D03*
D27*
X109867450Y3477100D03*
X114186103Y6757227D03*
X109186103Y-1903027D03*
D30*
X114087095Y-8514260D03*
%TD*%
D23*
%TO.C,SW41*%
X138860000Y4033140D03*
D24*
X141857595Y1725127D03*
X141262851Y-3705000D03*
D25*
X136110000Y-730000D03*
D24*
X136857595Y-6935127D03*
D23*
X133360000Y-5493140D03*
D29*
X142900351Y-868767D03*
D27*
X131000450Y2220000D03*
X135319103Y5500127D03*
X130319103Y-3160127D03*
D30*
X135220095Y-9771360D03*
%TD*%
D33*
%TO.C,D1*%
X15700000Y76750000D03*
D34*
X12250000Y76750000D03*
X8990000Y76750000D03*
D35*
X5540000Y76750000D03*
%TD*%
D36*
%TO.C,D2*%
X18750000Y56900000D03*
D37*
X18750000Y60350000D03*
X18750000Y63610000D03*
D35*
X18750000Y67060000D03*
%TD*%
D36*
%TO.C,D3*%
X19000000Y37400000D03*
D37*
X19000000Y40850000D03*
X19000000Y44110000D03*
D35*
X19000000Y47560000D03*
%TD*%
D36*
%TO.C,D4*%
X37250000Y18500000D03*
D37*
X37250000Y21950000D03*
X37250000Y25210000D03*
D35*
X37250000Y28660000D03*
%TD*%
D36*
%TO.C,D5*%
X37250000Y75150000D03*
D37*
X37250000Y78600000D03*
X37250000Y81860000D03*
D35*
X37250000Y85310000D03*
%TD*%
D36*
%TO.C,D6*%
X37250000Y55400000D03*
D37*
X37250000Y58850000D03*
X37250000Y62110000D03*
D35*
X37250000Y65560000D03*
%TD*%
D36*
%TO.C,D7*%
X37500000Y37900000D03*
D37*
X37500000Y41350000D03*
X37500000Y44610000D03*
D35*
X37500000Y48060000D03*
%TD*%
D36*
%TO.C,D8*%
X39985000Y23114000D03*
D37*
X39985000Y26564000D03*
X39985000Y29824000D03*
D35*
X39985000Y33274000D03*
%TD*%
D36*
%TO.C,D9*%
X39985000Y80264000D03*
D37*
X39985000Y83714000D03*
X39985000Y86974000D03*
D35*
X39985000Y90424000D03*
%TD*%
D36*
%TO.C,D10*%
X40250000Y61087000D03*
D37*
X40250000Y64537000D03*
X40250000Y67797000D03*
D35*
X40250000Y71247000D03*
%TD*%
D36*
%TO.C,D11*%
X40250000Y42164000D03*
D37*
X40250000Y45614000D03*
X40250000Y48874000D03*
D35*
X40250000Y52324000D03*
%TD*%
D33*
%TO.C,D12*%
X53700000Y43750000D03*
D34*
X50250000Y43750000D03*
X46990000Y43750000D03*
D35*
X43540000Y43750000D03*
%TD*%
D33*
%TO.C,D13*%
X58950000Y81250000D03*
D34*
X55500000Y81250000D03*
X52240000Y81250000D03*
D35*
X48790000Y81250000D03*
%TD*%
D36*
%TO.C,D14*%
X75799000Y62484000D03*
D37*
X75799000Y65934000D03*
X75799000Y69194000D03*
D35*
X75799000Y72644000D03*
%TD*%
D33*
%TO.C,D16*%
X71200000Y44750000D03*
D34*
X67750000Y44750000D03*
X64490000Y44750000D03*
D35*
X61040000Y44750000D03*
%TD*%
D36*
%TO.C,D17*%
X97500000Y78650000D03*
D37*
X97500000Y82100000D03*
X97500000Y85360000D03*
D35*
X97500000Y88810000D03*
%TD*%
D36*
%TO.C,D19*%
X75750000Y44650000D03*
D37*
X75750000Y48100000D03*
X75750000Y51360000D03*
D35*
X75750000Y54810000D03*
%TD*%
D36*
%TO.C,D20*%
X94500000Y20550000D03*
D37*
X94500000Y24000000D03*
X94500000Y27260000D03*
D35*
X94500000Y30710000D03*
%TD*%
D36*
%TO.C,D21*%
X97500000Y57300000D03*
D37*
X97500000Y60750000D03*
X97500000Y64010000D03*
D35*
X97500000Y67460000D03*
%TD*%
D36*
%TO.C,D22*%
X94500000Y60000000D03*
D37*
X94500000Y63450000D03*
X94500000Y66710000D03*
D35*
X94500000Y70160000D03*
%TD*%
D36*
%TO.C,D23*%
X97262000Y39900000D03*
D37*
X97262000Y43350000D03*
X97262000Y46610000D03*
D35*
X97262000Y50060000D03*
%TD*%
D36*
%TO.C,D24*%
X97250000Y21650000D03*
D37*
X97250000Y25100000D03*
X97250000Y28360000D03*
D35*
X97250000Y31810000D03*
%TD*%
D36*
%TO.C,D25*%
X113750000Y59250000D03*
D37*
X113750000Y62700000D03*
X113750000Y65960000D03*
D35*
X113750000Y69410000D03*
%TD*%
D36*
%TO.C,D26*%
X116500000Y49900000D03*
D37*
X116500000Y53350000D03*
X116500000Y56610000D03*
D35*
X116500000Y60060000D03*
%TD*%
D36*
%TO.C,D27*%
X113500000Y37290000D03*
D37*
X113500000Y40740000D03*
X113500000Y44000000D03*
D35*
X113500000Y47450000D03*
%TD*%
D36*
%TO.C,D28*%
X113899000Y21150000D03*
D37*
X113899000Y24600000D03*
X113899000Y27860000D03*
D35*
X113899000Y31310000D03*
%TD*%
D33*
%TO.C,D29*%
X14850000Y19250000D03*
D34*
X11400000Y19250000D03*
X8140000Y19250000D03*
D35*
X4690000Y19250000D03*
%TD*%
D33*
%TO.C,D30*%
X34250000Y19000000D03*
D34*
X30800000Y19000000D03*
X27540000Y19000000D03*
D35*
X24090000Y19000000D03*
%TD*%
D36*
%TO.C,D31*%
X40000000Y4400000D03*
D37*
X40000000Y7850000D03*
X40000000Y11110000D03*
D35*
X40000000Y14560000D03*
%TD*%
D38*
%TO.C,D33*%
X110487800Y13025000D03*
D39*
X107500012Y14750000D03*
X104676770Y16380000D03*
D40*
X101688982Y18105000D03*
%TD*%
D20*
%TO.C,D34*%
X104700000Y833270D03*
D21*
X106425000Y3821058D03*
X108055000Y6644300D03*
D22*
X109780000Y9632088D03*
%TD*%
D36*
%TO.C,D32*%
X59250000Y6900000D03*
D37*
X59250000Y10350000D03*
X59250000Y13610000D03*
D35*
X59250000Y17060000D03*
%TD*%
D36*
%TO.C,D15*%
X57250000Y42250000D03*
D37*
X57250000Y45700000D03*
X57250000Y48960000D03*
D35*
X57250000Y52410000D03*
%TD*%
D36*
%TO.C,D18*%
X94500000Y41300000D03*
D37*
X94500000Y44750000D03*
X94500000Y48010000D03*
D35*
X94500000Y51460000D03*
%TD*%
D19*
%TO.C,U6*%
X157200400Y82470000D03*
X157200400Y79930000D03*
X157200400Y77390000D03*
X157200400Y74850000D03*
X157200400Y72310000D03*
X157200400Y69770000D03*
X157200400Y67230000D03*
X157200400Y64690000D03*
X157200400Y62150000D03*
X157200400Y59610000D03*
X157200400Y57070000D03*
X157200400Y54530000D03*
X141960400Y54530000D03*
X141960400Y57070000D03*
X141960400Y59610000D03*
X141960400Y62150000D03*
X141960400Y64690000D03*
X141960400Y67230000D03*
X141960400Y69770000D03*
X141960400Y72310000D03*
X141960400Y74850000D03*
X141960400Y77390000D03*
X141960400Y79930000D03*
X141960400Y82470000D03*
%TD*%
D23*
%TO.C,SW1*%
X15767000Y85280500D03*
D24*
X15267000Y89030500D03*
D25*
X10267000Y85280500D03*
D24*
X10267000Y91230500D03*
X5267000Y89030500D03*
D23*
X4767000Y85280500D03*
D27*
X10267000Y79380500D03*
D41*
X6992000Y91230500D03*
D42*
X18542000Y89030500D03*
D27*
X15267000Y81480500D03*
X5267000Y81480500D03*
%TD*%
D23*
%TO.C,SW2*%
X15767000Y66230500D03*
D24*
X15267000Y69980500D03*
D25*
X10267000Y66230500D03*
D24*
X10267000Y72180500D03*
X5267000Y69980500D03*
D23*
X4767000Y66230500D03*
D27*
X10267000Y60330500D03*
D41*
X6992000Y72180500D03*
D42*
X18542000Y69980500D03*
D27*
X15267000Y62430500D03*
X5267000Y62430500D03*
%TD*%
D23*
%TO.C,SW3*%
X15767000Y47180500D03*
D24*
X15267000Y50930500D03*
D25*
X10267000Y47180500D03*
D24*
X10267000Y53130500D03*
X5267000Y50930500D03*
D23*
X4767000Y47180500D03*
D27*
X10267000Y41280500D03*
D41*
X6992000Y53130500D03*
D42*
X18542000Y50930500D03*
D27*
X15267000Y43380500D03*
X5267000Y43380500D03*
%TD*%
D23*
%TO.C,SW4*%
X15767000Y28130500D03*
D24*
X15267000Y31880500D03*
D25*
X10267000Y28130500D03*
D24*
X10267000Y34080500D03*
X5267000Y31880500D03*
D23*
X4767000Y28130500D03*
D27*
X10267000Y22230500D03*
D41*
X6992000Y34080500D03*
D42*
X18542000Y31880500D03*
D27*
X15267000Y24330500D03*
X5267000Y24330500D03*
%TD*%
D23*
%TO.C,SW9*%
X53867000Y90043000D03*
D24*
X53367000Y93793000D03*
D25*
X48367000Y90043000D03*
D24*
X48367000Y95993000D03*
X43367000Y93793000D03*
D23*
X42867000Y90043000D03*
D27*
X48367000Y84143000D03*
D41*
X45092000Y95993000D03*
D42*
X56642000Y93793000D03*
D27*
X53367000Y86243000D03*
X43367000Y86243000D03*
%TD*%
D23*
%TO.C,SW10*%
X53867000Y70993000D03*
D24*
X53367000Y74743000D03*
D25*
X48367000Y70993000D03*
D24*
X48367000Y76943000D03*
X43367000Y74743000D03*
D23*
X42867000Y70993000D03*
D27*
X48367000Y65093000D03*
D41*
X45092000Y76943000D03*
D42*
X56642000Y74743000D03*
D27*
X53367000Y67193000D03*
X43367000Y67193000D03*
%TD*%
D23*
%TO.C,SW11*%
X53867000Y51943000D03*
D24*
X53367000Y55693000D03*
D25*
X48367000Y51943000D03*
D24*
X48367000Y57893000D03*
X43367000Y55693000D03*
D23*
X42867000Y51943000D03*
D27*
X48367000Y46043000D03*
D41*
X45092000Y57893000D03*
D42*
X56642000Y55693000D03*
D27*
X53367000Y48143000D03*
X43367000Y48143000D03*
%TD*%
D23*
%TO.C,SW22*%
X111017000Y68611800D03*
D24*
X110517000Y72361800D03*
D25*
X105517000Y68611800D03*
D24*
X105517000Y74561800D03*
X100517000Y72361800D03*
D23*
X100017000Y68611800D03*
D27*
X105517000Y62711800D03*
D41*
X102242000Y74561800D03*
D42*
X113792000Y72361800D03*
D27*
X110517000Y64811800D03*
X100517000Y64811800D03*
%TD*%
D23*
%TO.C,SW23*%
X111017000Y49561800D03*
D24*
X110517000Y53311800D03*
D25*
X105517000Y49561800D03*
D24*
X105517000Y55511800D03*
X100517000Y53311800D03*
D23*
X100017000Y49561800D03*
D27*
X105517000Y43661800D03*
D41*
X102242000Y55511800D03*
D42*
X113792000Y53311800D03*
D27*
X110517000Y45761800D03*
X100517000Y45761800D03*
%TD*%
D23*
%TO.C,SW24*%
X111017000Y30511800D03*
D24*
X110517000Y34261800D03*
D25*
X105517000Y30511800D03*
D24*
X105517000Y36461800D03*
X100517000Y34261800D03*
D23*
X100017000Y30511800D03*
D27*
X105517000Y24611800D03*
D41*
X102242000Y36461800D03*
D42*
X113792000Y34261800D03*
D27*
X110517000Y26711800D03*
X100517000Y26711800D03*
%TD*%
D23*
%TO.C,SW30*%
X15767000Y9080500D03*
D24*
X15267000Y12830500D03*
D25*
X10267000Y9080500D03*
D24*
X10267000Y15030500D03*
X5267000Y12830500D03*
D23*
X4767000Y9080500D03*
D27*
X10267000Y3180500D03*
D41*
X6992000Y15030500D03*
D42*
X18542000Y12830500D03*
D27*
X15267000Y5280500D03*
X5267000Y5280500D03*
%TD*%
D23*
%TO.C,SW32*%
X53867000Y13843000D03*
D24*
X53367000Y17593000D03*
D25*
X48367000Y13843000D03*
D24*
X48367000Y19793000D03*
X43367000Y17593000D03*
D23*
X42867000Y13843000D03*
D27*
X48367000Y7943000D03*
D41*
X45092000Y19793000D03*
D42*
X56642000Y17593000D03*
D27*
X53367000Y10043000D03*
X43367000Y10043000D03*
%TD*%
D23*
%TO.C,SW33*%
X72917000Y16224300D03*
D24*
X72417000Y19974300D03*
D25*
X67417000Y16224300D03*
D24*
X67417000Y22174300D03*
X62417000Y19974300D03*
D23*
X61917000Y16224300D03*
D27*
X67417000Y10324300D03*
D41*
X64142000Y22174300D03*
D42*
X75692000Y19974300D03*
D27*
X72417000Y12424300D03*
X62417000Y12424300D03*
%TD*%
%LPD*%
M02*
