%TF.GenerationSoftware,KiCad,Pcbnew,8.0.3*%
%TF.CreationDate,2024-07-24T18:45:32+09:00*%
%TF.ProjectId,ergodash,6572676f-6461-4736-982e-6b696361645f,2.0*%
%TF.SameCoordinates,Original*%
%TF.FileFunction,Paste,Bot*%
%TF.FilePolarity,Positive*%
%FSLAX46Y46*%
G04 Gerber Fmt 4.6, Leading zero omitted, Abs format (unit mm)*
G04 Created by KiCad (PCBNEW 8.0.3) date 2024-07-24 18:45:32*
%MOMM*%
%LPD*%
G01*
G04 APERTURE LIST*
G04 Aperture macros list*
%AMRotRect*
0 Rectangle, with rotation*
0 The origin of the aperture is its center*
0 $1 length*
0 $2 width*
0 $3 Rotation angle, in degrees counterclockwise*
0 Add horizontal line*
21,1,$1,$2,0,0,$3*%
%AMOutline5P*
0 Free polygon, 5 corners , with rotation*
0 The origin of the aperture is its center*
0 number of corners: always 5*
0 $1 to $10 corner X, Y*
0 $11 Rotation angle, in degrees counterclockwise*
0 create outline with 5 corners*
4,1,5,$1,$2,$3,$4,$5,$6,$7,$8,$9,$10,$1,$2,$11*%
%AMOutline6P*
0 Free polygon, 6 corners , with rotation*
0 The origin of the aperture is its center*
0 number of corners: always 6*
0 $1 to $12 corner X, Y*
0 $13 Rotation angle, in degrees counterclockwise*
0 create outline with 6 corners*
4,1,6,$1,$2,$3,$4,$5,$6,$7,$8,$9,$10,$11,$12,$1,$2,$13*%
%AMOutline7P*
0 Free polygon, 7 corners , with rotation*
0 The origin of the aperture is its center*
0 number of corners: always 7*
0 $1 to $14 corner X, Y*
0 $15 Rotation angle, in degrees counterclockwise*
0 create outline with 7 corners*
4,1,7,$1,$2,$3,$4,$5,$6,$7,$8,$9,$10,$11,$12,$13,$14,$1,$2,$15*%
%AMOutline8P*
0 Free polygon, 8 corners , with rotation*
0 The origin of the aperture is its center*
0 number of corners: always 8*
0 $1 to $16 corner X, Y*
0 $17 Rotation angle, in degrees counterclockwise*
0 create outline with 8 corners*
4,1,8,$1,$2,$3,$4,$5,$6,$7,$8,$9,$10,$11,$12,$13,$14,$15,$16,$1,$2,$17*%
G04 Aperture macros list end*
%ADD10R,2.600000X2.600000*%
%ADD11Outline5P,-1.300000X1.300000X1.300000X1.300000X1.300000X-1.300000X0.000000X-1.300000X-1.300000X0.000000X0.000000*%
%ADD12RotRect,2.600000X2.600000X240.000000*%
%ADD13Outline5P,-1.300000X1.300000X1.300000X1.300000X1.300000X-1.300000X0.000000X-1.300000X-1.300000X0.000000X240.000000*%
%ADD14RotRect,2.600000X2.600000X60.000000*%
%ADD15Outline5P,-1.300000X1.300000X1.300000X1.300000X1.300000X-1.300000X0.000000X-1.300000X-1.300000X0.000000X60.000000*%
%ADD16Outline5P,-1.300000X1.300000X0.000000X1.300000X1.300000X0.000000X1.300000X-1.300000X-1.300000X-1.300000X180.000000*%
G04 APERTURE END LIST*
D10*
%TO.C,SW5*%
X37592000Y89030500D03*
D11*
X26042000Y91230500D03*
%TD*%
D10*
%TO.C,SW6*%
X37592000Y69980500D03*
D11*
X26042000Y72180500D03*
%TD*%
D10*
%TO.C,SW7*%
X37592000Y50930500D03*
D11*
X26042000Y53130500D03*
%TD*%
D10*
%TO.C,SW8*%
X37592000Y31880500D03*
D11*
X26042000Y34080500D03*
%TD*%
D10*
%TO.C,SW12*%
X56642000Y36643000D03*
D11*
X45092000Y38843000D03*
%TD*%
D10*
%TO.C,SW13*%
X75692000Y96174300D03*
D11*
X64142000Y98374300D03*
%TD*%
D10*
%TO.C,SW14*%
X75692000Y77124300D03*
D11*
X64142000Y79324300D03*
%TD*%
D10*
%TO.C,SW15*%
X75692000Y58074300D03*
D11*
X64142000Y60274300D03*
%TD*%
D10*
%TO.C,SW16*%
X75692000Y39024300D03*
D11*
X64142000Y41224300D03*
%TD*%
D10*
%TO.C,SW17*%
X94742000Y93793000D03*
D11*
X83192000Y95993000D03*
%TD*%
D10*
%TO.C,SW18*%
X94742000Y74743000D03*
D11*
X83192000Y76943000D03*
%TD*%
D10*
%TO.C,SW19*%
X94742000Y55693000D03*
D11*
X83192000Y57893000D03*
%TD*%
D10*
%TO.C,SW20*%
X94742000Y36643000D03*
D11*
X83192000Y38843000D03*
%TD*%
D10*
%TO.C,SW21*%
X113792000Y91411800D03*
D11*
X102242000Y93611800D03*
%TD*%
D10*
%TO.C,SW25*%
X132842000Y81886800D03*
D11*
X121292000Y84086800D03*
%TD*%
D10*
%TO.C,SW26*%
X132842000Y62836800D03*
D11*
X121292000Y65036800D03*
%TD*%
D10*
%TO.C,SW27*%
X132842000Y43786800D03*
D11*
X121292000Y45986800D03*
%TD*%
D12*
%TO.C,SW28*%
X123612095Y7983740D03*
D13*
X131292351Y16886333D03*
%TD*%
D10*
%TO.C,SW31*%
X37592000Y12830500D03*
D11*
X26042000Y15030500D03*
%TD*%
D14*
%TO.C,SW34*%
X98953905Y18872160D03*
D15*
X91273649Y9969567D03*
%TD*%
D12*
%TO.C,SW35*%
X114087095Y-8514260D03*
D13*
X121767351Y388333D03*
%TD*%
D10*
%TO.C,SW1*%
X18542000Y89030500D03*
D16*
X6992000Y91230500D03*
%TD*%
D10*
%TO.C,SW2*%
X18542000Y69980500D03*
D16*
X6992000Y72180500D03*
%TD*%
D10*
%TO.C,SW3*%
X18542000Y50930500D03*
D16*
X6992000Y53130500D03*
%TD*%
D10*
%TO.C,SW4*%
X18542000Y31880500D03*
D16*
X6992000Y34080500D03*
%TD*%
D10*
%TO.C,SW9*%
X56642000Y93793000D03*
D16*
X45092000Y95993000D03*
%TD*%
D10*
%TO.C,SW10*%
X56642000Y74743000D03*
D16*
X45092000Y76943000D03*
%TD*%
D10*
%TO.C,SW11*%
X56642000Y55693000D03*
D16*
X45092000Y57893000D03*
%TD*%
D10*
%TO.C,SW22*%
X113792000Y72361800D03*
D16*
X102242000Y74561800D03*
%TD*%
D10*
%TO.C,SW23*%
X113792000Y53311800D03*
D16*
X102242000Y55511800D03*
%TD*%
D10*
%TO.C,SW24*%
X113792000Y34261800D03*
D16*
X102242000Y36461800D03*
%TD*%
D10*
%TO.C,SW30*%
X18542000Y12830500D03*
D16*
X6992000Y15030500D03*
%TD*%
D10*
%TO.C,SW32*%
X56642000Y17593000D03*
D16*
X45092000Y19793000D03*
%TD*%
D10*
%TO.C,SW33*%
X75692000Y19974300D03*
D16*
X64142000Y22174300D03*
%TD*%
D13*
%TO.C,SW41*%
X142900351Y-868767D03*
D12*
X135220095Y-9771360D03*
%TD*%
M02*
