%TF.GenerationSoftware,KiCad,Pcbnew,8.0.3*%
%TF.CreationDate,2024-07-25T04:43:43+09:00*%
%TF.ProjectId,ergodash,6572676f-6461-4736-982e-6b696361645f,2.0*%
%TF.SameCoordinates,Original*%
%TF.FileFunction,Profile,NP*%
%FSLAX46Y46*%
G04 Gerber Fmt 4.6, Leading zero omitted, Abs format (unit mm)*
G04 Created by KiCad (PCBNEW 8.0.3) date 2024-07-25 04:43:43*
%MOMM*%
%LPD*%
G01*
G04 APERTURE LIST*
%TA.AperFunction,Profile*%
%ADD10C,0.150000*%
%TD*%
G04 APERTURE END LIST*
D10*
X156964000Y86169554D02*
G75*
G02*
X159249954Y83883554I0J-2285954D01*
G01*
X126214000Y101786000D02*
G75*
G02*
X128500000Y99500000I0J-2286000D01*
G01*
X86956000Y105000000D02*
X95568000Y105000000D01*
X130786000Y86214000D02*
X156964000Y86169554D01*
X137536000Y20964000D02*
G75*
G02*
X135250000Y23250000I0J2286000D01*
G01*
X135080446Y48133554D02*
G75*
G02*
X137366446Y50419554I2285954J46D01*
G01*
X135080446Y48133554D02*
X135250000Y23250000D01*
X2250000Y0D02*
G75*
G02*
X0Y2250000I0J2250000D01*
G01*
X0Y2250000D02*
X1Y92383554D01*
X95568000Y105000000D02*
X126214000Y101786000D01*
X156964000Y50580446D02*
X137366446Y50419554D01*
X151862356Y12750000D02*
G75*
G02*
X152243365Y10590994I-888956J-1270000D01*
G01*
X128500000Y88500000D02*
X128500000Y99500000D01*
X95484000Y254000D02*
X119233000Y-13335000D01*
X1Y92383554D02*
G75*
G02*
X2286000Y94669549I2285999J-4D01*
G01*
X134346000Y-20701000D02*
X152243356Y10591000D01*
X58000000Y105000000D02*
X2286000Y94669554D01*
X58000000Y105000000D02*
X86956000Y105000000D01*
X2250000Y0D02*
X38080000Y254000D01*
X38080000Y254000D02*
X95484000Y254000D01*
X119233000Y-13335000D02*
X132314000Y-20955000D01*
X130786000Y86214000D02*
G75*
G02*
X128500000Y88500000I0J2286000D01*
G01*
X159250000Y52866446D02*
G75*
G02*
X156964000Y50580400I-2286000J-46D01*
G01*
X134346000Y-20701000D02*
G75*
G02*
X132314000Y-20955000I-1143000J889000D01*
G01*
X137536000Y20964000D02*
X151862356Y12750000D01*
X159250000Y83883554D02*
X159250000Y52866446D01*
X1666666Y0D02*
G75*
G02*
X-1666666Y0I-1666666J0D01*
G01*
X-1666666Y0D02*
G75*
G02*
X1666666Y0I1666666J0D01*
G01*
X-2500000Y0D02*
X2500000Y0D01*
X0Y2500000D02*
X0Y-2500000D01*
M02*
